<?xml version="1.0" encoding="utf-8"?>
<!-- Generator: Adobe Illustrator 15.0.2, SVG Export Plug-In . SVG Version: 6.00 Build 0)  -->
<!DOCTYPE svg PUBLIC "-//W3C//DTD SVG 1.1//EN" "http://www.w3.org/Graphics/SVG/1.1/DTD/svg11.dtd">
<svg version="1.1" id="Layer_1" xmlns="http://www.w3.org/2000/svg" xmlns:xlink="http://www.w3.org/1999/xlink" x="0px" y="0px"
	 width="42px" height="40px" viewBox="0 0 42 40" enable-background="new 0 0 42 40" xml:space="preserve">
<g id="Layer_1_1_">
	<g>
		<path d="M40.618,19.156c-0.362-0.366-0.906-0.459-1.372-0.243c-0.734,0.346-1.521,0.523-2.346,0.523
			c-3.031,0-5.502-2.471-5.502-5.509c0-1.932,1.033-3.745,2.694-4.735c0.438-0.258,0.667-0.766,0.567-1.267
			c-0.1-0.5-0.5-0.883-1.006-0.959c-0.465-0.07-0.939-0.106-1.414-0.106c-4.766,0-8.727,3.513-9.43,8.081
			c0.861,0.543,1.644,1.204,2.326,1.967c-0.014-0.165-0.027-0.334-0.027-0.507c0-3.27,2.211-6.031,5.219-6.872
			c-0.857,1.288-1.342,2.818-1.342,4.398c0,4.344,3.514,7.884,7.85,7.919c-1.203,1.016-2.732,1.619-4.346,1.678
			c0.396,0.729,0.691,1.518,0.885,2.349c3.201-0.394,6.059-2.397,7.473-5.347C41.07,20.066,40.977,19.517,40.618,19.156z"/>
	</g>
	<path fill="#010101" d="M30.863,25.845c-0.438-1.34-1.262-2.507-2.336-3.364c-0.26-0.158-0.504-0.33-0.74-0.516
		c-0.871-0.529-1.862-0.882-2.926-0.996c-0.465-1.148-1.161-2.15-2.029-2.967c-1.551-1.472-3.646-2.341-5.911-2.341
		c-3.305,0-6.291,1.901-7.709,4.792c-0.084,0.17-0.164,0.338-0.237,0.516c-0.284-0.031-0.54-0.064-0.825-0.064
		c-3.909,0-7.116,3.177-7.116,7.117s3.207,7.119,7.116,7.119c0.032,0,0.032,0,0.032,0H22h2.07h0.031c3.94,0,7.116-3.179,7.116-7.088
		C31.219,27.281,31.088,26.538,30.863,25.845z M24.166,32.915c-0.064,0-0.096,0-0.128,0h-3.975H8.246c-0.032,0-0.064,0-0.128,0
		c-2.673,0-4.862-2.19-4.862-4.896c0-2.699,2.189-4.895,4.894-4.895c0.413,0,0.825,0.033,1.27,0.16c0.605,0.16,1.21-0.16,1.365-0.76
		c0.019-0.065,0.043-0.129,0.063-0.193c0.827-2.657,3.277-4.481,6.073-4.481c2.827,0,5.274,1.814,6.131,4.481
		c0.13,0.479,0.573,0.793,1.05,0.793c0.032,0,0.032,0,0.064,0c0.564,0,1.1,0.104,1.604,0.285l2.129,1.484
		c0.705,0.849,1.131,1.938,1.131,3.125C29.029,30.725,26.865,32.915,24.166,32.915z"/>
</g>
<g id="Layer_2">
</g>
</svg>
