<?xml version="1.0" encoding="utf-8"?>
<!-- Generator: Adobe Illustrator 17.0.0, SVG Export Plug-In . SVG Version: 6.00 Build 0)  -->
<!DOCTYPE svg PUBLIC "-//W3C//DTD SVG 1.1//EN" "http://www.w3.org/Graphics/SVG/1.1/DTD/svg11.dtd">
<svg version="1.1" id="Layer_1" xmlns="http://www.w3.org/2000/svg" xmlns:xlink="http://www.w3.org/1999/xlink" x="0px" y="0px"
	 viewBox="279.839 0 880.322 612" enable-background="new 279.839 0 880.322 612"
	 xml:space="preserve">
<g>
	<g>
		<path d="M390.407,145.781c10.564-12.677,21.832-24.649,34.509-34.509L397.45,83.807c-9.86-9.86-25.353-9.86-35.213,0
			s-9.86,25.353,0,34.509L390.407,145.781z"/>
		<path d="M341.814,285.224c0-8.451,0.704-16.902,1.409-24.649h-38.734c-13.381,0-24.649,11.268-24.649,24.649
			s11.268,24.649,24.649,24.649h38.03C341.814,302.127,341.814,293.676,341.814,285.224z"/>
		<path d="M565.063,61.975c8.451,0,16.198,0.704,24.649,1.409V24.649C589.712,11.268,578.444,0,565.063,0
			s-24.649,11.268-24.649,24.649v38.03C548.865,61.975,556.612,61.975,565.063,61.975z"/>
		<path d="M739.719,145.781l27.466-27.466c9.86-9.86,9.86-25.353,0-34.509c-9.86-9.86-25.353-9.86-35.213,0l-27.466,27.466
			C717.183,121.132,729.155,133.105,739.719,145.781z"/>
		<path d="M390.407,424.667l-27.466,27.466c-9.86,9.86-9.86,25.353,0,34.509c4.93,4.93,11.268,7.043,17.606,7.043
			s12.677-2.113,17.606-7.043l27.466-27.466C412.944,449.316,400.971,437.344,390.407,424.667z"/>
	</g>
	<path fill="#FFFFFF" d="M1002.407,321.142L1002.407,321.142c-21.128-67.609-84.511-116.907-159.162-116.907
		c-76.06,0-140.147,51.411-159.867,121.837c-11.268-2.817-22.536-4.93-34.509-4.93c-73.243,0-133.105,59.862-133.105,133.105
		s59.862,133.105,133.105,133.105c0,0,0,0,0.704,0l0,0h352.129l0,0h0.704c73.243,0,133.105-59.862,133.105-133.105
		S1075.65,321.142,1002.407,321.142z"/>
	<path fill="#FFDD00" d="M637.602,247.194c11.972-20.423,27.466-39.438,45.073-54.932c-27.466-34.509-69.722-57.045-116.907-57.045
		c-82.398,0-149.303,66.904-149.303,149.303c0,38.03,14.789,73.243,38.03,100.005C481.257,308.465,552.387,252.124,637.602,247.194z
		"/>
	<path d="M446.044,412.695c3.521-19.015,9.86-36.621,19.015-52.819c-15.494-21.128-24.649-46.481-24.649-74.651
		c0-69.017,56.341-124.654,124.654-124.654c40.847,0,76.764,19.719,99.3,50.002c11.268-12.677,23.24-23.241,36.621-33.1
		c-31.692-40.143-80.99-65.496-136.626-65.496c-95.779,0-173.952,78.173-173.952,173.952
		C391.112,335.227,412.239,380.299,446.044,412.695z"/>
	<path d="M1002.407,612h-0.704H649.574c0,0,0,0-0.704,0c-86.624,0-157.754-70.426-157.754-157.754s71.13-157.754,157.754-157.754
		c6.338,0,11.972,0.704,18.311,1.409c28.875-70.426,98.596-117.611,176.064-117.611c78.173,0,147.19,46.481,176.064,117.611
		c78.877,8.451,140.852,75.356,140.852,157.049C1160.161,541.574,1089.735,612,1002.407,612z M650.983,562.702h350.016
		c0.704,0,1.409,0,2.817,0c59.862,0,107.751-48.594,107.751-108.456c0-59.862-48.594-108.456-107.751-108.456
		c-0.704,0-0.704,0-1.409,0c-10.564,0-20.423-7.043-23.241-17.606c-19.015-59.158-73.243-99.3-135.922-99.3
		c-63.383,0-119.02,42.255-135.922,103.526c-3.521,13.381-16.902,20.423-30.283,16.902c-9.86-2.817-19.015-3.521-28.17-3.521
		c-59.862,0-108.456,48.594-108.456,108.456c0,59.862,48.594,108.456,107.751,108.456l0,0
		C649.574,562.702,650.279,562.702,650.983,562.702z"/>
</g>
</svg>
