<?xml version="1.0" encoding="utf-8"?>
<!-- Generator: Adobe Illustrator 15.0.2, SVG Export Plug-In . SVG Version: 6.00 Build 0)  -->
<!DOCTYPE svg PUBLIC "-//W3C//DTD SVG 1.1//EN" "http://www.w3.org/Graphics/SVG/1.1/DTD/svg11.dtd">
<svg version="1.1" id="Layer_1" xmlns="http://www.w3.org/2000/svg" xmlns:xlink="http://www.w3.org/1999/xlink" x="0px" y="0px"
	 width="42px" height="40px" viewBox="0 0 42 40" enable-background="new 0 0 42 40" xml:space="preserve">
<g id="Layer_1_1_">
	<g>
		<g>
			<path fill="#CCCCCC" d="M27.176,14.239c-0.277-0.147-0.488-0.396-0.586-0.71c-0.857-2.792-3.4-4.668-6.324-4.668
				c-2.964,0-5.583,1.994-6.377,4.848c-0.174,0.635-0.834,1.015-1.475,0.841c-0.444-0.121-0.887-0.183-1.315-0.183
				c-2.8,0-5.074,2.281-5.074,5.08c0,2.789,2.261,5.06,5.047,5.074c0.039-0.002,0.072-0.002,0.104,0h10.723
				c0.055-0.443,0.185-0.879,0.402-1.28L27.176,14.239z"/>
			<path d="M21.958,25.729H11.121l0,0c-0.008,0-0.016,0-0.022,0c-3.472,0-6.283-2.812-6.283-6.28c0-3.471,2.812-6.282,6.283-6.282
				c0.564,0,1.11,0.082,1.631,0.219c0.916-3.304,3.938-5.729,7.536-5.729c3.52,0,6.496,2.324,7.479,5.521c0.002,0,0.005,0,0.008,0
				l0.021-0.046c0.236-0.433,0.55-0.802,0.924-1.102c-0.03-0.004-0.061-0.011-0.09-0.015c-1.387-3.361-4.642-5.563-8.34-5.563
				c-3.664,0-6.952,2.235-8.335,5.557c-0.277-0.033-0.56-0.05-0.832-0.05c-4.127,0-7.49,3.358-7.49,7.49
				c0,4.126,3.363,7.483,7.49,7.483c0.007,0,0.015,0,0.022,0h11.335c-0.031-0.043-0.064-0.091-0.096-0.141
				C22.165,26.455,22.033,26.098,21.958,25.729z"/>
			<path d="M21.896,24.521H11.176c-0.032-0.002-0.065-0.002-0.104,0c-2.786-0.016-5.047-2.285-5.047-5.074
				c0-2.799,2.274-5.08,5.074-5.08c0.429,0,0.871,0.062,1.315,0.183c0.641,0.174,1.301-0.206,1.475-0.841
				c0.794-2.854,3.413-4.848,6.377-4.848c2.923,0,5.466,1.876,6.324,4.668c0.098,0.315,0.309,0.562,0.586,0.71l0.576-1.063
				c-0.003,0-0.006,0-0.008,0c-0.982-3.198-3.959-5.522-7.479-5.522c-3.598,0-6.62,2.427-7.536,5.73
				c-0.521-0.137-1.066-0.219-1.631-0.219c-3.472,0-6.283,2.812-6.283,6.282c0,3.47,2.812,6.281,6.283,6.281
				c0.007,0,0.015-0.002,0.022-0.002v0.002h10.837C21.872,25.333,21.85,24.927,21.896,24.521z"/>
		</g>
		<g>
			<polygon fill="#FEDC00" points="25.741,36.348 29.557,25.023 25.479,24.961 30.955,14.849 37.188,14.849 33.501,21.466 
				36.55,21.466 			"/>
			<path d="M25.74,37.55c-0.188,0-0.381-0.039-0.553-0.132c-0.529-0.275-0.783-0.891-0.59-1.455l3.286-9.757l-2.424-0.038
				c-0.421-0.007-0.808-0.234-1.022-0.598c-0.209-0.362-0.217-0.812-0.02-1.18l5.475-10.112c0.213-0.394,0.619-0.634,1.062-0.634
				h6.232c0.426,0,0.82,0.224,1.039,0.597c0.215,0.367,0.221,0.822,0.015,1.194l-2.691,4.822h1c0.453,0,0.872,0.258,1.075,0.659
				c0.208,0.403,0.169,0.89-0.102,1.254l-10.808,14.88C26.48,37.377,26.115,37.55,25.74,37.55z M27.486,23.789l2.09,0.031
				c0.384,0.008,0.74,0.193,0.966,0.512c0.22,0.312,0.278,0.713,0.153,1.081l-1.293,3.842l4.781-6.586H33.5
				c-0.427,0-0.826-0.224-1.04-0.596c-0.219-0.368-0.224-0.823-0.015-1.195l2.688-4.821H31.67L27.486,23.789z"/>
		</g>
	</g>
</g>
<g id="Layer_2">
</g>
</svg>
