<?xml version="1.0" encoding="utf-8"?>
<!-- Generator: Adobe Illustrator 15.0.2, SVG Export Plug-In . SVG Version: 6.00 Build 0)  -->
<!DOCTYPE svg PUBLIC "-//W3C//DTD SVG 1.1//EN" "http://www.w3.org/Graphics/SVG/1.1/DTD/svg11.dtd">
<svg version="1.1" id="Layer_1" xmlns="http://www.w3.org/2000/svg" xmlns:xlink="http://www.w3.org/1999/xlink" x="0px" y="0px"
	 width="42px" height="40px" viewBox="0 0 42 40" enable-background="new 0 0 42 40" xml:space="preserve">
<g id="Layer_1_1_">
	<g>
		<path d="M35.07,14.897c-2.373,0-3.422,1.33-4.199,2.77c-0.32,0.586-0.1,1.315,0.486,1.636c0.582,0.314,1.314,0.1,1.631-0.486
			c0.642-1.186,1.089-1.508,2.082-1.508c1.068,0,1.935,0.867,1.935,1.936c0,1.067-0.866,1.935-1.935,1.935c-0.008,0-0.036,0-0.084,0
			c-0.047-0.005-0.094-0.008-0.141-0.008L9.675,21.173c-0.161,0-0.281,0.001-0.302,0v0.015c-1.051,0.107-1.215,0.775-1.215,1.188
			c0,0.847,0.474,1.099,1.215,1.175v0.032c0.031,0,0.263,0,0.687,0c0.129,0.001,0.265,0.001,0.405,0.002l17.344,0.004
			c0.049,0.006,0.092,0.028,0.144,0.028c1.067,0,1.935,0.867,1.935,1.936c0,1.067-0.867,1.937-1.935,1.937
			c-0.992,0-1.438-0.324-2.083-1.509c-0.314-0.586-1.049-0.801-1.637-0.485c-0.58,0.315-0.801,1.05-0.484,1.636
			c0.781,1.438,1.832,2.77,4.204,2.77c2.396,0,4.346-1.95,4.346-4.346c0-0.711-0.188-1.371-0.491-1.965l3.266,0.001
			c2.396,0,4.346-1.95,4.346-4.346C39.416,16.848,37.466,14.897,35.07,14.897z"/>
		<path d="M28.434,14.448c0-2.396-1.951-4.347-4.347-4.347c-2.374,0-3.423,1.33-4.204,2.77c-0.315,0.586-0.095,1.315,0.486,1.636
			c0.587,0.313,1.32,0.096,1.636-0.486c0.642-1.186,1.089-1.508,2.082-1.508c1.067,0,1.935,0.867,1.935,1.936
			c0,1.067-0.865,1.935-1.935,1.935c-0.007,0-0.035,0-0.084,0c-0.046-0.005-0.093-0.008-0.14-0.008H4.812
			c-0.134,0-0.265,0-0.392,0.002c-0.368,0-0.584-0.001-0.616-0.001v0.03c-0.729,0.074-1.221,0.321-1.221,1.173
			c0,0.864,0.539,1.108,1.22,1.18l0.001,0.027c0.028,0,0.205,0,0.538,0c0.103,0.001,0.21,0.001,0.317,0.002l19.427,0.004
			C26.482,18.793,28.434,16.844,28.434,14.448z"/>
	</g>
</g>
<g id="Layer_2">
</g>
</svg>
