<?xml version="1.0" encoding="utf-8"?>
<!-- Generator: Adobe Illustrator 15.0.2, SVG Export Plug-In . SVG Version: 6.00 Build 0)  -->
<!DOCTYPE svg PUBLIC "-//W3C//DTD SVG 1.1//EN" "http://www.w3.org/Graphics/SVG/1.1/DTD/svg11.dtd">
<svg version="1.1" id="Layer_1" xmlns="http://www.w3.org/2000/svg" xmlns:xlink="http://www.w3.org/1999/xlink" x="0px" y="0px"
	 width="42px" height="40px" viewBox="0 0 42 40" enable-background="new 0 0 42 40" xml:space="preserve">
<g id="Layer_1_1_">
	<g>
		<path d="M35.07,14.897c-2.373,0-3.422,1.331-4.199,2.771c-0.32,0.585-0.1,1.319,0.486,1.635c0.582,0.314,1.314,0.1,1.631-0.487
			c0.642-1.18,1.089-1.508,2.082-1.508c1.068,0,1.935,0.868,1.935,1.936c0,1.068-0.866,1.936-1.935,1.936c-0.008,0-0.036,0-0.084,0
			c-0.047-0.006-0.094-0.008-0.141-0.008H9.675c-0.161,0-0.281,0.001-0.302,0.001v0.015c-1.051,0.107-1.215,0.78-1.215,1.192
			c0,0.843,0.474,1.093,1.215,1.171v0.032c0.031,0,0.263,0,0.687,0c0.129,0.001,0.265,0.001,0.405,0.001l17.34,0.004
			c0.049,0.006,0.094,0.029,0.146,0.029c1.066,0,1.936,0.867,1.936,1.935c0,1.068-0.867,1.937-1.936,1.937
			c-0.992,0-1.439-0.322-2.083-1.508c-0.313-0.582-1.05-0.801-1.636-0.485c-0.582,0.319-0.801,1.049-0.485,1.636
			c0.782,1.438,1.832,2.77,4.204,2.77c2.396,0,4.346-1.95,4.346-4.348c0-0.71-0.188-1.371-0.49-1.964l3.264,0.001
			c2.396,0,4.347-1.949,4.347-4.346C39.416,16.848,37.466,14.897,35.07,14.897z"/>
		<path d="M24.087,18.793L4.66,18.788c-0.107,0-0.215,0-0.317-0.001c-0.333,0-0.51,0-0.538,0L3.804,18.76
			c-0.681-0.071-1.22-0.315-1.22-1.176c0-0.855,0.491-1.104,1.221-1.178v-0.029c0.032,0,0.248,0,0.616,0
			c0.127-0.001,0.258-0.001,0.392-0.001l19.05-0.001c0.048,0,0.095,0.002,0.141,0.008c0.049,0,0.077,0,0.084,0
			c1.068,0,1.936-0.867,1.936-1.936c0-1.067-0.866-1.937-1.936-1.937c-0.992,0-1.439,0.324-2.082,1.508
			c-0.314,0.587-1.049,0.801-1.636,0.486c-0.581-0.314-0.802-1.049-0.486-1.635c0.781-1.439,1.83-2.77,4.204-2.77
			c2.396,0,4.346,1.95,4.346,4.346C28.434,16.844,26.482,18.793,24.087,18.793z"/>
	</g>
</g>
<g id="Layer_2">
</g>
</svg>
