<?xml version="1.0" encoding="utf-8"?>
<!-- Generator: Adobe Illustrator 17.0.0, SVG Export Plug-In . SVG Version: 6.00 Build 0)  -->
<!DOCTYPE svg PUBLIC "-//W3C//DTD SVG 1.1//EN" "http://www.w3.org/Graphics/SVG/1.1/DTD/svg11.dtd">
<svg version="1.1" id="Layer_1" xmlns="http://www.w3.org/2000/svg" xmlns:xlink="http://www.w3.org/1999/xlink" x="0px" y="0px"
	 viewBox="0 0 186.7 26" enable-background="new 0 0 186.7 26" xml:space="preserve">
<g>
	<path fill="#FFFFFF" d="M9.9,21c2.7,0,4.6-1.9,4.9-4.7c0.4-2.8-1-4.7-3.7-4.7c-2.7,0-4.6,1.9-5,4.7C5.8,19.1,7.2,21,9.9,21 M3.4,0
		h5.4L7.6,9.1h0.1c1.5-1.8,3.6-2.4,5.9-2.4c5,0,7.4,4.7,6.7,9.8c-0.7,5.6-4.7,9.5-9.9,9.5c-2.5,0-4.3-1.6-5-2.9H5.3L5,25.6H0L3.4,0z
		"/>
	<path fill="#FFFFFF" d="M31,21c2.7,0,4.6-1.9,4.9-4.7c0.4-2.8-1-4.7-3.7-4.7c-2.7,0-4.6,1.9-5,4.7C26.9,19.1,28.3,21,31,21
		 M32.9,6.7c5.4,0,9.2,3.8,8.4,9.7c-0.8,5.9-5.6,9.7-11,9.7c-5.4,0-9.2-3.8-8.4-9.7C22.7,10.5,27.5,6.7,32.9,6.7"/>
	<path fill="#FFFFFF" d="M53.5,12.5c-0.7-1-1.6-1.6-2.9-1.6c-0.9,0-2,0.4-2.2,1.5c-0.4,2.7,9.1,0.4,8.1,7.4
		c-0.6,4.7-5.1,6.1-8.9,6.1c-2.5,0-5.1-0.6-6.6-2.5l3.8-3.8c0.8,1.3,1.9,2,3.6,2c1.2,0,2.5-0.3,2.6-1.3c0.4-3-9.1-0.5-8.1-7.5
		c0.6-4.3,4.5-6.2,8.2-6.2c2.3,0,4.8,0.6,6.2,2.4L53.5,12.5z"/>
	<path fill="#FFFFFF" d="M71.4,11.7h-4.8l-0.8,6.1c-0.3,2-0.2,3.4,2.1,3.4c0.6,0,1.7-0.1,2.3-0.5l-0.6,4.7C68.3,25.9,67,26,65.7,26
		c-3.6,0-6.2-1.6-5.6-5.6l1.2-8.8h-3.5l0.6-4.6h3.5L63.1,0h5.4l-1.2,7.1H72L71.4,11.7z"/>
	<path fill="#FFFFFF" d="M81.1,21c2.7,0,4.6-1.9,4.9-4.7c0.4-2.8-1-4.7-3.7-4.7c-2.7,0-4.6,1.9-5,4.7C77,19.1,78.4,21,81.1,21
		 M83,6.7c5.4,0,9.2,3.8,8.4,9.7c-0.8,5.9-5.6,9.7-11,9.7c-5.4,0-9.2-3.8-8.4-9.7C72.8,10.5,77.6,6.7,83,6.7"/>
	<path fill="#FFFFFF" d="M94.6,7.1h5.2l-0.3,2.5h0.1c0.9-1.4,2.9-3,5.5-3c5.5,0,6,3.8,5.3,8.7L109,25.6h-5.4l1.2-9
		c0.3-2.1,0.6-4.9-2.2-4.9c-2.8,0-3.6,2.3-3.9,4.7l-1.2,9.2h-5.4L94.6,7.1z"/>
	<path fill="#FFFFFF" d="M133.9,13.1c-0.4-0.8-1.4-1.4-2.5-1.4c-2.7,0-4.6,1.9-5,4.7c-0.4,2.8,1,4.7,3.7,4.7c1.2,0,2.1-0.6,2.9-1.4
		l3,3.9c-1.9,1.8-4.5,2.5-6.6,2.5c-5.4,0-9.2-3.8-8.4-9.7c0.8-5.9,5.6-9.7,11-9.7c2.1,0,4.5,0.6,5.9,2.5L133.9,13.1z"/>
	<path fill="#FFFFFF" d="M146.5,21c2.7,0,4.6-1.9,5-4.7c0.4-2.8-1-4.7-3.7-4.7c-2.7,0-4.6,1.9-4.9,4.7C142.5,19.1,143.8,21,146.5,21
		 M148.5,6.7c5.4,0,9.2,3.8,8.4,9.7c-0.8,5.9-5.6,9.7-11,9.7c-5.4,0-9.2-3.8-8.4-9.7C138.2,10.5,143,6.7,148.5,6.7"/>
	<path fill="#FFFFFF" d="M160,7.1h5.2l-0.3,2.5h0.1c0.9-1.4,2.9-3,5.5-3c2.5,0,4.3,1.1,5,3.3c1.6-2.4,3.4-3.3,6-3.3
		c4.8,0,5.7,3.5,5.1,8l-1.5,10.9h-5.4l1.4-10.7c0.2-1.7-0.2-3.1-2-3.1c-2.5,0-3.5,1.9-3.8,4.1l-1.3,9.8h-5.4l1.3-9.8
		c0.2-1.4,0.6-4.1-1.9-4.1c-2.8,0-3.6,2.3-3.9,4.7l-1.2,9.2h-5.4L160,7.1z"/>
	<path fill="#C3002F" d="M118.3,19.9c0.7,0.8,0.9,2.1,0.5,3.1c-0.4,1.1-1.4,2-2.5,2.4c-0.9,0.4-2.1,0.2-2.9-0.2
		c-0.9-0.6-1.3-1.6-1.2-2.8c0-1.4,1.1-2.6,2.3-3.2C115.7,18.7,117.4,18.9,118.3,19.9"/>
</g>
</svg>
