<?xml version="1.0" encoding="utf-8"?>
<!-- Generator: Adobe Illustrator 17.0.0, SVG Export Plug-In . SVG Version: 6.00 Build 0)  -->
<!DOCTYPE svg PUBLIC "-//W3C//DTD SVG 1.1//EN" "http://www.w3.org/Graphics/SVG/1.1/DTD/svg11.dtd">
<svg version="1.1" id="Layer_1" xmlns="http://www.w3.org/2000/svg" xmlns:xlink="http://www.w3.org/1999/xlink" x="0px" y="0px"
	 viewBox="0 0 792 127.923" enable-background="new 0 0 792 127.923" xml:space="preserve">
<g>
	<g>
		<path fill="#FFFFFF" d="M700.658,66.708c0,10.234-0.768,29.167-0.768,29.935l-0.768,0.768L680.189,85.77V39.843
			c2.942-4.349,7.292-6.524,10.874-6.524c4.349,0,7.292,2.942,8.699,7.292C700.658,41.89,700.658,54.299,700.658,66.708
			 M763.342,47.647l-17.526,14.584v-32.75L763.342,47.647z M716.648,88.455c-1.407-10.234-0.768-37.867-0.768-51.043
			c0-8.06-7.292-14.584-15.991-18.166l-18.166,15.351V1.849c0-5.885,3.582-11.641,7.292-11.641V-11.2
			c-8.699,0-18.166,7.292-20.469,11.641c-2.175-3.581-6.524-5.117-11.641-5.117v1.407c4.349,0,8.699,8.06,8.699,21.108
			c0,27.76,0,53.986,0,64.859c0,3.581-0.768,5.885-2.175,8.699l27.76,16.758C701.426,98.69,705.775,95.747,716.648,88.455
			 M777.926,84.874l-1.407-1.407c-7.292,7.292-10.874,10.234-15.351,10.234c-4.349,0-8.06-2.175-15.991-8.699V66.836l32.109-25.458
			c-7.292-6.524-22.643-21.875-22.643-21.875c-8.699,8.06-13.816,11.641-25.458,20.468c0.768,2.175,0.768,5.885,0.768,8.699v35.692
			c0,2.175,0,4.349-1.407,7.292l24.818,17.526L777.926,84.874z M480.495,70.29c0,5.885-1.407,10.234-5.885,13.177
			c-9.466-8.699-13.816-21.875-13.816-34.284c0-18.933,6.524-26.226,15.351-32.75c1.407-1.407,2.942-2.175,4.349-2.942
			C480.495,13.49,480.495,70.29,480.495,70.29z M504.545,96.515c-11.641-0.768-21.108-5.117-28.4-10.874
			c10.874-8.06,18.166-11.641,18.166-23.283V4.024c1.407-0.768,2.175-1.407,3.581-2.942c2.175,0.768,4.349,1.407,7.292,2.942
			L504.545,96.515L504.545,96.515z M540.365,69.523c0,6.524-0.768,10.874-2.175,16.758c-6.524,6.524-15.991,10.234-27.76,10.234
			h-2.942V38.18c2.175,0,3.581-0.768,5.885-0.768C529.363,38.18,540.365,52.764,540.365,69.523 M531.538,15.665l-24.05,21.875V4.024
			C515.547,7.606,523.478,11.955,531.538,15.665 M635.799,95.108l-1.407,0.768l-18.933-12.409V29.481l20.468,10.234v55.393
			C635.926,95.108,635.799,95.108,635.799,95.108z M555.589-3.268l-2.175-1.407l-7.292,8.06c0,0-18.933-6.524-34.924-15.351
			c-21.875,15.991-37.867,27.76-59.103,42.984c-5.117,7.292-8.06,17.526-8.06,27.76c0,29.167,26.992,51.81,60.51,51.81
			c21.875-9.466,37.867-21.875,48.869-37.867c0.768-2.942,0.768-8.06,0.768-10.234c0-21.108-14.584-32.75-29.167-36.459
			L555.589-3.268z M652.557,31.656L625.565,17.84c-8.06,8.06-16.758,13.177-27.76,18.933c0.768,2.175,1.407,10.234,1.407,15.351
			v37.227c-2.175,2.942-5.117,4.349-7.292,4.349c-2.175,0-5.117-1.407-8.7-3.581V-0.966c0-5.117,2.942-11.641,7.292-11.641l0,0
			c-8.06,0-15.99,3.581-18.166,10.234c-2.175-3.581-5.117-6.524-10.234-6.524v0.768c2.942,0,5.117,8.06,5.117,15.351V80.14
			c0,7.292-0.768,10.874-3.582,14.584l18.166,13.177l16.758-14.584l26.226,15.991c10.234-9.466,15.991-14.584,26.992-21.108
			c-0.768-3.581-0.768-10.234-0.768-12.409V42.274C651.789,36.773,651.789,33.831,652.557,31.656 M222.465,97.283
			c-6.524-5.885-15.351-10.874-29.935-10.874l21.875-23.283l8.06,6.524L222.465,97.283L222.465,97.283z M230.525,42.53
			l-18.933,20.468l-8.06-5.885v-27.76C211.592,35.238,216.709,38.18,230.525,42.53 M323.784,97.283l-0.768,0.768l-18.166-10.874
			v-56.8l18.933,11.641L323.784,97.283L323.784,97.283z M341.31,89.223c-0.768-2.942-0.768-5.885-0.768-8.699V33.192l-24.818-13.816
			c-8.06,8.06-16.758,13.816-28.4,19.701c0.768,2.175,1.407,5.885,1.407,8.06v40.041c-3.581,3.581-7.292,5.885-10.234,5.885
			c-2.942,0-6.524-1.407-9.466-5.117c0-2.942,0-37.867,0-58.335h17.654v-3.581l-17.526-0.768c0,0,0-16.758,0.768-19.701h-2.175
			l-24.819,26.225c-10.874-1.407-18.166-5.117-29.935-13.177c-8.699,9.466-15.351,13.816-26.226,18.933
			c0.768,5.117,0.768,8.06,0.768,13.816c0,6.524,0,8.06-0.768,13.816l14.584,10.234l-13.815,14.583
			c-5.885,5.885-8.06,10.874-8.06,15.991c0,4.349,1.407,8.06,4.349,11.641l1.407-0.768c-1.407-2.942-2.942-5.885-2.942-8.699
			c0-5.117,2.175-8.699,9.466-8.699c7.292,0,14.584,4.349,22.643,10.874c8.699-8.06,15.351-13.177,24.818-18.166V68.883
			c0-2.942,0-3.581,0.768-5.885l-14.584-9.466l18.166-20.468h8.699c0,20.468,0,47.333,0,50.275c0,3.581-0.768,8.06-2.942,11.641
			l20.468,15.351l17.526-15.991l25.458,16.758C322.377,100.225,330.437,94.34,341.31,89.223 M423.695,92.166l-1.407-1.407
			l-8.06,6.524c-3.581,0-6.524-2.942-6.524-7.292c0-3.581,0-48.869,0.768-56.16c-2.942-5.885-6.524-10.234-15.351-13.177
			l-20.468,15.351c0-6.524-3.581-11.641-10.874-15.351l-11.641,10.234l6.524,6.524c0,0,0,40.041,0,46.693
			c0,6.652-5.117,11.641-5.117,11.641l18.933,13.816l10.234-12.409l-7.292-6.524V39.588c3.581-5.117,7.292-6.524,10.874-6.524
			c3.581,0,7.292,2.942,8.06,6.524c0,2.942,0,8.06,0,12.409c0,8.06,0,34.924,0,45.158c1.407,5.117,8.699,11.641,13.177,11.641
			L423.695,92.166z M91.979,58.648l-0.768,32.75c-3.581,1.407-5.885,2.942-8.699,5.117c-2.175-1.407-5.117-2.942-8.06-5.117V49.182
			L91.979,58.648z M94.922,30.249c0,5.117-4.349,7.292-19.701,16.758V32.424c0-7.292,0.768-11.641,0.768-14.584h-2.942
			c0.768,2.942,0.768,7.292,0.768,14.584v57.567c-9.466-5.885-21.108-11.641-33.517-12.409c11.641-6.524,23.283-15.351,23.283-28.4
			v-27.76c0-8.699,3.581-14.584,13.177-22.643C84.05,9.653,86.992,14.77,92.748,24.237C93.515,26.539,94.922,28.713,94.922,30.249
			 M158.374,97.283l-0.768,0.768l-18.166-10.874V29.609l18.933,10.874L158.374,97.283L158.374,97.283z M65.115-4.803l-0.768-1.407
			c-9.466,0-14.584-1.407-19.701-2.175c-5.117-0.768-8.698-1.406-14.583-1.406c-14.584,0-24.818,8.06-24.818,20.468
			c0,5.117,1.407,8.06,4.349,11.641l1.407-1.407C9.594,18.734,8.06,16.56,8.06,13.617c0-5.117,4.349-10.234,14.584-10.234
			c7.292,0,14.584,1.407,20.468,2.942c-12.409,9.466-20.468,15.991-20.468,35.692c-1.407-0.768-4.349-1.407-8.06-1.407
			C5.117,40.611,0,47.135,0,53.02c0,2.942,0.768,5.885,2.175,8.06l1.407-0.768c-0.768-1.407-1.407-2.942-1.407-4.349
			c0-4.349,2.942-7.292,8.699-7.292c5.117,0,8.699,2.175,10.874,5.117c0,13.816-2.942,21.108-10.234,21.108v1.407
			c10.874,0,24.05-8.06,24.05-20.468V31.016C38.122,9.781,49.763,0.314,65.115-4.803 M112.448,52.124L91.979,38.948
			c8.06-5.117,10.234-5.885,13.177-8.06c5.117-3.581,5.885-5.117,5.885-7.292c0-1.407-0.768-4.349-4.349-10.234
			c-4.349-6.524-8.699-13.177-18.166-26.226c-12.409,8.699-19.701,13.816-32.75,24.05c-5.117,4.349-9.466,10.874-9.466,19.701
			c0,2.942,0,18.166,0,28.4c0,8.06-1.407,11.641-9.466,18.166c-19.701,0-31.343,12.409-31.343,25.458
			c0,5.117,1.407,10.874,5.885,15.351l1.407-1.407c-2.175-2.942-4.349-7.292-4.349-11.641c0-6.524,5.117-14.584,20.468-14.584
			c17.526,0,33.517,11.641,42.216,17.526c13.177-11.641,21.875-15.991,38.634-21.875V57.882
			C110.273,55.706,110.913,54.299,112.448,52.124 M177.308,32.424L151.082,17.84c-8.06,8.06-18.166,14.584-29.935,20.468
			c1.407,5.117,1.407,10.874,1.407,18.166c0,18.933,0,29.167-2.942,34.284l28.4,17.526c8.06-8.06,16.758-14.584,28.4-21.108
			c-0.768-2.942-1.407-5.885-1.407-8.699V47.903C175.132,38.18,175.9,34.598,177.308,32.424"/>
	</g>
</g>
</svg>
