<?xml version="1.0" encoding="utf-8"?>
<!-- Generator: Adobe Illustrator 17.0.0, SVG Export Plug-In . SVG Version: 6.00 Build 0)  -->
<!DOCTYPE svg PUBLIC "-//W3C//DTD SVG 1.1//EN" "http://www.w3.org/Graphics/SVG/1.1/DTD/svg11.dtd">
<svg version="1.1" id="Layer_1" xmlns="http://www.w3.org/2000/svg" xmlns:xlink="http://www.w3.org/1999/xlink" x="0px" y="0px"
	 viewBox="0 0 303.945 358.78" enable-background="new 0 0 303.945 358.78"
	 xml:space="preserve">
<g>
	<path fill="#231F20" d="M303.945,177.219l-55.167-36.452c21.065-13.038,27.755-16.713,35.444-22.401
		c12.705-9.03,16.386-14.712,16.386-20.394c0-4.013-1.674-12.035-11.702-27.085C276.528,52.49,264.831,34.441,240.081,0
		c-34.441,23.399-53.504,37.451-89.951,65.871c-15.05,12.029-26.081,30.427-26.081,53.831c0,8.021,0.665,49.485,0.665,76.57
		c0,21.07-3.681,32.101-26.081,50.826c-53.504,0-85.605,34.441-85.605,69.219c0,14.707,4.684,30.095,16.053,42.462l3.681-3.681
		c-7.023-7.356-12.378-19.063-12.378-32.767c0-18.393,13.381-38.787,56.176-38.787c46.818,0,90.622,32.101,116.032,47.479
		c36.447-30.76,59.524-43.798,106.332-59.181v-78.582C298.928,187.585,300.608,182.236,303.945,177.219L303.945,177.219
		L303.945,177.219z M174.88,21.059l-1.336-4.008c-26.081,0-40.128-3.01-53.836-5.349C106.664,9.701,95.633,7.356,80.25,7.356
		c-40.793,0-67.212,21.065-67.212,54.835c0,14.379,3.01,22.406,12.378,32.772l3.681-3.681c-5.017-6.02-7.694-12.378-7.694-19.063
		c0-14.712,12.378-27.755,39.79-27.755c20.399,0,38.792,3.681,54.84,7.356C81.592,77.23,60.527,95.622,60.527,149.454
		c-5.017-2.007-11.707-3.01-21.07-3.01C13.376,146.46,0,163.506,0,180.229c0,7.351,1.669,15.377,6.685,21.065l4.346-2.345
		c-2.007-3.675-3.01-7.689-3.01-11.369c0-11.031,8.692-19.729,24.745-19.729c14.041,0,24.74,6.358,29.424,15.05
		c0,37.451-7.361,56.841-27.085,56.841v4.019c29.757,0,65.533-21.403,65.533-56.181v-69.214
		C100.644,61.52,134.082,35.111,174.88,21.059L174.88,21.059L174.88,21.059z M255.796,117.368c0,13.376-12.373,20.394-53.831,46.143
		v-39.457c0-19.729,1.336-30.76,1.674-38.787h-8.359c0.998,8.692,1.669,19.058,1.669,38.787v157.491
		c-25.743-15.377-57.512-31.431-90.611-33.77c31.431-18.049,62.861-42.129,62.861-77.24V93.288c0-24.74,10.028-39.79,35.777-61.858
		c20.394,30.089,28.426,43.133,44.469,70.55C253.119,108,255.796,114.358,255.796,117.368L255.796,117.368L255.796,117.368z
		 M248.778,194.603l-1.003,88.948c-9.363,5.017-15.715,8.021-24.075,14.041c-7.023-4.346-13.714-8.697-21.735-13.376V169.193
		L248.778,194.603L248.778,194.603z"/>
</g>
</svg>
