<?xml version="1.0" encoding="utf-8"?>
<!-- Generator: Adobe Illustrator 17.0.0, SVG Export Plug-In . SVG Version: 6.00 Build 0)  -->
<!DOCTYPE svg PUBLIC "-//W3C//DTD SVG 1.1//EN" "http://www.w3.org/Graphics/SVG/1.1/DTD/svg11.dtd">
<svg version="1.1" id="Layer_1" xmlns="http://www.w3.org/2000/svg" xmlns:xlink="http://www.w3.org/1999/xlink" x="0px" y="0px"
	 viewBox="0 0 89.3 89.3" enable-background="new 0 0 89.3 89.3" xml:space="preserve">
<g>
	<path fill="#FFFFFF" d="M67.7,31.8V18.4h-4.6v13.4H49.3v4.5h13.8v13.4h4.6V36.3h13.8v-4.5H67.7z M29.4,43.8
		c-5-0.1-9.7-5.4-10.6-11.7c-0.9-6.3,2.5-11.2,7.5-11c5,0.1,9.7,5.2,10.6,11.5C37.7,38.9,34.4,43.9,29.4,43.8 M41.3,64.1
		c0.2,0.6,0.2,1.3,0.2,1.9c0,5.4-3.6,9.7-14.1,9.7c-7.4,0-12.8-4.5-12.8-10c0-5.3,6.6-9.8,14.1-9.7c1.7,0,3.3,0.3,4.8,0.7
		C37.6,59.5,40.5,61,41.3,64.1 M48.1,18.4H28.7c-8.7,0-16.8,6.3-16.8,13.7c0,7.5,5.9,13.6,14.7,13.6c0.6,0,1.2,0,1.8-0.1
		c-0.6,1.1-1,2.2-1,3.5c0,2.1,1.2,3.8,2.6,5.2c-1.1,0-2.2,0-3.3,0c-10.7,0-19,6.6-19,13.5c0,6.7,9.1,11,19.8,11
		c12.2,0,19-6.7,19-13.5c0-5.4-1.7-8.6-6.8-12.1c-1.7-1.2-5.1-4.1-5.1-5.8c0-2,0.6-3,3.7-5.3c3.2-2.4,5.5-5.8,5.5-9.8
		c0-4.7-2.2-9.3-6.2-10.8h6.1L48.1,18.4z"/>
</g>
</svg>
