<?xml version="1.0" encoding="utf-8"?>
<!-- Generator: Adobe Illustrator 17.0.0, SVG Export Plug-In . SVG Version: 6.00 Build 0)  -->
<!DOCTYPE svg PUBLIC "-//W3C//DTD SVG 1.1//EN" "http://www.w3.org/Graphics/SVG/1.1/DTD/svg11.dtd">
<svg version="1.1" id="Layer_1" xmlns="http://www.w3.org/2000/svg" xmlns:xlink="http://www.w3.org/1999/xlink" x="0px" y="0px"
	 viewBox="0 0 792 165.2" enable-background="new 0 0 792 165.2" xml:space="preserve">
<g>
	<path fill="#FFFFFF" d="M456.165,88.194c1.98-8.416,5.842-11.585,11.585-11.585c6.436,0,10.397,2.574,11.585,11.585H456.165z
		 M468.443,134.831c12.377,0,23.962-2.574,33.071-9.109l-9.704-16.833c-4.555,2.574-13.565,6.436-21.387,6.436
		c-7.723,0-13.565-2.574-14.852-12.377h47.23v-3.862c0-36.933-20.694-42.181-35.646-42.181c-14.852,0-38.913,9.109-38.913,38.913
		C428.243,125.721,447.65,134.831,468.443,134.831 M405.568,132.85l25.942-74.46h-25.348l-12.872,44.062l0,0l-12.971-44.062h-27.823
		l25.942,74.46H405.568z M348.634,30.468h-27.229v20.694h27.229V30.468z M348.634,58.985h-27.229v74.46h27.229V58.985z
		 M217.736,132.85h27.823V91.363h34.358v41.488h27.823V30.468h-27.823v38.22h-34.358v-38.22h-27.823L217.736,132.85L217.736,132.85z
		 M154.861,91.462c1.98-18.12,12.377-26.536,23.962-26.536c14.258,0,20.694,11.585,22.081,26.536H154.861z M178.129,134.831
		c14.258,0,22.675-7.129,28.517-18.12l-4.555-3.268c-5.842,9.704-12.377,14.852-23.368,14.852
		c-13.565,0-24.556-11.585-24.556-31.685h53.171v-0.594c0-22.675-11.585-37.527-28.517-37.527
		c-15.545,0-31.091,12.377-31.091,37.527C147.731,120.573,161.99,134.831,178.129,134.831 M81.589,132.85h6.436V78.392
		c9.109-8.416,17.526-13.565,27.823-13.565c10.991,0,16.239,5.248,16.239,16.239v51.785h6.436V80.372
		c0-12.971-7.129-21.387-22.081-21.387c-10.397,0-20.1,5.842-27.823,13.565V30.369h-6.436v102.382h-0.594V132.85z M33.665,132.85
		h7.129V36.904H74.46v-6.436H0v6.436h33.665V132.85z"/>
</g>
</svg>
