<?xml version="1.0" encoding="utf-8"?>
<!-- Generator: Adobe Illustrator 17.0.0, SVG Export Plug-In . SVG Version: 6.00 Build 0)  -->
<!DOCTYPE svg PUBLIC "-//W3C//DTD SVG 1.1//EN" "http://www.w3.org/Graphics/SVG/1.1/DTD/svg11.dtd">
<svg version="1.1" id="Layer_1" xmlns="http://www.w3.org/2000/svg" xmlns:xlink="http://www.w3.org/1999/xlink" x="0px" y="0px"
	 viewBox="0 0 89.3 89.3" enable-background="new 0 0 89.3 89.3" xml:space="preserve">
<g>
	<path fill="#FFFFFF" d="M68.4,71.8H58.3V51.6c0-2.8-2.3-5-5.1-5c-2.8,0-5.1,2.3-5.1,5v20.2H38.1V36.4h10.1v6.3
		c2.1-2.9,5.3-6.3,8.8-6.3c6.3,0,11.4,5.7,11.4,12.6V71.8z M28,31.4c-2.8,0-5.1-2.3-5.1-5.1c0-2.8,2.3-5.1,5.1-5.1s5.1,2.3,5.1,5.1
		C33.1,29.1,30.8,31.4,28,31.4 M33.1,71.8H23V36.4h10.1V71.8z"/>
</g>
</svg>
