<?xml version="1.0" encoding="utf-8"?>
<!-- Generator: Adobe Illustrator 17.0.0, SVG Export Plug-In . SVG Version: 6.00 Build 0)  -->
<!DOCTYPE svg PUBLIC "-//W3C//DTD SVG 1.1//EN" "http://www.w3.org/Graphics/SVG/1.1/DTD/svg11.dtd">
<svg version="1.1" id="Layer_1" xmlns="http://www.w3.org/2000/svg" xmlns:xlink="http://www.w3.org/1999/xlink" x="0px" y="0px"
	 viewBox="415.7 0 608.625 612" enable-background="new 415.7 0 608.625 612"
	 xml:space="preserve">
<path fill="#FFFFFF" d="M887.064,414.412l-77.529-75.588c11.941-19.882,17.882-43.765,17.882-69.588
	C827.417,189.647,763.77,126,684.182,126s-143.176,63.647-143.176,143.176s63.647,143.176,143.176,143.176
	c23.882,0,45.765-5.941,65.647-15.882l77.588,77.588C835.358,482,845.299,486,857.24,486c9.941,0,21.882-4,29.824-11.941
	C903.005,456.176,903.005,430.294,887.064,414.412z M600.652,269.176c0-45.765,37.765-83.529,83.529-83.529
	s83.529,37.765,83.529,83.529s-37.765,83.529-83.529,83.529C638.476,354.706,600.652,316.941,600.652,269.176z"/>
</svg>
