<?xml version="1.0" encoding="utf-8"?>
<!-- Generator: Adobe Illustrator 17.0.0, SVG Export Plug-In . SVG Version: 6.00 Build 0)  -->
<!DOCTYPE svg PUBLIC "-//W3C//DTD SVG 1.1//EN" "http://www.w3.org/Graphics/SVG/1.1/DTD/svg11.dtd">
<svg version="1.1" id="Layer_1" xmlns="http://www.w3.org/2000/svg" xmlns:xlink="http://www.w3.org/1999/xlink" x="0px" y="0px"
	 viewBox="1.25 393.65 792 143" enable-background="new 1.25 393.65 792 143" xml:space="preserve">
<g>
	<path fill="#FFFFFF" d="M1.25,413.517h35.044c20.793,0,39.249,5.373,39.249,30.955c0,26.166-20.208,31.539-39.833,31.539H22.627
		v34.576H1.25V413.517z M36.878,459.424c13.083,0,18.456-5.373,18.456-14.251s-4.789-14.251-18.456-14.251H22.627v28.619h14.251
		V459.424z"/>
	<path fill="#FFFFFF" d="M84.537,440.968h20.793v11.915l0,0c3.504-5.957,10.747-13.083,23.83-13.083h0.584v18.456
		c-0.584,0-4.205-0.584-5.373-0.584c-8.294,0-14.835,4.205-18.456,9.579v43.454H84.537
		C84.537,510.588,84.537,440.968,84.537,440.968z"/>
	<path fill="#FFFFFF" d="M133.364,475.427c0-27.334,18.456-36.329,35.628-36.329c16.587,0,35.628,8.995,35.628,36.329
		s-18.456,36.329-35.628,36.329S133.364,502.761,133.364,475.427z M183.243,476.011c0-11.915-4.205-20.793-14.251-20.793
		c-10.046,0-14.835,8.294-14.835,20.793c0,11.915,4.205,21.377,14.835,21.377C179.038,496.921,183.243,488.51,183.243,476.011z"/>
	<path fill="#FFFFFF" d="M199.947,536.053v-14.251c1.168,0.584,4.205,0.584,5.957,0.584c5.957,0,8.294-3.037,8.294-9.579v-71.839
		h20.793v76.045c0,9.579-2.336,19.624-22.545,19.624C208.241,536.754,200.531,536.053,199.947,536.053z M214.198,414.218h21.377
		v16.587h-21.377V414.218z"/>
	<path fill="#FFFFFF" d="M245.153,475.427c0-27.334,20.793-36.329,35.044-36.329c14.251,0,32.123,7.126,32.123,38.665v3.037h-46.374
		c1.168,11.331,7.71,16.003,16.003,16.003s16.003-4.205,20.793-8.294l8.294,12.499c-8.294,7.126-18.456,10.747-30.371,10.747
		C262.325,511.756,245.153,502.761,245.153,475.427z M293.28,468.886c-1.168-10.046-5.373-14.251-13.083-14.251
		c-6.541,0-11.915,4.205-13.667,14.251H293.28z"/>
	<path fill="#FFFFFF" d="M318.278,475.427c0-27.918,19.624-36.329,35.044-36.329c19.04,0,26.166,10.046,30.371,21.377l-17.872,5.957
		c-3.037-8.995-6.541-11.915-13.083-11.915c-8.294,0-13.667,7.126-13.667,20.793c0,12.499,4.205,21.377,13.667,21.377
		c5.373,0,10.747-3.037,13.667-12.499l17.288,5.957c-4.205,10.747-13.083,21.377-31.539,21.377
		C336.15,511.756,318.278,502.761,318.278,475.427z"/>
	<path fill="#FFFFFF" d="M399.228,490.963V455.92h-11.915v-14.952h11.915v-23.83h20.793v23.83h17.872v15.536h-17.872v30.371
		c0,7.71,2.336,10.046,9.579,10.046c2.336,0,5.373,0,7.126-0.584v14.835c-1.752,0.584-9.579,1.168-13.667,1.168
		C402.733,511.172,399.228,504.046,399.228,490.963z"/>
	<path fill="#FFFFFF" d="M507.98,459.424l-27.918-45.79h24.414l17.288,29.086l16.003-29.086h22.077l-27.334,45.79l31.539,51.164
		h-23.83l-20.792-33.875l-19.624,33.875h-22.545L507.98,459.424z"/>
</g>
</svg>
