<?xml version="1.0" encoding="utf-8"?>
<!-- Generator: Adobe Illustrator 17.0.0, SVG Export Plug-In . SVG Version: 6.00 Build 0)  -->
<!DOCTYPE svg PUBLIC "-//W3C//DTD SVG 1.1//EN" "http://www.w3.org/Graphics/SVG/1.1/DTD/svg11.dtd">
<svg version="1.1" id="Layer_1" xmlns="http://www.w3.org/2000/svg" xmlns:xlink="http://www.w3.org/1999/xlink" x="0px" y="0px"
	 viewBox="0 0 793.1 127.4" enable-background="new 0 0 793.1 127.4" xml:space="preserve">
<g>
	<path fill="#FFFFFF" d="M602.747,115.332c27.309,0,38.271-14.388,43.753-34.845l-25.351-5.481
		c-3.426,12.333-7.537,19.185-18.401,19.185c-13.018,0-19.87-11.55-19.87-30.147c0-18.499,6.166-29.364,19.87-29.364
		c10.277,0,14.388,7.537,17.129,17.129l25.351-7.537c-4.111-18.402-14.976-32.203-42.48-32.203
		c-25.351,0-46.493,14.976-46.493,51.974C556.156,100.258,576.711,115.332,602.747,115.332 M489.108,35.951h6.852
		c20.457,0,26.721,8.907,26.721,27.309c0,19.87-6.166,28.777-26.721,28.777h-7.537V35.951H489.108L489.108,35.951z M495.275,113.276
		c29.364,0,54.715-11.55,54.715-50.604c0-37.586-25.351-49.234-54.715-49.234h-32.79v99.936
		C462.485,113.276,495.275,113.276,495.275,113.276z M396.122,34.581h13.018c9.592,0,13.018,3.426,13.018,9.592
		c0,5.481-3.426,9.592-13.018,9.592h-13.018V34.581z M396.122,72.265h13.018c10.277,0,14.388,3.426,14.388,10.277
		c0,6.852-4.111,10.963-14.388,10.963h-13.703v-21.24H396.122z M413.153,113.276c17.129,0,36.999-6.166,36.999-27.309
		c0-16.444-8.907-22.61-21.24-24.666l0,0c10.277-2.055,19.185-8.222,19.185-22.61c0-21.827-19.87-24.666-36.216-24.666h-42.48
		v99.936h43.753V113.276z"/>
	<path fill="#FFFFFF" d="M321.537,96.147c-9.592,0-11.55-8.222-11.55-19.185c0-11.55,3.426-18.402,11.55-18.402
		c8.907,0,11.55,8.222,11.55,18.402C333.185,89.296,330.444,96.147,321.537,96.147 M321.537,114.647
		c17.129,0,38.271-7.537,38.271-37.586s-21.24-37.586-38.271-37.586c-17.814,0-38.271,7.537-38.271,37.586
		S303.723,114.647,321.537,114.647 M275.044,14.026h-26.721v20.457h26.721V14.026z M275.044,41.432h-26.721v71.844h26.721V41.432z
		 M199.089,94.777c-8.907,0-10.963-7.537-10.963-16.444c0-10.277,2.741-16.444,10.963-16.444c4.796,0,7.537,1.37,10.963,4.796
		v23.393C207.996,92.036,203.2,94.777,199.089,94.777 M188.811,114.647c10.963,0,17.129-5.481,21.24-11.55
		c0,3.426,0.685,9.592,1.37,10.963h27.309c-1.37-3.426-2.055-8.907-2.055-17.814V14.124h-26.721v36.216
		c-4.796-6.852-11.55-10.277-21.24-10.277c-16.444,0-27.309,13.703-27.309,38.271C162.09,102.999,172.367,114.647,188.811,114.647
		 M116.282,94.777c-3.426,0-6.166-1.37-6.166-4.796c0-5.481,5.481-8.907,18.402-9.592v10.277
		C126.559,92.722,123.134,94.777,116.282,94.777 M105.417,114.647c10.963,0,17.814-4.111,23.883-11.55
		c0,4.111,0.685,7.537,1.37,10.277h26.721c-1.37-3.426-2.055-8.907-2.055-17.814V70.209c0-20.457-8.222-30.147-29.364-30.147
		c-19.185,0-30.734,6.852-36.999,12.333l10.963,14.976c6.166-4.111,13.703-7.537,21.827-7.537c6.166,0,8.222,2.741,8.222,6.166
		v0.685c-29.364,1.37-44.438,10.963-44.438,27.309C84.177,108.48,94.455,114.647,105.417,114.647 M26.721,35.951h11.55
		c10.963,0,15.759,2.741,15.759,11.55c0,8.222-4.796,11.55-15.759,11.55h-11.55V35.951z M26.721,113.276v-34.16h7.537l19.087,34.845
		h28.777L60.196,75.69c13.018-4.111,19.87-13.703,19.87-28.777c0-23.883-15.759-32.203-41.012-32.203H0v99.936h26.721V113.276z"/>
</g>
</svg>
