<?xml version="1.0" encoding="utf-8"?>
<!-- Generator: Adobe Illustrator 17.0.0, SVG Export Plug-In . SVG Version: 6.00 Build 0)  -->
<!DOCTYPE svg PUBLIC "-//W3C//DTD SVG 1.1//EN" "http://www.w3.org/Graphics/SVG/1.1/DTD/svg11.dtd">
<svg version="1.1" id="Layer_1" xmlns="http://www.w3.org/2000/svg" xmlns:xlink="http://www.w3.org/1999/xlink" x="0px" y="0px"
	 viewBox="472.149 0.088 680.739 612.231"
	 enable-background="new 472.149 0.088 680.739 612.231" xml:space="preserve">
<g>
	<g>
		<g>
			<path fill="#FFFFFF" d="M992.377,144.236c-0.172,0-0.338,0.025-0.51,0.026C970.666,75.3,906.472,25.166,830.558,25.166
				c-77.568,0-142.867,52.356-162.601,123.643c-11.241-3.02-22.999-4.779-35.193-4.779c-74.853,0-135.534,60.681-135.534,135.534
				s60.681,135.535,135.534,135.535c0.174,0,0.342-0.025,0.515-0.026v0.026h358.344v-0.038c0.255,0.001,0.5,0.038,0.755,0.038
				c74.797,0,135.431-60.635,135.431-135.431S1067.174,144.236,992.377,144.236z"/>
			<path fill="#231F20" d="M992.381,440.179c-0.217,0-0.483,0-0.756,0H633.278c-0.175,0-0.343,0-0.518,0
				c-88.563,0-160.612-72.052-160.612-160.615s72.049-160.612,160.612-160.612c6.151,0,12.358,0.381,18.586,1.134
				C680.905,48.411,751.589,0.088,830.558,0.088c79.662,0,149.639,47.543,179.282,120.011
				c80.32,8.726,143.048,76.961,143.048,159.569C1152.887,368.176,1080.881,440.179,992.381,440.179z M634.398,390.019h355.827
				c0.826-0.042,1.672-0.056,2.75,0c60.579-0.322,109.752-49.701,109.752-110.351s-49.18-110.029-109.752-110.354
				c-0.392,0.017-0.777,0.028-1.106,0.028c-11.014,0-20.734-7.183-23.974-17.708C949.254,90.992,894.063,50.248,830.558,50.248
				c-64.351,0-121.271,43.281-138.429,105.253c-3.674,13.282-17.41,21.109-30.678,17.529c-9.678-2.6-19.328-3.919-28.691-3.919
				c-60.901,0-110.452,49.547-110.452,110.452c0,60.73,49.257,110.172,109.927,110.456
				C633.075,389.988,633.733,389.991,634.398,390.019z"/>
		</g>
	</g>
	<path fill="#231F20" d="M746.316,612.319c-4.724,0-9.496-1.33-13.737-4.115c-11.581-7.596-14.807-23.145-7.215-34.726
		l57.105-90.382c7.6-11.588,23.155-14.811,34.73-7.211c11.581,7.596,14.807,23.145,7.215,34.726l-57.105,90.382
		C762.495,608.334,754.482,612.319,746.316,612.319z"/>
	<path fill="#231F20" d="M593.94,612.319c-4.724,0-9.496-1.33-13.737-4.115c-11.581-7.596-14.807-23.145-7.215-34.726l57.105-90.382
		c7.6-11.588,23.148-14.811,34.73-7.211c11.581,7.596,14.807,23.145,7.215,34.726l-57.105,90.382
		C610.119,608.334,602.107,612.319,593.94,612.319z"/>
	<path fill="#231F20" d="M898.684,612.319c-4.723,0-9.496-1.33-13.737-4.115c-11.581-7.596-14.807-23.145-7.215-34.726
		l57.105-90.382c7.599-11.588,23.148-14.811,34.73-7.211c11.581,7.596,14.807,23.145,7.215,34.726l-57.105,90.382
		C914.863,608.334,906.851,612.319,898.684,612.319z"/>
</g>
</svg>
