<?xml version="1.0" encoding="utf-8"?>
<!-- Generator: Adobe Illustrator 16.0.4, SVG Export Plug-In . SVG Version: 6.00 Build 0)  -->
<!DOCTYPE svg PUBLIC "-//W3C//DTD SVG 1.1//EN" "http://www.w3.org/Graphics/SVG/1.1/DTD/svg11.dtd">
<svg version="1.1" id="Layer_1" xmlns="http://www.w3.org/2000/svg" xmlns:xlink="http://www.w3.org/1999/xlink" x="0px" y="0px"
	 width="612px" height="792px" viewBox="0 0 612 792" enable-background="new 0 0 612 792" xml:space="preserve">
<g>
	<g>
		<path fill="#FFFFFF" d="M246.251,490.278c0,19.465-15.802,35.251-35.235,35.251c-19.466,0-35.236-15.786-35.236-35.251
			c0-19.484,15.77-35.237,35.236-35.237C230.449,455.041,246.251,470.794,246.251,490.278"/>
	</g>
	<g>
		<path fill="#FFFFFF" d="M175.813,401.425c33.032,0,64.063,12.919,87.396,36.336c23.365,23.503,36.236,54.754,36.236,88.007h50.871
			c0-96.618-78.272-175.248-174.502-175.248V401.425z"/>
	</g>
	<g>
		<path fill="#FFFFFF" d="M175.882,311.231c117.713,0,213.451,96.279,213.451,214.587h50.87
			c0-146.405-118.562-265.491-264.321-265.491V311.231L175.882,311.231z"/>
	</g>
</g>
</svg>
