<?xml version="1.0" encoding="utf-8"?>
<!-- Generator: Adobe Illustrator 17.0.0, SVG Export Plug-In . SVG Version: 6.00 Build 0)  -->
<!DOCTYPE svg PUBLIC "-//W3C//DTD SVG 1.1//EN" "http://www.w3.org/Graphics/SVG/1.1/DTD/svg11.dtd">
<svg version="1.1" id="Layer_1" xmlns="http://www.w3.org/2000/svg" xmlns:xlink="http://www.w3.org/1999/xlink" x="0px" y="0px"
	 viewBox="506.468 -1.383 613.273 613.277"
	 enable-background="new 506.468 -1.383 613.273 613.277" xml:space="preserve">
<g>
	<g>
		<path fill="#231F20" d="M578.377,305.258c0-8.283,0.445-16.464,1.286-24.529h-48.671c-13.545,0-24.524,10.979-24.524,24.524
			s10.979,24.524,24.524,24.524h48.67C578.821,321.716,578.377,313.539,578.377,305.258z"/>
		<path fill="#231F20" d="M630.792,157.626c10.328-12.73,21.955-24.357,34.685-34.685l-34.515-34.515
			c-9.58-9.573-25.105-9.573-34.685,0c-9.576,9.58-9.576,25.105,0,34.685L630.792,157.626z"/>
		<path fill="#231F20" d="M813.108,70.526c8.28,0,16.458,0.444,24.52,1.285v-48.67c0-13.545-10.979-24.524-24.524-24.524
			c-13.545,0-24.524,10.979-24.524,24.524v48.671C796.645,70.971,804.825,70.526,813.108,70.526z"/>
		<path fill="#231F20" d="M995.417,157.626l34.515-34.515c9.576-9.58,9.576-25.105,0-34.685c-9.58-9.573-25.105-9.573-34.685,0
			l-34.514,34.514C973.463,133.268,985.089,144.895,995.417,157.626z"/>
		<path fill="#231F20" d="M995.419,452.883c-10.328,12.73-21.955,24.357-34.685,34.685l34.513,34.513
			c4.79,4.786,11.068,7.181,17.342,7.181c6.275,0,12.553-2.395,17.343-7.181c9.576-9.58,9.576-25.105,0-34.685L995.419,452.883z"/>
		<path fill="#231F20" d="M1095.217,280.73h-48.671c0.841,8.064,1.286,16.245,1.286,24.529c0,8.28-0.444,16.458-1.285,24.519h48.67
			c13.545,0,24.524-10.979,24.524-24.524S1108.762,280.73,1095.217,280.73z"/>
		<path fill="#231F20" d="M813.108,539.982c-8.283,0-16.463-0.444-24.528-1.286v48.673c0,13.545,10.979,24.524,24.524,24.524
			c13.545,0,24.524-10.979,24.524-24.524v-48.672C829.567,539.538,821.389,539.982,813.108,539.982z"/>
		<path fill="#231F20" d="M630.79,452.883l-34.514,34.514c-9.576,9.58-9.576,25.105,0,34.685c4.79,4.786,11.068,7.181,17.343,7.181
			s12.553-2.395,17.343-7.181l34.514-34.514C652.745,477.239,641.119,465.613,630.79,452.883z"/>
	</g>
	<g>
		<circle fill="#FFDD00" cx="813.104" cy="305.255" r="172.456"/>
		<path fill="#231F20" d="M813.105,501.384c-108.147,0-196.128-87.984-196.128-196.131s87.981-196.128,196.128-196.128
			s196.128,87.981,196.128,196.128S921.251,501.384,813.105,501.384z M813.105,156.472c-82.04,0-148.782,66.742-148.782,148.782
			s66.742,148.785,148.782,148.785s148.782-66.745,148.782-148.785S895.144,156.472,813.105,156.472z"/>
	</g>
</g>
</svg>
