<?xml version="1.0" encoding="utf-8"?>
<!-- Generator: Adobe Illustrator 17.0.0, SVG Export Plug-In . SVG Version: 6.00 Build 0)  -->
<!DOCTYPE svg PUBLIC "-//W3C//DTD SVG 1.1//EN" "http://www.w3.org/Graphics/SVG/1.1/DTD/svg11.dtd">
<svg version="1.1" id="Layer_1" xmlns="http://www.w3.org/2000/svg" xmlns:xlink="http://www.w3.org/1999/xlink" x="0px" y="0px"
	 viewBox="0 0 792 612" enable-background="new 0 0 792 612" xml:space="preserve">
<path fill="#FFFFFF" d="M569.324,396.266l-72.079-70.272c10.13-19.637,15.453-42.876,15.453-67.731
	c0-84.324-68.602-152.919-152.919-152.919c-84.291,0-152.86,68.576-152.86,152.867s68.576,152.867,152.861,152.867
	c21.706,0,43.052-4.656,63.534-13.849l72.623,72.616c9.822,9.828,22.184,14.811,36.74,14.811c13.528,0,27.606-5.67,37.127-15.217
	C589.047,447.844,588.87,415.74,569.324,396.266z M433.403,258.204c0,40.597-33.028,73.624-74.063,73.631
	c-40.001,1.735-73.199-31.934-73.199-73.631c0-40.603,33.028-73.631,73.631-73.631S433.403,217.601,433.403,258.204z"/>
</svg>
