<?xml version="1.0" encoding="utf-8"?>
<!-- Generator: Adobe Illustrator 17.0.0, SVG Export Plug-In . SVG Version: 6.00 Build 0)  -->
<!DOCTYPE svg PUBLIC "-//W3C//DTD SVG 1.1//EN" "http://www.w3.org/Graphics/SVG/1.1/DTD/svg11.dtd">
<svg version="1.1" id="Layer_1" xmlns="http://www.w3.org/2000/svg" xmlns:xlink="http://www.w3.org/1999/xlink" x="0px" y="0px"
	 viewBox="-0.977 88.5 615 615" enable-background="new -0.977 88.5 615 615" xml:space="preserve">
<g>
	<path d="M306.523,183.108c-118.215,0-213.415,95.2-213.415,212.369s95.2,213.415,213.415,213.415
		c117.169,0,213.415-95.2,213.415-213.415S423.692,183.108,306.523,183.108 M306.523,90C476,90,613.046,227.046,613.046,395.477
		S474.954,702,306.523,702S0,564.954,0,395.477S137.046,90,306.523,90"/>
	<path d="M360.923,490.677l-81.6-84.738V236.462c0-14.646,11.508-26.154,26.154-26.154s26.154,11.508,26.154,26.154v148.554
		l66.954,69.046c10.462,10.462,9.415,27.2-1.046,37.662c-5.231,5.231-11.508,7.323-18.831,7.323
		C373.477,499.046,366.154,495.908,360.923,490.677"/>
</g>
</svg>
