<?xml version="1.0" encoding="utf-8"?>
<!-- Generator: Adobe Illustrator 17.0.0, SVG Export Plug-In . SVG Version: 6.00 Build 0)  -->
<!DOCTYPE svg PUBLIC "-//W3C//DTD SVG 1.1//EN" "http://www.w3.org/Graphics/SVG/1.1/DTD/svg11.dtd">
<svg version="1.1" id="Layer_1" xmlns="http://www.w3.org/2000/svg" xmlns:xlink="http://www.w3.org/1999/xlink" x="0px" y="0px"
	 viewBox="0 0 89.3 89.3" enable-background="new 0 0 89.3 89.3" xml:space="preserve">
<g>
	<path fill="#FFFFFF" d="M77.7,25.4c-2.3,1-4.8,1.7-7.4,2c2.7-1.6,4.7-4.1,5.7-7.1c-2.5,1.5-5.3,2.5-8.2,3.1c-2.4-2.5-5.7-4-9.4-4
		c-7.1,0-12.9,5.7-12.9,12.8c0,1,0.1,2,0.3,2.9C35,34.5,25.4,29.5,19.1,21.7c-1.1,1.9-1.8,4.1-1.8,6.4c0,4.4,2.3,8.3,5.8,10.6
		c-2.1-0.1-4.1-0.6-5.9-1.6c0,0.1,0,0.1,0,0.2c0,6.2,4.5,11.3,10.4,12.5c-1.1,0.3-2.2,0.4-3.4,0.4c-0.8,0-1.6-0.1-2.4-0.2
		c1.6,5.1,6.4,8.8,12.1,8.9c-4.4,3.4-10,5.5-16.1,5.5c-1,0-2.1-0.1-3.1-0.2c5.7,3.6,12.5,5.7,19.8,5.7c23.8,0,36.8-19.4,36.8-36.3
		c0-0.6,0-1.1,0-1.6C73.7,30.2,75.9,27.9,77.7,25.4"/>
</g>
</svg>
