<?xml version="1.0" encoding="utf-8"?>
<!-- Generator: Adobe Illustrator 14.0.0, SVG Export Plug-In . SVG Version: 6.00 Build 43363)  -->
<!DOCTYPE svg PUBLIC "-//W3C//DTD SVG 1.1//EN" "http://www.w3.org/Graphics/SVG/1.1/DTD/svg11.dtd">
<svg version="1.1" id="Layer_1" xmlns="http://www.w3.org/2000/svg" xmlns:xlink="http://www.w3.org/1999/xlink" x="0px" y="0px"
	 width="50px" height="50px" viewBox="285 371 50 50" enable-background="new 285 371 50 50" xml:space="preserve">
<g>
	<g>
		<defs>
			<rect id="SVGID_1_" x="286.5" y="372.5" width="47" height="47"/>
		</defs>
		<clipPath id="SVGID_2_">
			<use xlink:href="#SVGID_1_"  overflow="visible"/>
		</clipPath>
		<path clip-path="url(#SVGID_2_)" fill="#CCCCCC" d="M321.797,375.651c-3.602-2.101-7.533-3.151-11.797-3.151
			s-8.196,1.051-11.796,3.151c-3.601,2.102-6.452,4.953-8.553,8.553c-2.101,3.601-3.151,7.532-3.151,11.796
			c0,4.264,1.05,8.195,3.151,11.796s4.952,6.451,8.553,8.553c3.6,2.102,7.532,3.151,11.796,3.151s8.195-1.051,11.797-3.151
			c3.601-2.102,6.45-4.951,8.551-8.553c2.103-3.601,3.152-7.532,3.152-11.796c0-4.264-1.051-8.195-3.152-11.796
			C328.247,380.604,325.396,377.753,321.797,375.651 M321.367,392.604c-0.255,0.755-0.541,1.372-0.857,1.851
			c-0.314,0.48-0.77,0.97-1.359,1.469c-0.594,0.5-1.062,0.857-1.408,1.071s-0.846,0.505-1.499,0.872
			c-0.673,0.388-1.229,0.893-1.668,1.515c-0.439,0.622-0.658,1.127-0.658,1.517c0,0.284-0.091,0.52-0.275,0.702
			c-0.184,0.185-0.418,0.275-0.702,0.275h-5.875c-0.286,0-0.521-0.092-0.704-0.275s-0.274-0.418-0.274-0.702v-1.104
			c0-1.366,0.535-2.646,1.606-3.84c1.068-1.194,2.249-2.076,3.533-2.646c0.979-0.448,1.673-0.907,2.08-1.377
			c0.408-0.47,0.611-1.092,0.611-1.866c0-0.674-0.382-1.275-1.146-1.807c-0.767-0.529-1.638-0.795-2.616-0.795
			c-1.062,0-1.938,0.244-2.632,0.734c-0.675,0.49-1.551,1.428-2.631,2.814c-0.185,0.245-0.439,0.367-0.766,0.367
			c-0.245,0-0.439-0.061-0.582-0.183l-4.039-3.061c-0.469-0.366-0.551-0.796-0.245-1.284c2.611-4.346,6.396-6.519,11.353-6.519
			c1.773,0,3.508,0.418,5.202,1.255c1.692,0.836,3.104,2.02,4.235,3.549c1.133,1.53,1.699,3.193,1.699,4.988
			C321.75,391.023,321.622,391.85,321.367,392.604 M313.641,411.392c-0.184,0.185-0.418,0.274-0.703,0.274h-5.875
			c-0.285,0-0.52-0.091-0.703-0.274c-0.184-0.185-0.274-0.418-0.274-0.704v-5.875c0-0.284,0.092-0.521,0.274-0.703
			c0.185-0.185,0.418-0.275,0.703-0.275h5.875c0.285,0,0.521,0.092,0.703,0.275c0.186,0.184,0.275,0.419,0.275,0.703v5.875
			C313.916,410.974,313.825,411.207,313.641,411.392"/>
	</g>
</g>
</svg>
