<?xml version="1.0" encoding="UTF-8"?>
<!-- Generator: Adobe Illustrator 14.0.0, SVG Export Plug-In . SVG Version: 6.00 Build 43363)  -->
<!DOCTYPE svg PUBLIC "-//W3C//DTD SVG 1.1//EN" "http://www.w3.org/Graphics/SVG/1.1/DTD/svg11.dtd">
<svg version="1.1" id="Layer_1" xmlns="http://www.w3.org/2000/svg" xmlns:xlink="http://www.w3.org/1999/xlink" x="0px" y="0px" width="150px" height="28.25px" viewBox="357 219.25 150 28.25" enable-background="new 357 219.25 150 28.25" xml:space="preserve">
<g>
	<path fill="#FFFFFF" d="M365.128,243.007c2.162,0,3.684-1.522,3.925-3.765c0.32-2.242-0.801-3.764-2.963-3.764   c-2.164,0-3.685,1.522-4.005,3.764C361.844,241.485,362.965,243.007,365.128,243.007 M359.921,226.187h4.325l-0.961,7.289h0.08   c1.201-1.441,2.883-1.922,4.726-1.922c4.004,0,5.927,3.764,5.366,7.849c-0.56,4.486-3.764,7.609-7.929,7.609   c-2.002,0-3.444-1.282-4.005-2.323h-0.081l-0.24,2.003h-4.005L359.921,226.187z"/>
	<path fill="#FFFFFF" d="M382.028,243.007c2.162,0,3.684-1.522,3.925-3.765c0.32-2.242-0.801-3.764-2.963-3.764   c-2.163,0-3.685,1.522-4.005,3.764C378.744,241.485,379.866,243.007,382.028,243.007 M383.549,231.553   c4.326,0,7.369,3.043,6.729,7.769c-0.641,4.726-4.486,7.77-8.811,7.77c-4.325,0-7.369-3.043-6.728-7.77   C375.38,234.597,379.225,231.553,383.549,231.553"/>
	<path fill="#FFFFFF" d="M400.05,236.199c-0.562-0.801-1.282-1.282-2.323-1.282c-0.722,0-1.603,0.32-1.763,1.202   c-0.321,2.162,7.289,0.32,6.487,5.927c-0.48,3.764-4.084,4.886-7.128,4.886c-2.002,0-4.085-0.48-5.287-2.002l3.043-3.044   c0.642,1.042,1.522,1.602,2.884,1.602c0.961,0,2.002-0.24,2.083-1.041c0.32-2.402-7.289-0.4-6.488-6.007   c0.48-3.444,3.604-4.966,6.568-4.966c1.842,0,3.845,0.481,4.965,1.922L400.05,236.199z"/>
	<path fill="#FFFFFF" d="M414.386,235.558h-3.844l-0.641,4.886c-0.241,1.603-0.16,2.724,1.682,2.724c0.48,0,1.361-0.081,1.842-0.4   l-0.481,3.764c-1.041,0.4-2.082,0.48-3.123,0.48c-2.884,0-4.966-1.282-4.486-4.485l0.961-7.048h-2.804l0.481-3.684h2.803   l0.961-5.607h4.325l-0.961,5.687h3.764L414.386,235.558z"/>
	<path fill="#FFFFFF" d="M422.156,243.007c2.163,0,3.684-1.522,3.924-3.765c0.321-2.242-0.801-3.764-2.963-3.764   s-3.685,1.522-4.005,3.764C418.872,241.485,419.993,243.007,422.156,243.007 M423.677,231.553c4.325,0,7.369,3.043,6.728,7.769   c-0.641,4.726-4.485,7.77-8.811,7.77s-7.369-3.043-6.728-7.77C415.507,234.597,419.352,231.553,423.677,231.553"/>
	<path fill="#FFFFFF" d="M432.968,231.874h4.165l-0.239,2.002h0.08c0.721-1.121,2.322-2.403,4.404-2.403   c4.406,0,4.808,3.043,4.245,6.968l-1.121,8.25h-4.325l0.96-7.209c0.241-1.682,0.482-3.925-1.761-3.925s-2.883,1.843-3.123,3.765   l-0.962,7.37h-4.325L432.968,231.874z"/>
	<path fill="#FFFFFF" d="M464.446,236.68c-0.321-0.641-1.121-1.122-2.003-1.122c-2.162,0-3.684,1.523-4.004,3.765   c-0.32,2.243,0.801,3.765,2.962,3.765c0.962,0,1.683-0.48,2.324-1.121l2.401,3.123c-1.521,1.442-3.604,2.002-5.285,2.002   c-4.325,0-7.369-3.043-6.728-7.77c0.641-4.726,4.485-7.769,8.81-7.769c1.682,0,3.605,0.481,4.727,2.002L464.446,236.68z"/>
	<path fill="#FFFFFF" d="M474.537,243.007c2.163,0,3.685-1.522,4.005-3.765c0.321-2.242-0.801-3.764-2.963-3.764   c-2.163,0-3.685,1.522-3.924,3.764C471.334,241.485,472.376,243.007,474.537,243.007 M476.14,231.553   c4.325,0,7.37,3.043,6.729,7.769c-0.641,4.726-4.486,7.77-8.812,7.77c-4.324,0-7.368-3.043-6.729-7.77   C467.891,234.597,471.735,231.553,476.14,231.553"/>
	<path fill="#FFFFFF" d="M485.351,231.874h4.165l-0.241,2.002h0.08c0.722-1.121,2.324-2.403,4.406-2.403   c2.003,0,3.444,0.881,4.005,2.644c1.281-1.922,2.724-2.644,4.805-2.644c3.846,0,4.566,2.803,4.085,6.408l-1.2,8.73h-4.326   l1.122-8.57c0.16-1.361-0.161-2.483-1.603-2.483c-2.003,0-2.803,1.523-3.043,3.284l-1.041,7.85h-4.325l1.042-7.85   c0.159-1.121,0.479-3.284-1.522-3.284c-2.243,0-2.885,1.843-3.124,3.765l-0.961,7.37h-4.325L485.351,231.874z"/>
	<path fill="#C3002F" d="M451.951,242.126c0.56,0.641,0.721,1.682,0.399,2.483c-0.319,0.881-1.121,1.602-2.002,1.922   c-0.722,0.321-1.682,0.161-2.322-0.161c-0.721-0.48-1.04-1.281-0.961-2.242c0-1.122,0.881-2.083,1.843-2.563   C449.869,241.165,451.229,241.325,451.951,242.126"/>
</g>
<g>
	<path fill="#FFFFFF" d="M443.378,219.75h2.636c0.404,0,0.754,0.053,1.05,0.157c0.296,0.105,0.54,0.247,0.735,0.426   c0.193,0.179,0.34,0.389,0.438,0.63c0.097,0.241,0.146,0.498,0.146,0.77c0,0.249-0.045,0.474-0.134,0.676   c-0.09,0.203-0.199,0.374-0.327,0.514c-0.128,0.14-0.269,0.252-0.42,0.338c-0.151,0.085-0.282,0.136-0.391,0.151   c0.147,0.023,0.321,0.072,0.519,0.146c0.198,0.074,0.384,0.185,0.554,0.333c0.172,0.147,0.315,0.34,0.433,0.577   c0.116,0.237,0.175,0.531,0.175,0.881c0,0.42-0.076,0.768-0.228,1.044s-0.357,0.5-0.618,0.67c-0.261,0.171-0.569,0.292-0.927,0.362   c-0.358,0.07-0.739,0.105-1.144,0.105h-2.496V219.75z M445.851,222.993c0.171,0,0.342-0.021,0.513-0.064s0.327-0.111,0.468-0.205   c0.14-0.093,0.252-0.213,0.338-0.361c0.085-0.147,0.128-0.327,0.128-0.537c0-0.233-0.043-0.422-0.128-0.565   c-0.086-0.144-0.198-0.257-0.338-0.338c-0.141-0.082-0.297-0.136-0.468-0.164c-0.171-0.027-0.342-0.041-0.513-0.041h-1.388v2.274   H445.851z M445.815,226.562c0.202,0,0.412-0.011,0.63-0.035s0.418-0.078,0.601-0.164c0.184-0.085,0.333-0.212,0.449-0.379   c0.117-0.167,0.175-0.398,0.175-0.694c0-0.28-0.056-0.505-0.169-0.676s-0.257-0.308-0.432-0.408   c-0.176-0.101-0.367-0.169-0.577-0.205c-0.21-0.035-0.412-0.052-0.606-0.052h-1.423v2.613H445.815z"/>
	<path fill="#FFFFFF" d="M454.984,226.737c-0.062,0.07-0.156,0.16-0.279,0.269c-0.125,0.109-0.287,0.214-0.485,0.315   s-0.431,0.188-0.7,0.263c-0.267,0.074-0.572,0.11-0.915,0.11c-0.42,0-0.805-0.07-1.154-0.21c-0.351-0.14-0.649-0.338-0.898-0.595   s-0.441-0.563-0.577-0.921c-0.137-0.358-0.204-0.754-0.204-1.19c0-0.396,0.066-0.768,0.198-1.114s0.318-0.646,0.56-0.898   c0.241-0.253,0.526-0.453,0.857-0.601c0.331-0.147,0.694-0.222,1.091-0.222c0.466,0,0.867,0.089,1.201,0.269   c0.335,0.179,0.608,0.416,0.822,0.711s0.371,0.634,0.473,1.015c0.101,0.381,0.151,0.778,0.151,1.19h-4.28   c0.007,0.241,0.06,0.462,0.157,0.665c0.097,0.203,0.228,0.377,0.391,0.525c0.163,0.147,0.35,0.264,0.561,0.35   c0.21,0.086,0.431,0.128,0.664,0.128c0.458,0,0.836-0.078,1.132-0.233c0.295-0.155,0.509-0.307,0.642-0.455L454.984,226.737z    M454.039,224.346c-0.031-0.42-0.179-0.777-0.442-1.073c-0.265-0.295-0.638-0.443-1.12-0.443c-0.249,0-0.473,0.043-0.671,0.128   s-0.368,0.199-0.508,0.338c-0.14,0.14-0.249,0.301-0.326,0.484c-0.078,0.183-0.121,0.372-0.128,0.566H454.039z"/>
	<path fill="#FFFFFF" d="M456.758,222.981h-0.98v-0.875h0.98v-1.773h1.05v1.773h1.586v0.875h-1.586v2.671   c0,0.436,0.067,0.735,0.203,0.898c0.137,0.163,0.329,0.245,0.578,0.245c0.202,0,0.37-0.031,0.502-0.093   c0.132-0.062,0.264-0.156,0.396-0.28l0.478,0.642c-0.226,0.218-0.457,0.375-0.693,0.473c-0.238,0.097-0.52,0.146-0.847,0.146   c-0.574,0-0.996-0.156-1.266-0.467c-0.268-0.311-0.401-0.797-0.401-1.458V222.981z"/>
	<path fill="#FFFFFF" d="M464.165,226.877c-0.203,0.272-0.47,0.475-0.8,0.606c-0.331,0.132-0.67,0.199-1.021,0.199   c-0.226,0-0.449-0.029-0.672-0.087c-0.221-0.059-0.423-0.156-0.605-0.292c-0.184-0.136-0.33-0.311-0.443-0.524   s-0.169-0.477-0.169-0.788c0-0.583,0.204-1.05,0.612-1.4s0.997-0.525,1.767-0.525c0.125,0,0.257,0.004,0.397,0.012   c0.14,0.008,0.271,0.016,0.396,0.023c0.124,0.008,0.232,0.016,0.326,0.023c0.093,0.008,0.159,0.016,0.199,0.023v-0.198   c0-0.404-0.123-0.694-0.368-0.869c-0.245-0.175-0.577-0.263-0.998-0.263c-0.411,0-0.738,0.057-0.979,0.169   s-0.443,0.228-0.606,0.344l-0.49-0.711c0.094-0.078,0.207-0.156,0.339-0.233c0.133-0.078,0.288-0.149,0.466-0.216   c0.18-0.066,0.381-0.121,0.607-0.164c0.225-0.042,0.485-0.064,0.781-0.064c0.7,0,1.25,0.169,1.65,0.507   c0.4,0.338,0.601,0.819,0.601,1.441v3.161c0,0.187,0.005,0.346,0.012,0.479h-0.979L464.165,226.877z M464.153,224.964   c-0.032-0.008-0.092-0.017-0.182-0.029c-0.089-0.012-0.192-0.021-0.309-0.029c-0.117-0.008-0.242-0.016-0.374-0.023   s-0.261-0.012-0.385-0.012c-0.296,0-0.534,0.035-0.717,0.105c-0.184,0.07-0.327,0.158-0.432,0.263   c-0.105,0.105-0.178,0.221-0.217,0.35c-0.038,0.128-0.058,0.25-0.058,0.367c0,0.295,0.101,0.519,0.304,0.671   c0.201,0.152,0.482,0.228,0.839,0.228c0.202,0,0.395-0.035,0.578-0.105c0.182-0.07,0.344-0.163,0.483-0.28   c0.141-0.117,0.253-0.252,0.339-0.408c0.085-0.156,0.129-0.315,0.129-0.478V224.964z"/>
	<path fill="#FFFFFF" d="M468.865,219.75h2.484c0.498,0,0.918,0.068,1.26,0.204s0.62,0.311,0.835,0.525   c0.213,0.214,0.368,0.457,0.466,0.729c0.097,0.272,0.146,0.548,0.146,0.828c0,0.498-0.116,0.938-0.351,1.318   c-0.232,0.381-0.594,0.665-1.084,0.852l1.819,3.324h-1.26l-1.668-3.185h-1.562v3.185h-1.085V219.75z M471.443,223.401   c0.489,0,0.857-0.121,1.103-0.362c0.244-0.241,0.367-0.564,0.367-0.968c0-0.428-0.132-0.76-0.396-0.997   c-0.265-0.238-0.631-0.356-1.097-0.356h-1.47v2.683H471.443z"/>
	<path fill="#FFFFFF" d="M480.296,226.737c-0.062,0.07-0.155,0.16-0.279,0.269s-0.286,0.214-0.484,0.315s-0.431,0.188-0.7,0.263   c-0.268,0.074-0.573,0.11-0.915,0.11c-0.42,0-0.805-0.07-1.155-0.21c-0.35-0.14-0.648-0.338-0.897-0.595s-0.442-0.563-0.577-0.921   c-0.137-0.358-0.204-0.754-0.204-1.19c0-0.396,0.065-0.768,0.198-1.114c0.132-0.346,0.318-0.646,0.56-0.898   c0.24-0.253,0.526-0.453,0.857-0.601c0.331-0.147,0.693-0.222,1.091-0.222c0.466,0,0.867,0.089,1.2,0.269   c0.336,0.179,0.608,0.416,0.823,0.711c0.213,0.295,0.371,0.634,0.472,1.015c0.102,0.381,0.152,0.778,0.152,1.19h-4.28   c0.007,0.241,0.06,0.462,0.157,0.665c0.097,0.203,0.228,0.377,0.391,0.525c0.163,0.147,0.35,0.264,0.56,0.35   c0.211,0.086,0.432,0.128,0.665,0.128c0.458,0,0.836-0.078,1.132-0.233c0.295-0.155,0.509-0.307,0.642-0.455L480.296,226.737z    M479.352,224.346c-0.031-0.42-0.179-0.777-0.442-1.073c-0.265-0.295-0.639-0.443-1.12-0.443c-0.249,0-0.473,0.043-0.671,0.128   s-0.368,0.199-0.508,0.338c-0.14,0.14-0.249,0.301-0.327,0.484c-0.077,0.183-0.12,0.372-0.127,0.566H479.352z"/>
	<path fill="#FFFFFF" d="M481.604,219.75h1.049v7.78h-1.049V219.75z"/>
	<path fill="#FFFFFF" d="M489.045,226.737c-0.062,0.07-0.156,0.16-0.279,0.269c-0.125,0.109-0.287,0.214-0.485,0.315   c-0.197,0.101-0.431,0.188-0.699,0.263c-0.268,0.074-0.573,0.11-0.916,0.11c-0.42,0-0.805-0.07-1.154-0.21   c-0.35-0.14-0.649-0.338-0.898-0.595s-0.441-0.563-0.577-0.921c-0.137-0.358-0.204-0.754-0.204-1.19   c0-0.396,0.066-0.768,0.198-1.114s0.318-0.646,0.56-0.898c0.241-0.253,0.527-0.453,0.857-0.601   c0.331-0.147,0.694-0.222,1.091-0.222c0.466,0,0.867,0.089,1.201,0.269c0.335,0.179,0.608,0.416,0.823,0.711   c0.213,0.295,0.371,0.634,0.472,1.015c0.102,0.381,0.152,0.778,0.152,1.19h-4.281c0.008,0.241,0.061,0.462,0.157,0.665   c0.097,0.203,0.228,0.377,0.391,0.525c0.163,0.147,0.351,0.264,0.561,0.35c0.21,0.086,0.432,0.128,0.664,0.128   c0.459,0,0.837-0.078,1.132-0.233c0.296-0.155,0.51-0.307,0.642-0.455L489.045,226.737z M488.1,224.346   c-0.03-0.42-0.179-0.777-0.442-1.073c-0.265-0.295-0.638-0.443-1.12-0.443c-0.249,0-0.473,0.043-0.671,0.128   c-0.197,0.085-0.367,0.199-0.508,0.338c-0.14,0.14-0.248,0.301-0.326,0.484c-0.078,0.183-0.12,0.372-0.128,0.566H488.1z"/>
	<path fill="#FFFFFF" d="M493.746,226.877c-0.202,0.272-0.469,0.475-0.799,0.606c-0.331,0.132-0.671,0.199-1.021,0.199   c-0.226,0-0.449-0.029-0.671-0.087c-0.223-0.059-0.424-0.156-0.606-0.292c-0.184-0.136-0.331-0.311-0.443-0.524   c-0.113-0.214-0.169-0.477-0.169-0.788c0-0.583,0.204-1.05,0.612-1.4c0.407-0.35,0.997-0.525,1.768-0.525   c0.123,0,0.256,0.004,0.396,0.012c0.141,0.008,0.273,0.016,0.396,0.023c0.125,0.008,0.233,0.016,0.327,0.023   c0.093,0.008,0.159,0.016,0.198,0.023v-0.198c0-0.404-0.123-0.694-0.367-0.869c-0.245-0.175-0.577-0.263-0.997-0.263   c-0.413,0-0.74,0.057-0.98,0.169c-0.241,0.113-0.442,0.228-0.605,0.344l-0.491-0.711c0.094-0.078,0.206-0.156,0.339-0.233   c0.132-0.078,0.287-0.149,0.467-0.216c0.179-0.066,0.38-0.121,0.605-0.164c0.227-0.042,0.486-0.064,0.781-0.064   c0.701,0,1.251,0.169,1.651,0.507c0.401,0.338,0.601,0.819,0.601,1.441v3.161c0,0.187,0.004,0.346,0.012,0.479h-0.98   L493.746,226.877z M493.734,224.964c-0.031-0.008-0.092-0.017-0.181-0.029c-0.09-0.012-0.192-0.021-0.31-0.029   c-0.116-0.008-0.241-0.016-0.373-0.023c-0.133-0.008-0.261-0.012-0.386-0.012c-0.295,0-0.534,0.035-0.717,0.105   c-0.183,0.07-0.326,0.158-0.432,0.263c-0.104,0.105-0.177,0.221-0.215,0.35c-0.04,0.128-0.06,0.25-0.06,0.367   c0,0.295,0.102,0.519,0.304,0.671s0.482,0.228,0.84,0.228c0.202,0,0.395-0.035,0.578-0.105c0.183-0.07,0.344-0.163,0.483-0.28   s0.253-0.252,0.338-0.408c0.086-0.156,0.129-0.315,0.129-0.478V224.964z"/>
	<path fill="#FFFFFF" d="M496.522,226.166c0.193,0.194,0.428,0.35,0.699,0.467c0.272,0.116,0.588,0.175,0.945,0.175   c0.35,0,0.642-0.056,0.874-0.169c0.234-0.113,0.351-0.29,0.351-0.531c0-0.124-0.025-0.231-0.075-0.321   c-0.052-0.089-0.137-0.169-0.258-0.239c-0.12-0.07-0.279-0.134-0.478-0.192c-0.198-0.059-0.445-0.123-0.74-0.193   c-0.211-0.046-0.419-0.108-0.625-0.187c-0.206-0.078-0.391-0.181-0.554-0.309c-0.164-0.128-0.296-0.284-0.396-0.466   s-0.152-0.402-0.152-0.659c0-0.265,0.061-0.496,0.181-0.694c0.121-0.199,0.282-0.366,0.485-0.502   c0.201-0.136,0.429-0.239,0.682-0.309s0.516-0.105,0.788-0.105c0.459,0,0.853,0.061,1.184,0.181c0.33,0.12,0.62,0.29,0.869,0.507   l-0.572,0.723c-0.163-0.148-0.367-0.272-0.611-0.374c-0.246-0.101-0.531-0.152-0.858-0.152c-0.334,0-0.603,0.055-0.805,0.164   s-0.303,0.288-0.303,0.537c0,0.233,0.134,0.406,0.402,0.519s0.619,0.22,1.056,0.321c0.256,0.062,0.496,0.134,0.718,0.216   c0.221,0.082,0.416,0.187,0.583,0.315c0.166,0.128,0.299,0.286,0.396,0.473c0.098,0.187,0.146,0.412,0.146,0.676   c0,0.272-0.062,0.512-0.187,0.717c-0.124,0.207-0.292,0.379-0.502,0.52s-0.45,0.245-0.724,0.315   c-0.271,0.07-0.556,0.104-0.851,0.104c-1.026,0-1.796-0.276-2.31-0.828L496.522,226.166z"/>
	<path fill="#FFFFFF" d="M506.624,226.737c-0.062,0.07-0.155,0.16-0.28,0.269c-0.124,0.109-0.285,0.214-0.483,0.315   c-0.199,0.101-0.433,0.188-0.7,0.263c-0.269,0.074-0.574,0.11-0.916,0.11c-0.42,0-0.805-0.07-1.155-0.21   c-0.35-0.14-0.649-0.338-0.897-0.595c-0.249-0.256-0.441-0.563-0.578-0.921c-0.136-0.358-0.204-0.754-0.204-1.19   c0-0.396,0.066-0.768,0.198-1.114c0.133-0.346,0.319-0.646,0.561-0.898c0.241-0.253,0.526-0.453,0.857-0.601   c0.33-0.147,0.693-0.222,1.091-0.222c0.467,0,0.866,0.089,1.201,0.269c0.334,0.179,0.608,0.416,0.822,0.711   s0.371,0.634,0.473,1.015c0.101,0.381,0.151,0.778,0.151,1.19h-4.281c0.008,0.241,0.061,0.462,0.158,0.665   c0.097,0.203,0.227,0.377,0.39,0.525c0.164,0.147,0.351,0.264,0.561,0.35c0.21,0.086,0.432,0.128,0.666,0.128   c0.458,0,0.834-0.078,1.131-0.233c0.295-0.155,0.509-0.307,0.642-0.455L506.624,226.737z M505.68,224.346   c-0.031-0.42-0.18-0.777-0.444-1.073c-0.265-0.295-0.638-0.443-1.119-0.443c-0.249,0-0.473,0.043-0.671,0.128   c-0.199,0.085-0.368,0.199-0.508,0.338c-0.14,0.14-0.249,0.301-0.326,0.484c-0.078,0.183-0.121,0.372-0.129,0.566H505.68z"/>
</g>
</svg>