<?xml version="1.0" encoding="UTF-8"?>
<!-- Generator: Adobe Illustrator 14.0.0, SVG Export Plug-In . SVG Version: 6.00 Build 43363)  -->
<!DOCTYPE svg PUBLIC "-//W3C//DTD SVG 1.1//EN" "http://www.w3.org/Graphics/SVG/1.1/DTD/svg11.dtd">
<svg version="1.1" id="Layer_1" xmlns="http://www.w3.org/2000/svg" xmlns:xlink="http://www.w3.org/1999/xlink" x="0px" y="0px" width="200px" height="38px" viewBox="332 214.062 200 38" enable-background="new 332 214.062 200 38" xml:space="preserve">
<rect x="310.5" y="187.5" width="244.75" height="94.75"/>
<g>
	<path fill="#FFFFFF" d="M342.898,246.187c2.878,0,4.903-2.025,5.223-5.01c0.426-2.984-1.066-5.01-3.944-5.01   c-2.878,0-4.903,2.025-5.33,5.01C338.528,244.162,340.021,246.187,342.898,246.187 M335.97,223.804h5.756l-1.279,9.699h0.106   c1.599-1.918,3.837-2.559,6.289-2.559c5.33,0,7.888,5.01,7.142,10.446c-0.746,5.969-5.01,10.126-10.552,10.126   c-2.665,0-4.583-1.706-5.33-3.091h-0.107l-0.319,2.665h-5.33L335.97,223.804z"/>
	<path fill="#FFFFFF" d="M365.389,246.187c2.878,0,4.903-2.025,5.223-5.01c0.426-2.984-1.066-5.01-3.944-5.01   s-4.903,2.025-5.329,5.01C361.018,244.162,362.511,246.187,365.389,246.187 M367.414,230.944c5.756,0,9.806,4.051,8.953,10.339   c-0.853,6.29-5.969,10.339-11.725,10.339c-5.755,0-9.806-4.05-8.953-10.339C356.542,234.995,361.658,230.944,367.414,230.944"/>
	<path fill="#FFFFFF" d="M389.372,237.127c-0.747-1.066-1.706-1.706-3.091-1.706c-0.96,0-2.132,0.426-2.345,1.599   c-0.427,2.878,9.699,0.426,8.633,7.888c-0.639,5.009-5.436,6.502-9.486,6.502c-2.665,0-5.436-0.64-7.035-2.665l4.05-4.051   c0.854,1.386,2.025,2.132,3.838,2.132c1.279,0,2.665-0.319,2.771-1.385c0.426-3.197-9.7-0.533-8.634-7.994   c0.64-4.583,4.796-6.609,8.74-6.609c2.452,0,5.117,0.64,6.608,2.558L389.372,237.127z"/>
	<path fill="#FFFFFF" d="M408.451,236.274h-5.116l-0.853,6.502c-0.32,2.132-0.213,3.625,2.238,3.625c0.64,0,1.812-0.107,2.451-0.533   l-0.64,5.009c-1.385,0.533-2.771,0.64-4.156,0.64c-3.838,0-6.609-1.706-5.97-5.969l1.279-9.38h-3.731l0.64-4.903h3.73l1.279-7.461   h5.756l-1.279,7.568h5.01L408.451,236.274z"/>
	<path fill="#FFFFFF" d="M418.79,246.187c2.877,0,4.903-2.025,5.223-5.01c0.427-2.984-1.066-5.01-3.944-5.01s-4.903,2.025-5.33,5.01   C414.42,244.162,415.912,246.187,418.79,246.187 M420.815,230.944c5.756,0,9.806,4.051,8.954,10.339   c-0.853,6.29-5.969,10.339-11.725,10.339s-9.806-4.05-8.953-10.339C409.942,234.995,415.059,230.944,420.815,230.944"/>
	<path fill="#FFFFFF" d="M433.179,231.372h5.542l-0.318,2.665h0.106c0.959-1.493,3.091-3.198,5.861-3.198   c5.864,0,6.397,4.051,5.649,9.273l-1.491,10.979h-5.756l1.278-9.594c0.319-2.238,0.641-5.223-2.345-5.223s-3.837,2.452-4.156,5.01   l-1.279,9.807h-5.756L433.179,231.372z"/>
	<path fill="#FFFFFF" d="M475.069,237.767c-0.427-0.853-1.493-1.493-2.665-1.493c-2.878,0-4.903,2.026-5.329,5.01   c-0.427,2.984,1.065,5.01,3.942,5.01c1.28,0,2.239-0.639,3.093-1.492l3.196,4.157c-2.025,1.918-4.796,2.665-7.034,2.665   c-5.756,0-9.807-4.05-8.953-10.339c0.853-6.289,5.969-10.339,11.725-10.339c2.237,0,4.797,0.641,6.289,2.665L475.069,237.767z"/>
	<path fill="#FFFFFF" d="M488.499,246.187c2.878,0,4.902-2.025,5.329-5.01s-1.065-5.01-3.943-5.01c-2.879,0-4.902,2.025-5.223,5.01   C484.235,244.162,485.621,246.187,488.499,246.187 M490.631,230.944c5.756,0,9.807,4.051,8.953,10.339   c-0.853,6.29-5.969,10.339-11.725,10.339s-9.806-4.05-8.954-10.339C479.652,234.995,484.769,230.944,490.631,230.944"/>
	<path fill="#FFFFFF" d="M502.888,231.372h5.544l-0.321,2.665h0.106c0.96-1.493,3.093-3.198,5.863-3.198   c2.666,0,4.584,1.173,5.33,3.518c1.705-2.558,3.624-3.518,6.395-3.518c5.116,0,6.076,3.731,5.436,8.527l-1.598,11.618h-5.757   l1.493-11.405c0.213-1.812-0.214-3.305-2.132-3.305c-2.665,0-3.73,2.026-4.05,4.371l-1.387,10.446h-5.755l1.386-10.446   c0.213-1.492,0.639-4.371-2.025-4.371c-2.984,0-3.838,2.452-4.157,5.01l-1.278,9.807h-5.757L502.888,231.372z"/>
	<path fill="#C3002F" d="M458.441,245.015c0.745,0.853,0.958,2.239,0.532,3.304c-0.426,1.172-1.492,2.132-2.664,2.558   c-0.961,0.427-2.239,0.214-3.092-0.213c-0.959-0.64-1.385-1.705-1.278-2.984c0-1.493,1.172-2.771,2.451-3.412   C455.671,243.735,457.481,243.949,458.441,245.015"/>
</g>
<g>
	<path fill="#FFFFFF" d="M447.158,215.25h3.502c0.537,0,1.002,0.07,1.396,0.209c0.393,0.14,0.718,0.328,0.977,0.566   c0.258,0.238,0.452,0.517,0.581,0.837s0.193,0.662,0.193,1.023c0,0.331-0.059,0.63-0.178,0.899   c-0.119,0.269-0.264,0.496-0.434,0.682c-0.171,0.186-0.357,0.336-0.559,0.45s-0.375,0.181-0.52,0.201   c0.196,0.031,0.427,0.096,0.689,0.194c0.264,0.099,0.51,0.246,0.736,0.442c0.228,0.196,0.419,0.452,0.574,0.767   c0.154,0.315,0.232,0.706,0.232,1.17c0,0.558-0.102,1.021-0.303,1.387s-0.475,0.664-0.821,0.891   c-0.347,0.228-0.757,0.388-1.231,0.48c-0.477,0.093-0.982,0.14-1.52,0.14h-3.316V215.25z M450.443,219.559   c0.228,0,0.455-0.028,0.682-0.085c0.228-0.057,0.435-0.147,0.621-0.271c0.186-0.124,0.335-0.284,0.449-0.48   c0.113-0.196,0.17-0.434,0.17-0.713c0-0.31-0.057-0.561-0.17-0.751c-0.114-0.191-0.264-0.341-0.449-0.45   c-0.187-0.108-0.394-0.181-0.621-0.217c-0.227-0.036-0.454-0.054-0.682-0.054H448.6v3.022H450.443z M450.396,224.302   c0.27,0,0.548-0.015,0.838-0.046c0.289-0.031,0.555-0.103,0.798-0.217s0.442-0.282,0.597-0.504   c0.155-0.222,0.232-0.529,0.232-0.922c0-0.372-0.074-0.671-0.225-0.899c-0.15-0.227-0.341-0.408-0.573-0.542   c-0.233-0.134-0.488-0.225-0.768-0.271c-0.278-0.046-0.548-0.069-0.806-0.069H448.6v3.472H450.396z"/>
	<path fill="#FFFFFF" d="M462.58,224.534c-0.082,0.093-0.207,0.212-0.371,0.357c-0.166,0.145-0.381,0.284-0.645,0.418   c-0.263,0.134-0.572,0.25-0.93,0.349c-0.355,0.098-0.762,0.147-1.217,0.147c-0.558,0-1.069-0.093-1.534-0.279   s-0.862-0.45-1.193-0.791s-0.587-0.749-0.767-1.225c-0.182-0.475-0.271-1.002-0.271-1.581c0-0.527,0.088-1.02,0.264-1.48   c0.175-0.46,0.423-0.857,0.743-1.193s0.7-0.602,1.14-0.798s0.922-0.294,1.449-0.294c0.619,0,1.152,0.119,1.596,0.356   c0.445,0.238,0.809,0.553,1.094,0.945c0.283,0.393,0.493,0.842,0.627,1.349c0.135,0.506,0.202,1.033,0.202,1.581h-5.688   c0.01,0.32,0.08,0.615,0.209,0.883c0.129,0.269,0.303,0.501,0.52,0.698s0.465,0.351,0.744,0.465s0.573,0.17,0.883,0.17   c0.609,0,1.111-0.103,1.504-0.31c0.393-0.207,0.677-0.408,0.853-0.604L462.58,224.534z M461.324,221.357   c-0.041-0.558-0.237-1.033-0.588-1.426c-0.352-0.393-0.848-0.589-1.488-0.589c-0.331,0-0.628,0.057-0.892,0.17   c-0.263,0.114-0.488,0.264-0.675,0.45c-0.186,0.186-0.33,0.4-0.434,0.643c-0.104,0.243-0.16,0.494-0.17,0.752H461.324z"/>
	<path fill="#FFFFFF" d="M464.937,219.543h-1.302v-1.163h1.302v-2.356h1.396v2.356h2.107v1.163h-2.107v3.549   c0,0.579,0.09,0.977,0.271,1.194c0.181,0.217,0.437,0.325,0.768,0.325c0.269,0,0.491-0.041,0.667-0.124   c0.175-0.083,0.351-0.207,0.526-0.372l0.636,0.853c-0.301,0.29-0.607,0.499-0.922,0.628c-0.316,0.129-0.69,0.194-1.125,0.194   c-0.764,0-1.324-0.207-1.682-0.62c-0.355-0.413-0.534-1.059-0.534-1.938V219.543z"/>
	<path fill="#FFFFFF" d="M474.779,224.72c-0.27,0.362-0.623,0.63-1.062,0.806s-0.891,0.264-1.355,0.264   c-0.301,0-0.598-0.039-0.893-0.116c-0.294-0.078-0.562-0.207-0.805-0.388c-0.244-0.181-0.439-0.413-0.59-0.697   s-0.225-0.633-0.225-1.046c0-0.775,0.271-1.395,0.814-1.86c0.542-0.465,1.324-0.698,2.348-0.698c0.165,0,0.341,0.005,0.527,0.016   c0.186,0.01,0.361,0.021,0.526,0.031c0.165,0.011,0.31,0.021,0.435,0.031c0.123,0.01,0.211,0.021,0.264,0.031v-0.263   c0-0.538-0.163-0.922-0.488-1.155c-0.326-0.232-0.768-0.349-1.326-0.349c-0.547,0-0.981,0.075-1.302,0.225   s-0.589,0.302-0.806,0.457l-0.651-0.945c0.124-0.104,0.274-0.207,0.45-0.31c0.176-0.103,0.382-0.199,0.619-0.287   c0.238-0.088,0.506-0.16,0.807-0.217c0.299-0.057,0.646-0.085,1.038-0.085c0.931,0,1.661,0.225,2.193,0.674   c0.532,0.45,0.798,1.088,0.798,1.915v4.2c0,0.248,0.006,0.46,0.016,0.636h-1.302L474.779,224.72z M474.764,222.178   c-0.042-0.01-0.122-0.023-0.24-0.039c-0.119-0.016-0.256-0.028-0.411-0.039s-0.321-0.021-0.496-0.031   c-0.176-0.01-0.347-0.016-0.512-0.016c-0.393,0-0.71,0.047-0.953,0.14c-0.243,0.093-0.435,0.209-0.573,0.349   c-0.14,0.14-0.235,0.294-0.287,0.465c-0.052,0.17-0.077,0.333-0.077,0.488c0,0.393,0.134,0.689,0.403,0.891   c0.268,0.202,0.641,0.302,1.115,0.302c0.269,0,0.524-0.046,0.768-0.14c0.242-0.093,0.457-0.217,0.643-0.372   c0.187-0.155,0.336-0.335,0.45-0.542c0.113-0.207,0.171-0.418,0.171-0.635V222.178z"/>
	<path fill="#FFFFFF" d="M481.025,215.25h3.301c0.662,0,1.22,0.09,1.674,0.271c0.455,0.181,0.824,0.414,1.109,0.698   c0.283,0.284,0.49,0.607,0.619,0.969s0.194,0.729,0.194,1.101c0,0.661-0.155,1.245-0.466,1.751c-0.31,0.506-0.79,0.883-1.441,1.131   l2.418,4.417h-1.674l-2.217-4.231h-2.076v4.231h-1.441V215.25z M484.451,220.102c0.65,0,1.139-0.16,1.465-0.48   c0.324-0.32,0.488-0.75,0.488-1.287c0-0.568-0.176-1.01-0.527-1.325c-0.352-0.315-0.838-0.473-1.457-0.473h-1.953v3.565H484.451z"/>
	<path fill="#FFFFFF" d="M496.215,224.534c-0.082,0.093-0.207,0.212-0.371,0.357c-0.166,0.145-0.381,0.284-0.645,0.418   c-0.263,0.134-0.572,0.25-0.93,0.349c-0.355,0.098-0.762,0.147-1.217,0.147c-0.558,0-1.069-0.093-1.534-0.279   s-0.862-0.45-1.193-0.791s-0.587-0.749-0.767-1.225c-0.182-0.475-0.271-1.002-0.271-1.581c0-0.527,0.088-1.02,0.264-1.48   c0.175-0.46,0.423-0.857,0.743-1.193s0.7-0.602,1.14-0.798s0.922-0.294,1.449-0.294c0.619,0,1.152,0.119,1.596,0.356   c0.445,0.238,0.809,0.553,1.094,0.945c0.283,0.393,0.493,0.842,0.627,1.349c0.135,0.506,0.202,1.033,0.202,1.581h-5.688   c0.01,0.32,0.08,0.615,0.209,0.883c0.129,0.269,0.303,0.501,0.52,0.698s0.465,0.351,0.744,0.465s0.573,0.17,0.883,0.17   c0.609,0,1.111-0.103,1.504-0.31c0.393-0.207,0.677-0.408,0.853-0.604L496.215,224.534z M494.959,221.357   c-0.041-0.558-0.237-1.033-0.588-1.426c-0.352-0.393-0.848-0.589-1.488-0.589c-0.331,0-0.628,0.057-0.892,0.17   c-0.263,0.114-0.488,0.264-0.675,0.45c-0.186,0.186-0.33,0.4-0.434,0.643c-0.104,0.243-0.16,0.494-0.17,0.752H494.959z"/>
	<path fill="#FFFFFF" d="M497.951,215.25h1.395v10.338h-1.395V215.25z"/>
	<path fill="#FFFFFF" d="M507.84,224.534c-0.082,0.093-0.207,0.212-0.371,0.357c-0.166,0.145-0.381,0.284-0.645,0.418   c-0.263,0.134-0.572,0.25-0.93,0.349c-0.355,0.098-0.762,0.147-1.217,0.147c-0.558,0-1.069-0.093-1.534-0.279   s-0.862-0.45-1.193-0.791s-0.587-0.749-0.767-1.225c-0.182-0.475-0.271-1.002-0.271-1.581c0-0.527,0.088-1.02,0.264-1.48   c0.175-0.46,0.423-0.857,0.743-1.193s0.7-0.602,1.14-0.798s0.922-0.294,1.449-0.294c0.619,0,1.152,0.119,1.596,0.356   c0.445,0.238,0.809,0.553,1.094,0.945c0.283,0.393,0.493,0.842,0.627,1.349c0.135,0.506,0.202,1.033,0.202,1.581h-5.688   c0.01,0.32,0.08,0.615,0.209,0.883c0.129,0.269,0.303,0.501,0.52,0.698s0.465,0.351,0.744,0.465s0.573,0.17,0.883,0.17   c0.609,0,1.111-0.103,1.504-0.31c0.393-0.207,0.677-0.408,0.853-0.604L507.84,224.534z M506.584,221.357   c-0.041-0.558-0.237-1.033-0.588-1.426c-0.352-0.393-0.848-0.589-1.488-0.589c-0.331,0-0.628,0.057-0.892,0.17   c-0.263,0.114-0.488,0.264-0.675,0.45c-0.186,0.186-0.33,0.4-0.434,0.643c-0.104,0.243-0.16,0.494-0.17,0.752H506.584z"/>
	<path fill="#FFFFFF" d="M514.087,224.72c-0.269,0.362-0.623,0.63-1.062,0.806c-0.439,0.176-0.892,0.264-1.356,0.264   c-0.3,0-0.597-0.039-0.892-0.116c-0.295-0.078-0.562-0.207-0.806-0.388c-0.243-0.181-0.439-0.413-0.589-0.697   c-0.15-0.284-0.225-0.633-0.225-1.046c0-0.775,0.271-1.395,0.813-1.86c0.542-0.465,1.325-0.698,2.349-0.698   c0.164,0,0.34,0.005,0.526,0.016s0.362,0.021,0.526,0.031c0.166,0.011,0.311,0.021,0.435,0.031s0.212,0.021,0.264,0.031v-0.263   c0-0.538-0.163-0.922-0.488-1.155s-0.767-0.349-1.325-0.349c-0.548,0-0.982,0.075-1.303,0.225s-0.588,0.302-0.805,0.457   l-0.652-0.945c0.125-0.104,0.274-0.207,0.45-0.31c0.176-0.103,0.382-0.199,0.62-0.287c0.237-0.088,0.506-0.16,0.806-0.217   c0.3-0.057,0.646-0.085,1.038-0.085c0.931,0,1.662,0.225,2.193,0.674c0.533,0.45,0.799,1.088,0.799,1.915v4.2   c0,0.248,0.005,0.46,0.016,0.636h-1.303L514.087,224.72z M514.071,222.178c-0.042-0.01-0.122-0.023-0.24-0.039   c-0.119-0.016-0.256-0.028-0.411-0.039c-0.154-0.01-0.32-0.021-0.496-0.031s-0.346-0.016-0.512-0.016   c-0.393,0-0.71,0.047-0.953,0.14c-0.242,0.093-0.434,0.209-0.573,0.349c-0.14,0.14-0.235,0.294-0.286,0.465   c-0.053,0.17-0.078,0.333-0.078,0.488c0,0.393,0.135,0.689,0.403,0.891s0.641,0.302,1.116,0.302c0.268,0,0.523-0.046,0.768-0.14   c0.242-0.093,0.457-0.217,0.643-0.372c0.186-0.155,0.336-0.335,0.449-0.542c0.113-0.207,0.171-0.418,0.171-0.635V222.178z"/>
	<path fill="#FFFFFF" d="M517.775,223.775c0.258,0.258,0.568,0.465,0.93,0.62c0.362,0.155,0.781,0.232,1.256,0.232   c0.465,0,0.853-0.075,1.162-0.225c0.311-0.15,0.465-0.385,0.465-0.706c0-0.165-0.033-0.307-0.1-0.426   c-0.068-0.119-0.182-0.225-0.342-0.317c-0.16-0.093-0.371-0.179-0.635-0.256c-0.264-0.078-0.592-0.163-0.984-0.256   c-0.279-0.062-0.556-0.145-0.83-0.248c-0.273-0.103-0.519-0.24-0.736-0.411c-0.217-0.17-0.393-0.377-0.526-0.62   c-0.134-0.243-0.202-0.535-0.202-0.875c0-0.352,0.08-0.659,0.24-0.922c0.16-0.264,0.375-0.486,0.645-0.667   c0.268-0.181,0.57-0.318,0.906-0.411c0.336-0.093,0.685-0.14,1.047-0.14c0.609,0,1.133,0.08,1.572,0.24s0.824,0.385,1.155,0.674   l-0.76,0.961c-0.217-0.196-0.488-0.362-0.813-0.496c-0.326-0.134-0.705-0.202-1.14-0.202c-0.444,0-0.801,0.073-1.069,0.217   c-0.27,0.145-0.402,0.382-0.402,0.713c0,0.31,0.178,0.54,0.534,0.69s0.823,0.292,1.403,0.426c0.34,0.083,0.658,0.178,0.953,0.287   c0.294,0.108,0.553,0.248,0.774,0.418s0.397,0.38,0.526,0.628c0.13,0.248,0.194,0.548,0.194,0.899c0,0.362-0.083,0.68-0.248,0.953   c-0.165,0.274-0.388,0.504-0.667,0.69c-0.278,0.186-0.599,0.325-0.961,0.418c-0.361,0.093-0.738,0.139-1.131,0.139   c-1.364,0-2.387-0.367-3.068-1.1L517.775,223.775z"/>
	<path fill="#FFFFFF" d="M531.199,224.534c-0.084,0.093-0.207,0.212-0.373,0.357c-0.165,0.145-0.379,0.284-0.643,0.418   s-0.574,0.25-0.93,0.349c-0.357,0.098-0.763,0.147-1.217,0.147c-0.559,0-1.07-0.093-1.535-0.279s-0.863-0.45-1.193-0.791   c-0.331-0.341-0.586-0.749-0.768-1.225c-0.181-0.475-0.271-1.002-0.271-1.581c0-0.527,0.088-1.02,0.264-1.48   s0.424-0.857,0.744-1.193s0.7-0.602,1.14-0.798c0.438-0.196,0.922-0.294,1.449-0.294c0.62,0,1.151,0.119,1.597,0.356   c0.443,0.238,0.809,0.553,1.092,0.945c0.285,0.393,0.494,0.842,0.629,1.349c0.134,0.506,0.201,1.033,0.201,1.581h-5.689   c0.011,0.32,0.08,0.615,0.21,0.883c0.129,0.269,0.302,0.501,0.519,0.698c0.218,0.196,0.466,0.351,0.744,0.465   c0.279,0.114,0.574,0.17,0.885,0.17c0.609,0,1.109-0.103,1.503-0.31c0.393-0.207,0.677-0.408,0.853-0.604L531.199,224.534z    M529.943,221.357c-0.041-0.558-0.238-1.033-0.59-1.426c-0.352-0.393-0.847-0.589-1.487-0.589c-0.331,0-0.628,0.057-0.892,0.17   c-0.264,0.114-0.488,0.264-0.674,0.45s-0.331,0.4-0.434,0.643c-0.104,0.243-0.161,0.494-0.172,0.752H529.943z"/>
</g>
</svg>