<?xml version="1.0" encoding="utf-8"?>
<!-- Generator: Adobe Illustrator 14.0.0, SVG Export Plug-In . SVG Version: 6.00 Build 43363)  -->
<!DOCTYPE svg PUBLIC "-//W3C//DTD SVG 1.1//EN" "http://www.w3.org/Graphics/SVG/1.1/DTD/svg11.dtd">
<svg version="1.1" id="Layer_1" xmlns="http://www.w3.org/2000/svg" xmlns:xlink="http://www.w3.org/1999/xlink" x="0px" y="0px"
	 width="35px" height="35px" viewBox="-7.5 -6.5 35 35" enable-background="new -7.5 -6.5 35 35" xml:space="preserve">
<g>
	<g>
		<path fill="#9B1417" d="M10.237,28.285c9.515,0,17.228-7.715,17.228-17.229c0-9.514-7.713-17.229-17.228-17.229
			c-9.514,0-17.23,7.715-17.23,17.229C-6.993,20.57,0.723,28.285,10.237,28.285"/>
	</g>
</g>
<path fill="#FFFFFF" d="M10.515,17.682c2.508,0,4.249-1.761,4.59-4.329c0.347-2.572-0.925-4.334-3.435-4.334
	c-2.509,0-4.248,1.761-4.592,4.334C6.735,15.921,8.005,17.682,10.515,17.682 M4.5-1.806h5.018l-1.14,8.431h0.066
	c1.359-1.655,3.377-2.253,5.451-2.253c4.619,0,6.844,4.366,6.211,9.12c-0.692,5.177-4.36,8.839-9.176,8.839
	c-2.276,0-4.022-1.444-4.627-2.677H6.236l-0.3,2.252H1.321L4.5-1.806z"/>
</svg>
