<?xml version="1.0" encoding="utf-8"?>
<!-- Generator: Adobe Illustrator 16.0.4, SVG Export Plug-In . SVG Version: 6.00 Build 0)  -->
<!DOCTYPE svg PUBLIC "-//W3C//DTD SVG 1.1//EN" "http://www.w3.org/Graphics/SVG/1.1/DTD/svg11.dtd">
<svg version="1.1" id="Layer_1" xmlns="http://www.w3.org/2000/svg" xmlns:xlink="http://www.w3.org/1999/xlink" x="0px" y="0px"
	 width="200px" height="200px" viewBox="0 0 200 200" enable-background="new 0 0 200 200" xml:space="preserve">
<g>
	<path fill="#FFFFFF" d="M0.02,87.886h9.24c1.073,0,2.153,0.076,3.238,0.227c1.085,0.152,2.059,0.455,2.922,0.91
		s1.563,1.091,2.1,1.908c0.537,0.817,0.805,1.902,0.805,3.255c0,1.4-0.391,2.561-1.173,3.482c-0.782,0.922-1.814,1.581-3.097,1.978
		v0.07c0.816,0.117,1.557,0.345,2.222,0.683s1.237,0.77,1.715,1.295c0.478,0.525,0.845,1.138,1.103,1.838
		c0.256,0.699,0.385,1.447,0.385,2.24c0,1.307-0.28,2.396-0.84,3.271s-1.284,1.582-2.17,2.118c-0.887,0.537-1.885,0.922-2.993,1.155
		c-1.108,0.232-2.211,0.35-3.308,0.35H0.02V87.886z M5.48,97.791h3.955c0.42,0,0.834-0.046,1.243-0.14
		c0.408-0.093,0.775-0.245,1.102-0.455c0.327-0.21,0.589-0.49,0.788-0.84s0.298-0.77,0.298-1.26c0-0.513-0.111-0.939-0.333-1.278
		c-0.222-0.338-0.508-0.6-0.858-0.787c-0.35-0.187-0.747-0.321-1.19-0.403c-0.443-0.082-0.875-0.123-1.295-0.123H5.48V97.791z
		 M5.48,108.046h4.9c0.42,0,0.846-0.046,1.278-0.14c0.431-0.094,0.822-0.257,1.172-0.49c0.35-0.232,0.635-0.537,0.857-0.91
		c0.222-0.373,0.333-0.828,0.333-1.365c0-0.582-0.146-1.055-0.438-1.417c-0.292-0.362-0.66-0.636-1.103-0.823
		c-0.443-0.186-0.922-0.314-1.435-0.385c-0.514-0.07-0.992-0.104-1.435-0.104H5.48V108.046z"/>
	<path fill="#FFFFFF" d="M38.135,109.727c-0.84,1.072-1.902,1.901-3.185,2.484c-1.284,0.583-2.614,0.875-3.99,0.875
		c-1.307,0-2.537-0.21-3.692-0.63c-1.155-0.42-2.158-1.021-3.01-1.803c-0.852-0.781-1.522-1.72-2.013-2.817
		c-0.49-1.096-0.735-2.321-0.735-3.675c0-1.353,0.245-2.578,0.735-3.675c0.49-1.096,1.161-2.035,2.013-2.817
		c0.852-0.781,1.855-1.382,3.01-1.802c1.155-0.42,2.386-0.63,3.692-0.63c1.213,0,2.316,0.21,3.308,0.63
		c0.992,0.42,1.832,1.021,2.52,1.802c0.688,0.782,1.219,1.721,1.593,2.817c0.373,1.097,0.56,2.323,0.56,3.675v1.646H26.76
		c0.21,1.003,0.665,1.802,1.365,2.396c0.7,0.596,1.563,0.893,2.59,0.893c0.863,0,1.592-0.192,2.188-0.577
		c0.595-0.386,1.114-0.88,1.557-1.487L38.135,109.727z M33.689,102.236c0.023-0.887-0.268-1.646-0.875-2.275
		s-1.388-0.945-2.345-0.945c-0.583,0-1.097,0.093-1.54,0.28c-0.443,0.187-0.822,0.426-1.138,0.718
		c-0.315,0.292-0.56,0.63-0.735,1.015c-0.175,0.386-0.274,0.788-0.297,1.208H33.689z"/>
	<path fill="#FFFFFF" d="M53.709,99.856h-4.62v5.669c0,0.468,0.023,0.893,0.07,1.278c0.046,0.385,0.151,0.718,0.315,0.997
		c0.163,0.28,0.414,0.496,0.752,0.648c0.338,0.151,0.788,0.227,1.348,0.227c0.28,0,0.647-0.029,1.103-0.088
		c0.455-0.057,0.799-0.191,1.032-0.402v4.375c-0.583,0.211-1.19,0.351-1.82,0.42c-0.63,0.07-1.249,0.105-1.855,0.105
		c-0.887,0-1.704-0.094-2.45-0.279c-0.747-0.188-1.4-0.484-1.96-0.893s-0.998-0.939-1.312-1.594
		c-0.315-0.652-0.473-1.445-0.473-2.379v-8.085h-3.36v-4.2h3.36v-5.04h5.25v5.04h4.62V99.856z"/>
	<path fill="#FFFFFF" d="M67.044,110.531h-0.07c-0.583,0.91-1.359,1.563-2.328,1.96s-1.989,0.595-3.062,0.595
		c-0.793,0-1.557-0.111-2.292-0.332c-0.735-0.222-1.382-0.555-1.942-0.998s-1.003-0.991-1.33-1.645
		c-0.327-0.653-0.49-1.412-0.49-2.275c0-0.98,0.18-1.809,0.542-2.484c0.361-0.678,0.852-1.236,1.47-1.681
		c0.618-0.442,1.324-0.788,2.118-1.032c0.793-0.245,1.615-0.426,2.467-0.543c0.852-0.116,1.703-0.186,2.555-0.209
		c0.852-0.023,1.639-0.035,2.362-0.035c0-0.934-0.333-1.674-0.997-2.223c-0.665-0.548-1.453-0.822-2.363-0.822
		c-0.863,0-1.651,0.181-2.362,0.542c-0.712,0.362-1.348,0.857-1.908,1.487l-2.8-2.87c0.98-0.91,2.123-1.592,3.43-2.047
		s2.66-0.683,4.06-0.683c1.54,0,2.806,0.193,3.798,0.578c0.991,0.385,1.785,0.951,2.38,1.698c0.595,0.747,1.009,1.662,1.242,2.747
		c0.233,1.085,0.35,2.339,0.35,3.763v8.645h-4.83V110.531z M65.75,105.211c-0.397,0-0.893,0.018-1.487,0.053
		c-0.595,0.035-1.167,0.135-1.715,0.297c-0.549,0.164-1.015,0.409-1.4,0.735c-0.385,0.327-0.577,0.782-0.577,1.365
		c0,0.63,0.268,1.097,0.805,1.399c0.537,0.305,1.097,0.455,1.68,0.455c0.513,0,1.009-0.07,1.487-0.209
		c0.478-0.141,0.904-0.338,1.278-0.596c0.373-0.256,0.67-0.583,0.892-0.98c0.222-0.396,0.333-0.862,0.333-1.399v-1.12H65.75z"/>
	<path fill="#FFFFFF" d="M75.829,87.886h9.24c1.073,0,2.153,0.076,3.238,0.227c1.085,0.152,2.059,0.455,2.922,0.91
		s1.563,1.091,2.1,1.908c0.537,0.817,0.805,1.902,0.805,3.255c0,1.4-0.391,2.561-1.173,3.482c-0.782,0.922-1.814,1.581-3.097,1.978
		v0.07c0.816,0.117,1.557,0.345,2.222,0.683s1.237,0.77,1.715,1.295c0.478,0.525,0.845,1.138,1.103,1.838
		c0.256,0.699,0.385,1.447,0.385,2.24c0,1.307-0.28,2.396-0.84,3.271s-1.284,1.582-2.17,2.118c-0.887,0.537-1.885,0.922-2.993,1.155
		c-1.108,0.232-2.211,0.35-3.308,0.35h-10.15V87.886z M81.289,97.791h3.955c0.42,0,0.834-0.046,1.243-0.14
		c0.408-0.093,0.775-0.245,1.102-0.455c0.327-0.21,0.589-0.49,0.788-0.84s0.298-0.77,0.298-1.26c0-0.513-0.111-0.939-0.333-1.278
		c-0.222-0.338-0.508-0.6-0.858-0.787c-0.35-0.187-0.747-0.321-1.19-0.403c-0.443-0.082-0.875-0.123-1.295-0.123h-3.71V97.791z
		 M81.289,108.046h4.9c0.42,0,0.846-0.046,1.278-0.14c0.431-0.094,0.822-0.257,1.172-0.49c0.35-0.232,0.635-0.537,0.857-0.91
		c0.222-0.373,0.333-0.828,0.333-1.365c0-0.582-0.146-1.055-0.438-1.417c-0.292-0.362-0.66-0.636-1.103-0.823
		c-0.443-0.186-0.922-0.314-1.435-0.385c-0.514-0.07-0.992-0.104-1.435-0.104h-4.13V108.046z"/>
	<path fill="#FFFFFF" d="M97.214,104.161c0-1.353,0.245-2.578,0.735-3.675c0.49-1.096,1.161-2.035,2.013-2.817
		c0.851-0.781,1.855-1.382,3.01-1.802c1.154-0.42,2.385-0.63,3.691-0.63s2.539,0.21,3.693,0.63c1.154,0.42,2.158,1.021,3.01,1.802
		c0.852,0.782,1.523,1.721,2.012,2.817c0.49,1.097,0.736,2.323,0.736,3.675c0,1.354-0.246,2.579-0.736,3.675
		c-0.488,1.098-1.16,2.036-2.012,2.817c-0.852,0.782-1.855,1.383-3.01,1.803s-2.387,0.63-3.693,0.63s-2.537-0.21-3.691-0.63
		c-1.155-0.42-2.159-1.021-3.01-1.803c-0.852-0.781-1.522-1.72-2.013-2.817C97.459,106.74,97.214,105.515,97.214,104.161z
		 M102.464,104.161c0,1.283,0.367,2.321,1.102,3.114c0.736,0.794,1.768,1.19,3.098,1.19s2.363-0.396,3.098-1.19
		c0.736-0.793,1.104-1.831,1.104-3.114s-0.367-2.321-1.104-3.115c-0.734-0.793-1.768-1.19-3.098-1.19s-2.361,0.397-3.098,1.19
		C102.831,101.84,102.464,102.878,102.464,104.161z"/>
	<path fill="#FFFFFF" d="M128.818,100.661c-0.771-0.957-1.785-1.435-3.046-1.435c-0.443,0-0.875,0.105-1.295,0.315
		s-0.63,0.572-0.63,1.085c0,0.42,0.216,0.729,0.647,0.928s0.98,0.374,1.646,0.524c0.665,0.152,1.376,0.315,2.135,0.49
		c0.758,0.176,1.47,0.449,2.135,0.822c0.665,0.374,1.213,0.881,1.646,1.523c0.432,0.642,0.647,1.499,0.647,2.572
		c0,1.097-0.24,2-0.718,2.713c-0.479,0.711-1.091,1.283-1.838,1.715s-1.587,0.734-2.52,0.91c-0.934,0.174-1.855,0.262-2.765,0.262
		c-1.19,0-2.393-0.17-3.605-0.508c-1.214-0.338-2.24-0.938-3.08-1.803l3.186-3.534c0.489,0.606,1.032,1.067,1.627,1.382
		c0.595,0.315,1.289,0.473,2.083,0.473c0.606,0,1.154-0.088,1.645-0.262c0.49-0.176,0.735-0.496,0.735-0.963
		c0-0.443-0.216-0.775-0.647-0.998c-0.433-0.221-0.98-0.408-1.646-0.56s-1.377-0.315-2.135-0.489
		c-0.759-0.176-1.47-0.438-2.135-0.788s-1.214-0.846-1.646-1.487s-0.647-1.5-0.647-2.572c0-1.003,0.204-1.867,0.612-2.59
		s0.945-1.318,1.61-1.785c0.665-0.466,1.429-0.811,2.293-1.033c0.862-0.221,1.737-0.333,2.625-0.333c1.119,0,2.251,0.164,3.395,0.49
		c1.143,0.327,2.111,0.91,2.905,1.75L128.818,100.661z"/>
	<path fill="#FFFFFF" d="M146.983,99.856h-4.62v5.669c0,0.468,0.022,0.893,0.069,1.278c0.047,0.385,0.151,0.718,0.315,0.997
		c0.163,0.28,0.414,0.496,0.752,0.648c0.339,0.151,0.788,0.227,1.348,0.227c0.28,0,0.647-0.029,1.103-0.088
		c0.455-0.057,0.799-0.191,1.033-0.402v4.375c-0.584,0.211-1.19,0.351-1.82,0.42c-0.63,0.07-1.249,0.105-1.855,0.105
		c-0.887,0-1.703-0.094-2.449-0.279c-0.747-0.188-1.4-0.484-1.96-0.893c-0.561-0.408-0.998-0.939-1.312-1.594
		c-0.315-0.652-0.473-1.445-0.473-2.379v-8.085h-3.36v-4.2h3.36v-5.04h5.25v5.04h4.62V99.856z"/>
	<path fill="#FFFFFF" d="M149.013,104.161c0-1.353,0.245-2.578,0.735-3.675c0.49-1.096,1.16-2.035,2.013-2.817
		c0.852-0.781,1.854-1.382,3.01-1.802c1.155-0.42,2.386-0.63,3.692-0.63s2.538,0.21,3.692,0.63c1.155,0.42,2.158,1.021,3.011,1.802
		c0.851,0.782,1.522,1.721,2.012,2.817c0.49,1.097,0.735,2.323,0.735,3.675c0,1.354-0.245,2.579-0.735,3.675
		c-0.489,1.098-1.161,2.036-2.012,2.817c-0.853,0.782-1.855,1.383-3.011,1.803c-1.154,0.42-2.386,0.63-3.692,0.63
		s-2.537-0.21-3.692-0.63s-2.158-1.021-3.01-1.803c-0.853-0.781-1.522-1.72-2.013-2.817
		C149.258,106.74,149.013,105.515,149.013,104.161z M154.263,104.161c0,1.283,0.368,2.321,1.103,3.114
		c0.735,0.794,1.768,1.19,3.098,1.19s2.362-0.396,3.098-1.19c0.735-0.793,1.103-1.831,1.103-3.114s-0.367-2.321-1.103-3.115
		c-0.735-0.793-1.768-1.19-3.098-1.19s-2.362,0.397-3.098,1.19C154.631,101.84,154.263,102.878,154.263,104.161z"/>
	<path fill="#FFFFFF" d="M170.993,95.656h5.039v2.31h0.07c0.163-0.326,0.396-0.653,0.7-0.98c0.303-0.326,0.665-0.618,1.085-0.875
		c0.42-0.256,0.898-0.466,1.435-0.63c0.537-0.163,1.12-0.245,1.75-0.245c1.33,0,2.403,0.205,3.221,0.613
		c0.816,0.408,1.452,0.975,1.907,1.697c0.455,0.724,0.764,1.575,0.928,2.555c0.163,0.98,0.245,2.042,0.245,3.185v9.38h-5.25v-8.33
		c0-0.49-0.018-0.998-0.053-1.522s-0.14-1.009-0.315-1.452c-0.175-0.443-0.443-0.805-0.805-1.085c-0.362-0.28-0.881-0.42-1.558-0.42
		s-1.225,0.123-1.645,0.368s-0.741,0.571-0.963,0.979s-0.367,0.87-0.438,1.383c-0.07,0.514-0.104,1.051-0.104,1.609v8.471h-5.25
		V95.656z"/>
</g>
</svg>
