<?xml version="1.0" encoding="utf-8"?>
<!-- Generator: Adobe Illustrator 14.0.0, SVG Export Plug-In  -->
<!DOCTYPE svg PUBLIC "-//W3C//DTD SVG 1.1//EN" "http://www.w3.org/Graphics/SVG/1.1/DTD/svg11.dtd" [
	<!ENTITY ns_flows "http://ns.adobe.com/Flows/1.0/">
]>
<svg version="1.1"
	 xmlns="http://www.w3.org/2000/svg" xmlns:xlink="http://www.w3.org/1999/xlink" xmlns:a="http://ns.adobe.com/AdobeSVGViewerExtensions/3.0/"
	 x="0px" y="0px" width="26px" height="50px" viewBox="0 0 26 50" enable-background="new 0 0 26 50" xml:space="preserve">
<defs>
</defs>
<path fill="#D1D1D1" d="M0,25.011c0,1.06,0.366,2.041,0.986,2.854c0.227,0.24,0.463,0.494,0.712,0.758
	c6.223,6.635,18.952,20.209,18.954,20.209c1.336,1.425,3.371,1.564,4.547,0.312c1.174-1.252,1.043-3.424-0.293-4.849L9.927,28.327
	L6.807,25c0.922-0.985,1.981-2.113,3.109-3.315c6.357-6.779,14.99-15.983,14.99-15.983c1.336-1.424,1.467-3.595,0.293-4.847
	c-1.174-1.253-3.211-1.113-4.547,0.312L1.486,21.601L1.17,21.937C0.439,22.79,0,23.854,0,25.011z"/>
<path fill="#FFFFFF" d="M23.193,49c-0.646,0-1.305-0.311-1.816-0.855C21.275,48.036,1.752,27.219,1.752,27.219
	C1.26,26.561,1,25.797,1,25.011c0-0.876,0.322-1.715,0.898-2.389L21.381,1.852C21.889,1.311,22.548,1,23.193,1
	c0.352,0,0.858,0.093,1.275,0.539c0.805,0.858,0.672,2.452-0.293,3.479L24.255,5c-0.353,0.311-0.881,0.874-1.787,1.839L5.436,25
	l18.741,19.98c0.964,1.028,1.099,2.621,0.294,3.479C24.051,48.907,23.545,49,23.193,49C23.191,49,23.191,49,23.193,49z"/>
</svg>
