<?xml version="1.0" encoding="utf-8"?>
<!-- Generator: Adobe Illustrator 14.0.0, SVG Export Plug-In  -->
<!DOCTYPE svg PUBLIC "-//W3C//DTD SVG 1.1//EN" "http://www.w3.org/Graphics/SVG/1.1/DTD/svg11.dtd" [
	<!ENTITY ns_flows "http://ns.adobe.com/Flows/1.0/">
]>
<svg version="1.1"
	 xmlns="http://www.w3.org/2000/svg" xmlns:xlink="http://www.w3.org/1999/xlink" xmlns:a="http://ns.adobe.com/AdobeSVGViewerExtensions/3.0/"
	 x="0px" y="0px" width="26px" height="50px" viewBox="0 0 26 50" enable-background="new 0 0 26 50" xml:space="preserve">
<defs>
</defs>
<path fill="#D1D1D1" d="M24.83,21.936L24.513,21.6L5.348,1.167C4.012-0.258,1.975-0.398,0.801,0.855
	c-1.174,1.252-1.043,3.423,0.293,4.847c0,0,8.632,9.204,14.99,15.983c1.128,1.202,2.187,2.33,3.109,3.315l-3.12,3.326L1.094,44.296
	c-1.336,1.424-1.467,3.596-0.293,4.848c1.175,1.252,3.211,1.113,4.547-0.312c0.001,0,12.731-13.574,18.954-20.209
	c0.249-0.264,0.485-0.518,0.711-0.758C25.634,27.052,26,26.07,26,25.011C26,23.853,25.56,22.789,24.83,21.936z"/>
<path fill="#FFFFFF" d="M2.807,49c-0.352,0-0.858-0.094-1.277-0.54c-0.805-0.858-0.67-2.451,0.293-3.479L20.565,25L3.532,6.839
	C2.626,5.874,2.098,5.311,1.745,5l0.079,0.018C0.86,3.991,0.726,2.397,1.531,1.539C1.948,1.093,2.455,1,2.807,1
	c0.645,0,1.305,0.31,1.812,0.851l19.482,20.771C24.678,23.296,25,24.135,25,25.011c0,0.786-0.26,1.549-0.752,2.208
	c0,0-19.523,20.816-19.625,20.925C4.111,48.689,3.452,49,2.807,49C2.808,49,2.808,49,2.807,49z"/>
</svg>
