<?xml version="1.0" encoding="utf-8"?>
<!-- Generator: Adobe Illustrator 17.0.0, SVG Export Plug-In . SVG Version: 6.00 Build 0)  -->
<!DOCTYPE svg PUBLIC "-//W3C//DTD SVG 1.1//EN" "http://www.w3.org/Graphics/SVG/1.1/DTD/svg11.dtd">
<svg version="1.1" id="Layer_1" xmlns="http://www.w3.org/2000/svg" xmlns:xlink="http://www.w3.org/1999/xlink" x="0px" y="0px"
	 viewBox="0 0 218.394 200.954" enable-background="new 0 0 218.394 200.954"
	 xml:space="preserve">
<g>
	<path fill-rule="evenodd" clip-rule="evenodd" fill="#231F20" d="M156,52.177l-0.759-0.697c-3.736,3.988-5.382,5.065-8.169,5.065
		c-2.089,0-4.559-1.33-7.915-4.496v-9.562L156,29.634l-11.523-11.398c-5.003,3.989-5.826,4.685-9.436,7.535
		c-2.026,1.519-3.166,2.216-4.432,2.785c0.19,1.394,0.443,3.42,0.443,4.812v21.403c-1.963,1.837-3.862,2.661-5.256,2.661
		c-1.899,0-3.292-1.14-3.292-3.167V25.644c-1.14-3.61-3.357-5.952-7.725-7.471l-10.638,8.611V6.649c0-2.912,1.647-5.573,3.166-6.269
		V0c-4.306,0-7.345,2.85-8.675,6.078l-1.837-3.863l-0.697,0.127v51.479c-4.242,2.217-8.801,4.686-13.804,4.686
		c-0.95,0-1.772,0-2.722-0.127V14.374c2.216,0.253,3.609,0.379,4.939,0.379c1.963,0,3.23-0.379,4.179-0.823l5.763-11.715l-0.95-0.19
		c-2.217,4.432-3.42,5.129-8.168,5.129c-2.216,0-7.156-0.57-12.095-1.203c-4.686-0.571-9.434-1.14-11.904-1.14
		c-7.281,0-11.461,5.003-11.461,10.194c0,2.09,0.697,4.18,2.09,6.079l0.823-0.633c-0.95-1.14-1.52-2.66-1.52-3.926
		c0-2.152,1.647-3.989,6.079-3.989c1.773,0,7.978,0.569,13.804,1.012c-6.649,3.293-12.158,6.839-18.616,11.715
		c-2.786,3.735-4.179,8.547-4.179,13.487c0,12.601,9.562,26.278,30.774,26.278c6.205-3.482,15.324-8.738,15.324-8.738l8.421,7.598
		l5.825-5.762l-4.559-4.749V28.938c2.026-2.723,4.242-3.863,5.952-3.863c2.026,0,3.863,1.393,4.369,3.925v29.381
		c0.697,2.47,3.61,4.812,6.522,5.636l10.448-7.852l12.031,8.295L156,52.177L156,52.177z M148.591,33.369l-9.434,7.599v-16.4
		l0.317-0.317L148.591,33.369L148.591,33.369z M78.433,58.255c-5.89-0.697-10.891-2.913-14.628-6.333
		c7.219-5.254,8.865-8.294,8.865-14.12V14.057l0.254-0.253c2.343,0.253,3.609,0.38,5.509,0.506V58.255L78.433,58.255z
		 M65.071,43.502c0,3.545-0.57,5.635-2.47,7.282c-4.305-4.433-6.648-10.765-6.648-17.921c0-3.925,0.696-7.028,2.09-9.118
		c2.343-2.09,5.128-4.052,7.028-5.129v8.992V43.502L65.071,43.502z"/>
	<path fill-rule="evenodd" clip-rule="evenodd" fill="#231F20" d="M90.991,88.396l-13.424-7.345
		c-4.116,4.114-9.372,7.345-15.323,10.636c0.823,2.47,0.57,5.637,0.57,9.562c0,9.752,0.127,15.007-1.646,17.603l14.881,9.118
		c4.052-4.242,8.485-7.534,14.501-10.765c-0.507-1.519-0.633-3.038-0.633-4.432V96.12C89.916,91.245,90.422,89.471,90.991,88.396
		L90.991,88.396L90.991,88.396z M57.558,98.59l-10.447-6.903c3.989-2.469,5.256-3.165,6.712-4.242
		c2.406-1.71,3.103-2.786,3.103-3.862c0-0.76-0.317-2.279-2.216-5.129c-2.344-3.484-4.559-6.902-9.246-13.424
		c-6.522,4.431-10.132,7.092-17.034,12.474c-2.85,2.278-4.939,5.762-4.939,10.194c0,1.519,0.126,9.371,0.126,14.5
		c0,3.99-0.697,6.079-4.939,9.625c-10.132,0-16.211,6.522-16.211,13.108c0,2.785,0.887,5.699,3.04,8.041l0.697-0.697
		c-1.33-1.393-2.344-3.61-2.344-6.205c0-3.483,2.534-7.345,10.638-7.345c8.866,0,17.161,6.079,21.973,8.991
		c6.902-5.825,11.272-8.294,20.136-11.207v-14.881C56.608,100.553,56.926,99.54,57.558,98.59L57.558,98.59L57.558,98.59z
		 M33.117,69.018l-0.253-0.759c-4.939,0-7.599-0.57-10.195-1.013c-2.47-0.379-4.559-0.823-7.472-0.823
		c-7.725,0-12.728,3.989-12.728,10.384c0,2.723,0.57,4.243,2.344,6.206l0.697-0.697c-0.95-1.14-1.457-2.344-1.457-3.61
		c0-2.786,2.344-5.256,7.535-5.256c3.863,0,7.346,0.697,10.385,1.393c-6.522,4.812-10.511,8.295-10.511,18.489
		c-0.95-0.38-2.217-0.57-3.99-0.57C2.533,92.765,0,95.993,0,99.16c0,1.392,0.316,2.912,1.266,3.989l0.823-0.444
		c-0.38-0.696-0.57-1.456-0.57-2.153c0-2.089,1.646-3.736,4.686-3.736c2.659,0,4.685,1.204,5.572,2.85
		c0,7.092-1.394,10.764-5.129,10.764v0.761c5.635,0,12.41-4.053,12.41-10.639V87.445C19.059,76.68,25.391,71.679,33.117,69.018
		L33.117,69.018L33.117,69.018z M81.494,121.765l-0.443,0.317l-9.245-5.572V86.876l9.687,5.51V121.765L81.494,121.765z
		 M48.44,87.256c0,2.533-2.343,3.862-10.194,8.738v-7.472c0-3.736,0.253-5.825,0.317-7.345H36.98
		c0.189,1.646,0.316,3.609,0.316,7.345v29.824c-4.875-2.912-10.891-5.952-17.159-6.395c5.952-3.418,11.904-7.978,11.904-14.627
		V82.696c0-4.685,1.899-7.535,6.775-11.714c3.862,5.698,5.383,8.168,8.421,13.36C47.933,85.482,48.44,86.686,48.44,87.256
		L48.44,87.256L48.44,87.256z M47.111,101.882l-0.19,16.844c-1.773,0.95-2.976,1.519-4.559,2.659
		c-1.33-0.823-2.597-1.647-4.116-2.533V97.07L47.111,101.882L47.111,101.882z"/>
	<path fill-rule="evenodd" clip-rule="evenodd" fill="#231F20" d="M218.394,119.296l-0.823-0.95l-3.989,3.419
		c-1.963,0-3.356-1.392-3.356-3.672c0-1.963,0.126-25.139,0.189-29.127c-1.519-3.039-3.482-5.382-7.914-6.902l-10.639,7.852
		c0-3.229-1.898-6.205-5.509-8.041l-6.205,5.256l3.292,3.482c0,0-0.126,20.58-0.126,23.999c0,3.419-2.47,5.826-2.47,5.826
		l9.688,7.155l5.192-6.332l-3.863-3.483V92.068c1.837-2.47,3.863-3.546,5.573-3.546c2.026,0,3.672,1.393,4.116,3.42
		c0.126,1.519,0.126,3.925,0.126,6.522c0,3.988,0,18.046-0.126,23.491c0.697,2.469,4.306,5.889,6.648,5.889L218.394,119.296
		L218.394,119.296z M175.905,117.649c-0.443-1.519-0.57-3.039-0.57-4.432V88.649l-12.727-7.156
		c-4.116,4.116-8.802,7.029-14.754,10.322c0.379,1.139,0.57,3.039,0.57,4.305v20.706c-1.837,2.026-3.737,3.166-5.382,3.166
		c-1.646,0-3.23-0.697-5.003-2.597c0-1.583,0.126-19.376,0.126-30.267h9.119v-2.217l-9.119-0.379c0,0,0.064-8.549,0.19-10.259
		h-1.013l-12.79,13.425c-5.446-0.823-9.562-2.787-15.514-6.903c-4.685,4.812-7.852,7.03-13.487,9.689
		c0.253,2.849,0.381,4.369,0.381,7.154c0,3.293,0,4.371-0.254,7.156l7.472,5.256l-7.029,7.345c-3.039,3.167-4.179,5.762-4.179,8.359
		c0,2.343,0.95,4.179,2.343,5.952l0.823-0.506c-0.95-1.394-1.519-3.04-1.519-4.559c0-2.406,1.266-4.559,4.876-4.559
		c3.673,0,7.599,2.342,11.587,5.509c4.433-4.116,7.725-6.775,12.664-9.246v-11.904c0-1.393,0.128-2.025,0.443-2.912l-7.472-5.065
		l9.562-10.385h4.495c0,10.638-0.126,24.315-0.126,25.835c0,1.899-0.381,4.179-1.647,6.079l10.638,7.852l9.119-8.295l13.234,8.612
		C166.09,123.411,170.206,120.246,175.905,117.649L175.905,117.649L175.905,117.649z M166.787,121.955l-0.443,0.38l-9.371-5.762
		V87.383l9.814,5.825V121.955L166.787,121.955z M118.473,93.587l-9.814,10.639l-4.306-3.167V86.876
		C108.785,89.915,111.382,91.561,118.473,93.587L118.473,93.587L118.473,93.587z M114.611,121.765
		c-3.357-3.038-8.042-5.635-15.514-5.635l11.461-12.157l3.927,3.482L114.611,121.765L114.611,121.765z"/>
	<path fill-rule="evenodd" clip-rule="evenodd" fill="#231F20" d="M128.992,160.746l-14.057-7.282
		c-4.306,3.989-8.548,6.901-14.184,9.751c0.38,1.013,0.697,5.383,0.697,8.043l0.063,19.312c-1.33,1.393-2.596,2.09-3.862,2.09
		c-1.33,0-2.724-0.57-4.497-1.837V144.03c0-2.724,1.647-5.89,3.736-5.89v-0.316c-4.306,0-8.167,1.963-9.307,5.255
		c-1.077-1.773-2.724-3.292-5.193-3.292l-0.063,0.506c1.393,0,2.785,3.925,2.785,7.662v37.613c0,3.609-0.506,5.445-1.9,7.472
		l9.372,6.775l8.802-7.598l13.551,8.168c5.129-4.812,8.168-7.599,13.93-11.018c-0.379-1.71-0.506-5.129-0.506-6.522v-16.59
		C128.359,163.405,128.485,161.886,128.992,160.746L128.992,160.746L128.992,160.746z M78.652,142.573l-1.014-0.887l-3.863,4.053
		c0,0-9.941-3.23-18.047-7.915c-11.081,8.421-19.503,14.374-30.393,22.099c-2.597,3.862-3.99,8.864-3.99,14.373
		c0,15.008,13.805,26.658,31.218,26.658c11.334-4.75,19.44-11.461,25.392-19.503c0.379-1.647,0.506-3.989,0.506-5.256
		c0-10.891-7.409-16.969-15.261-18.869L78.652,142.573L78.652,142.573z M120.317,193.61l-0.697,0.443l-9.941-6.269v-27.988
		l10.51,5.129L120.317,193.61L120.317,193.61z M66.24,152.64l-12.474,11.145v-17.223C58.199,148.334,62.188,150.425,66.24,152.64
		L66.24,152.64L66.24,152.64z M70.8,180.375c0,3.419-0.317,5.763-1.266,8.548c-3.356,3.419-8.422,5.382-14.121,5.382h-1.647v-30.078
		c1.013-0.126,1.963-0.189,2.913-0.189C65.1,164.039,70.8,171.637,70.8,180.375L70.8,180.375L70.8,180.375z M52.563,194.179
		c-6.206-0.443-10.954-2.533-14.754-5.699c5.762-3.989,9.372-6.016,9.372-12.094v-30.267l1.772-1.392
		c1.266,0.443,2.343,0.949,3.61,1.392V194.179L52.563,194.179z M39.963,180.755c0,3.165-0.95,5.128-3.04,6.775
		c-4.812-4.685-7.155-11.207-7.155-17.794c0-9.814,3.42-13.55,8.042-16.969c0.76-0.57,1.456-1.013,2.153-1.519V180.755
		L39.963,180.755z"/>
	<path fill-rule="evenodd" clip-rule="evenodd" fill="#231F20" d="M193.769,188.101l-0.697-0.697
		c-3.61,3.609-5.699,5.128-7.852,5.128c-2.089,0-4.052-1.266-8.294-4.558v-9.562l16.527-13.233
		c-3.862-3.293-11.841-11.208-11.841-11.208c-4.432,3.988-7.028,6.205-13.234,10.51c0.255,1.267,0.508,3.04,0.508,4.433v18.616
		c0,1.267-0.127,2.216-0.634,3.736l12.981,9.119L193.769,188.101L193.769,188.101z M162.045,190.317
		c-0.57-5.256-0.443-19.503-0.443-26.215c0-4.306-3.735-7.472-8.421-9.434l-9.561,8.041v-17.54c0-2.913,1.71-6.079,3.863-6.079
		v-0.57c-4.559,0-9.625,3.609-10.448,5.952c-1.013-1.774-3.483-2.787-5.825-2.787l-0.126,0.887c2.342,0,4.558,3.989,4.558,11.017
		c0,14.184-0.126,27.736-0.126,33.56c0,1.9-0.253,3.166-1.266,4.686l14.374,8.802C154.13,195.508,156.22,193.989,162.045,190.317
		L162.045,190.317z M185.917,169.167l-8.992,7.345v-16.716L185.917,169.167L185.917,169.167z M153.877,178.855
		c0,5.13-0.254,15.197-0.254,15.577l-0.316,0.316l-9.688-6.078v-23.809c1.519-2.343,3.61-3.546,5.445-3.546
		c2.28,0,3.862,1.646,4.686,3.864C153.751,166.128,153.877,172.333,153.877,178.855L153.877,178.855L153.877,178.855z"/>
</g>
</svg>
