<?xml version="1.0" encoding="utf-8"?>
<!-- Generator: Adobe Illustrator 14.0.0, SVG Export Plug-In . SVG Version: 6.00 Build 43363)  -->
<!DOCTYPE svg PUBLIC "-//W3C//DTD SVG 1.1//EN" "http://www.w3.org/Graphics/SVG/1.1/DTD/svg11.dtd">
<svg version="1.1" id="Layer_1" xmlns="http://www.w3.org/2000/svg" xmlns:xlink="http://www.w3.org/1999/xlink" x="0px" y="0px"
	 width="30px" height="30px" viewBox="0 0 30 30" enable-background="new 0 0 30 30" xml:space="preserve">
<path fill="#FFFFFF" d="M19.779,7.844H10.22c-1.307,0-2.376,1.069-2.376,2.376v9.561c0,1.307,1.069,2.376,2.376,2.376h9.559
	c1.308,0,2.377-1.069,2.377-2.376V10.22C22.156,8.913,21.087,7.844,19.779,7.844z M12.425,14.105h5.149
	c0.098,0.28,0.15,0.581,0.15,0.895c0,1.503-1.223,2.727-2.726,2.727S12.274,16.503,12.274,15
	C12.274,14.687,12.328,14.386,12.425,14.105z M20.367,14.106v3.578v1.789c0,0.491-0.403,0.895-0.895,0.895h-8.946
	c-0.492,0-0.895-0.403-0.895-0.895v-1.789v-3.578v-0.001h1.399c-0.065,0.288-0.099,0.587-0.099,0.895
	c0,2.243,1.825,4.066,4.067,4.066s4.067-1.824,4.067-4.066c0-0.307-0.034-0.607-0.1-0.895L20.367,14.106L20.367,14.106z
	 M20.367,10.975c0,0.246-0.201,0.447-0.447,0.447h-0.895c-0.246,0-0.447-0.201-0.447-0.447V10.08c0-0.246,0.201-0.447,0.447-0.447
	h0.895c0.246,0,0.447,0.201,0.447,0.447V10.975z"/>
</svg>
