<?xml version="1.0" encoding="utf-8"?>
<!-- Generator: Adobe Illustrator 17.0.2, SVG Export Plug-In . SVG Version: 6.00 Build 0)  -->
<!DOCTYPE svg PUBLIC "-//W3C//DTD SVG 1.1//EN" "http://www.w3.org/Graphics/SVG/1.1/DTD/svg11.dtd">
<svg version="1.1" id="Layer_1" xmlns="http://www.w3.org/2000/svg" xmlns:xlink="http://www.w3.org/1999/xlink" x="0px" y="0px"
	 width="30px" height="30px" viewBox="0 0 30 30" enable-background="new 0 0 30 30" xml:space="preserve">
<g>
	<path fill="#FFFFFF" d="M16.026,18.536c-0.958-0.078-1.347-0.544-2.098-1.01c-0.414,2.15-0.907,4.223-2.383,5.285
		c-0.466-3.238,0.674-5.699,1.192-8.29c-0.881-1.477,0.104-4.508,1.995-3.782c2.331,0.907-2.021,5.596,0.907,6.191
		c3.031,0.622,4.274-5.285,2.383-7.176c-2.72-2.772-7.927-0.052-7.279,3.886c0.155,0.958,1.166,1.269,0.389,2.591
		c-1.736-0.389-2.254-1.762-2.202-3.601c0.104-3.005,2.694-5.103,5.285-5.388c3.29-0.363,6.373,1.192,6.787,4.3
		C21.492,15.039,19.549,18.795,16.026,18.536"/>
</g>
</svg>
