<?xml version="1.0" encoding="utf-8"?>
<!-- Generator: Adobe Illustrator 17.0.0, SVG Export Plug-In . SVG Version: 6.00 Build 0)  -->
<!DOCTYPE svg PUBLIC "-//W3C//DTD SVG 1.1//EN" "http://www.w3.org/Graphics/SVG/1.1/DTD/svg11.dtd">
<svg version="1.1" id="Layer_1" xmlns="http://www.w3.org/2000/svg" xmlns:xlink="http://www.w3.org/1999/xlink" x="0px" y="0px"
	viewBox="0 0 89.3 89.3" enable-background="new 0 0 89.3 89.3" xml:space="preserve">
<g>
	<path fill="#FFFFFF" d="M49.3,60.1c-3.7-0.3-5.2-2.1-8.1-3.9c-1.6,8.3-3.5,16.3-9.2,20.4c-1.8-12.5,2.6-22,4.6-32
		C33.2,38.9,37,27.2,44.3,30c9,3.5-7.8,21.6,3.5,23.9c11.7,2.4,16.5-20.4,9.2-27.7c-10.5-10.7-30.6-0.2-28.1,15
		c0.6,3.7,4.5,4.9,1.5,10c-6.7-1.5-8.7-6.8-8.5-13.9c0.4-11.6,10.4-19.7,20.4-20.8c12.7-1.4,24.6,4.6,26.2,16.6
		C70.4,46.6,62.9,61.1,49.3,60.1"/>
</g>
</svg>
