<?xml version="1.0" encoding="utf-8"?>
<!-- Generator: Adobe Illustrator 17.0.0, SVG Export Plug-In . SVG Version: 6.00 Build 0)  -->
<!DOCTYPE svg PUBLIC "-//W3C//DTD SVG 1.1//EN" "http://www.w3.org/Graphics/SVG/1.1/DTD/svg11.dtd">
<svg version="1.1" id="Layer_1" xmlns="http://www.w3.org/2000/svg" xmlns:xlink="http://www.w3.org/1999/xlink" x="0px" y="0px"
	 viewBox="0 0 626.5 612" enable-background="new 0 0 626.5 612" xml:space="preserve">
<g>
	<g>
		<path fill="#F5F5DC" d="M275.926,357.171c0-10.958,1.036-34.046,3.052-42.009c2.027-7.985,4.775-15.035,8.21-21.128
			c3.435-6.116,7.298-11.274,11.499-15.486c4.235-4.223,8.514-8.064,12.907-11.499c4.088-3.131,8.064-6.116,11.994-8.92
			c3.897-2.827,7.332-5.71,10.316-8.695c2.985-2.962,5.383-6.093,7.253-9.382c1.915-3.3,2.827-7.129,2.827-11.521
			c0-4.989-1.183-9.145-3.514-12.434c-2.331-3.289-5.237-5.868-8.672-7.737c-3.48-1.892-7.377-3.21-11.769-3.987
			c-4.359-0.788-8.447-1.183-12.186-1.183c-10.958,0-21.579,2.669-31.929,7.985c-10.316,5.327-19.563,12.051-27.694,20.182
			l-45.973-54.431c14.101-14.382,30.6-25.881,49.543-34.497c18.91-8.616,40.567-12.907,64.973-12.907
			c14.101,0,27.537,1.723,40.376,5.158c12.839,3.458,24.259,8.92,34.26,16.421c10.012,7.523,17.986,17.13,23.955,28.877
			c5.924,11.724,8.897,25.746,8.897,41.998c0,9.089-0.991,17.13-3.018,24.18c-2.061,7.062-4.775,13.222-8.21,18.549
			c-3.48,5.327-7.298,10.08-11.533,14.303c-4.201,4.235-8.514,8.064-12.873,11.499c-4.696,4.088-9.472,7.906-14.326,11.521
			c-4.854,3.593-9.168,7.354-12.907,11.251c-3.739,3.919-6.802,8.379-9.168,13.391c-2.331,5.001-3.514,24.394-3.514,30.96v1.87
			h-72.767v-2.331H275.926z"/>
	</g>
	<circle fill="#fff" cx="313.25" cy="438.835" r="43.642"/>
</g>
</svg>
