<?xml version="1.0" encoding="utf-8"?>
<!-- Generator: Adobe Illustrator 17.0.0, SVG Export Plug-In . SVG Version: 6.00 Build 0)  -->
<!DOCTYPE svg PUBLIC "-//W3C//DTD SVG 1.1//EN" "http://www.w3.org/Graphics/SVG/1.1/DTD/svg11.dtd">
<svg version="1.1" id="Layer_1" xmlns="http://www.w3.org/2000/svg" xmlns:xlink="http://www.w3.org/1999/xlink" x="0px" y="0px"
	 viewBox="590.024 -1.383 541.94 613.277"
	 enable-background="new 590.024 -1.383 541.94 613.277" xml:space="preserve">
<path fill="#231F20" d="M1116.791,435.926l-75.371-45.437l64.628-18.044c10.719-2.992,16.986-14.109,13.99-24.832
	c-2.992-10.723-14.12-16.986-24.832-13.99l-101.235,28.261l-92.672-55.867l94.574-52.243l101.779,27.044
	c1.736,0.461,3.476,0.681,5.188,0.681c8.916,0,17.069-5.96,19.466-14.982c2.858-10.759-3.543-21.797-14.301-24.655l-61.153-16.249
	l74.699-41.264c9.743-5.385,13.278-17.647,7.897-27.39c-5.377-9.743-17.636-13.274-27.39-7.897l-76.075,42.024l16.516-62.148
	c2.862-10.759-3.543-21.797-14.302-24.655c-10.782-2.846-21.797,3.547-24.654,14.301l-26.444,99.505l-95.293,52.64l2.107-111.416
	l73.694-74.756c7.814-7.924,7.724-20.686-0.205-28.501c-7.92-7.818-20.683-7.731-28.501,0.205l-43.881,44.51l1.544-81.62
	c0.213-11.129-8.641-20.324-19.769-20.533c-10.916-0.22-20.32,8.641-20.533,19.769l-1.597,84.456l-46.31-45.65
	c-7.924-7.822-20.683-7.731-28.5,0.205c-7.814,7.924-7.724,20.686,0.205,28.501l73.555,72.51l-2.11,111.557l-95.975-57.858
	L717.461,111.56c-2.988-10.727-14.109-16.978-24.832-13.994c-10.719,2.996-16.986,14.112-13.99,24.836l16.573,59.377l-69.208-41.722
	c-9.538-5.747-21.919-2.685-27.666,6.857c-5.747,9.53-2.677,21.919,6.857,27.666l72.745,43.854l-63.4,17.698
	c-10.719,2.992-16.986,14.109-13.99,24.832c2.484,8.908,10.581,14.738,19.399,14.738c1.795,0,3.618-0.24,5.432-0.748l100.008-27.915
	l95.301,57.452l-95.35,52.672l-103.588-27.526c-10.766-2.846-21.797,3.547-24.654,14.301c-2.858,10.759,3.543,21.797,14.301,24.655
	l62.963,16.731l-73.927,40.837c-9.743,5.385-13.278,17.647-7.897,27.39c3.677,6.653,10.562,10.412,17.663,10.412
	c3.295,0,6.637-0.811,9.727-2.515l73.029-40.341l-16.051,60.41c-2.858,10.759,3.543,21.797,14.301,24.655
	c1.736,0.461,3.476,0.681,5.188,0.681c8.916,0,17.069-5.96,19.466-14.982l25.978-97.766l98.341-54.324l-2.101,111.083
	l-74.023,75.089c-7.814,7.924-7.724,20.686,0.205,28.5c3.925,3.874,9.038,5.802,14.148,5.802c5.204,0,10.408-2.004,14.353-6.007
	l44.21-44.844l-1.55,81.954c-0.213,11.129,8.641,20.324,19.769,20.533c0.13,0.004,0.26,0.004,0.39,0.004
	c10.951,0,19.935-8.775,20.143-19.773l1.591-84.144l45.993,45.338c7.924,7.818,20.679,7.731,28.5-0.205
	c7.814-7.924,7.723-20.687-0.205-28.501l-73.238-72.198l2.116-111.873l94.94,57.234l27.703,99.25
	c2.484,8.908,10.581,14.738,19.399,14.738c1.795,0,3.618-0.24,5.432-0.744c10.719-2.996,16.986-14.112,13.99-24.836l-16.21-58.076
	l70.242,42.345c3.255,1.96,6.842,2.897,10.385,2.897c6.834,0,13.494-3.476,17.281-9.755
	C1129.396,454.062,1126.325,441.674,1116.791,435.926z"/>
</svg>
