<?xml version="1.0" encoding="utf-8"?>
<!-- Generator: Adobe Illustrator 14.0.0, SVG Export Plug-In  -->
<!DOCTYPE svg PUBLIC "-//W3C//DTD SVG 1.1//EN" "http://www.w3.org/Graphics/SVG/1.1/DTD/svg11.dtd" [
	<!ENTITY ns_flows "http://ns.adobe.com/Flows/1.0/">
]>
<svg version="1.1"
	 xmlns="http://www.w3.org/2000/svg" xmlns:xlink="http://www.w3.org/1999/xlink" xmlns:a="http://ns.adobe.com/AdobeSVGViewerExtensions/3.0/"
	 x="0px" y="0px" width="78px" height="18px" viewBox="-1.558 -2.103 78 18" enable-background="new -1.558 -2.103 78 18"
	 xml:space="preserve">
<defs>
</defs>
<polygon fill="#C65C49" points="6.31,0 8.26,3.951 12.62,4.584 9.465,7.659 10.209,12.002 6.31,9.952 2.41,12.002 3.155,7.659 
	0,4.584 4.36,3.951 "/>
<polygon fill="#C65C49" points="21.81,0 23.76,3.951 28.12,4.584 24.965,7.659 25.709,12.002 21.81,9.952 17.91,12.002 
	18.655,7.659 15.5,4.584 19.86,3.951 "/>
<polygon fill="#C65C49" points="37.31,0 39.26,3.951 43.62,4.584 40.465,7.659 41.209,12.002 37.31,9.952 33.41,12.002 
	34.155,7.659 31,4.584 35.36,3.951 "/>
<polygon fill="#C65C49" points="52.81,0 54.76,3.951 59.12,4.584 55.965,7.659 56.709,12.002 52.81,9.952 48.911,12.002 
	49.655,7.659 46.5,4.584 50.86,3.951 "/>
<polygon fill="#C65C49" points="68.31,0 70.26,3.951 74.62,4.584 71.465,7.659 72.209,12.002 68.31,9.952 64.411,12.002 
	65.155,7.659 62,4.584 66.36,3.951 "/>
</svg>
