<?xml version="1.0" encoding="utf-8"?>
<!-- Generator: Adobe Illustrator 17.0.0, SVG Export Plug-In . SVG Version: 6.00 Build 0)  -->
<!DOCTYPE svg PUBLIC "-//W3C//DTD SVG 1.1//EN" "http://www.w3.org/Graphics/SVG/1.1/DTD/svg11.dtd">
<svg version="1.1" id="Layer_1" xmlns="http://www.w3.org/2000/svg" xmlns:xlink="http://www.w3.org/1999/xlink" x="0px" y="0px"
	 viewBox="465.525 259.512 92.975 92.975"
	 enable-background="new 465.525 259.512 92.975 92.975" xml:space="preserve">
<g>
	<g>
		<path fill="#FFFFFF" d="M505.16,306.069c0,4.555,2.277,6.832,6.832,6.832s6.832-2.277,6.832-6.832
			c0-4.555-2.277-6.832-6.832-6.832S505.16,301.514,505.16,306.069 M500.606,306.069c0-6.303,5.124-11.427,11.427-11.427
			c6.303,0,11.427,5.124,11.427,11.427s-5.165,11.427-11.468,11.427C505.689,317.496,500.606,312.372,500.606,306.069
			 M537.531,319.448V296.35c0,0,0-7.279-7.279-7.279h-5.693c-0.081-0.203-0.203-0.447-0.407-0.691l-5.775-7.93
			c0,0-0.813-1.098-2.196-1.098h-6.751c0,0-3.05,0-4.839,2.44l-4.758,6.588c0,0-0.203,0.285-0.366,0.691h-5.693
			c0,0-7.279,0-7.279,7.279v23.098c0,0,0,7.279,7.279,7.279h36.437C530.251,326.727,537.531,326.727,537.531,319.448"/>
	</g>
</g>
</svg>
