<?xml version="1.0" encoding="utf-8"?>
<!-- Generator: Adobe Illustrator 15.0.2, SVG Export Plug-In . SVG Version: 6.00 Build 0)  -->
<!DOCTYPE svg PUBLIC "-//W3C//DTD SVG 1.1//EN" "http://www.w3.org/Graphics/SVG/1.1/DTD/svg11.dtd">
<svg version="1.1" id="Layer_1" xmlns="http://www.w3.org/2000/svg" xmlns:xlink="http://www.w3.org/1999/xlink" x="0px" y="0px"
	 width="1114px" height="173px" viewBox="0 0 1114 173" enable-background="new 0 0 1114 173" xml:space="preserve">
<path fill="none" d="M192.018,84.382c-4.737,41.621-43.006,75.803-85.476,76.346c-42.47,0.547-73.061-32.753-68.323-74.372
	c4.738-41.624,43.007-75.805,85.476-76.35C166.167,9.462,196.756,42.76,192.018,84.382z"/>
<path fill="none" d="M192.018,84.382c-4.737,41.621-43.006,75.803-85.476,76.346c-42.47,0.547-73.061-32.753-68.323-74.372
	c4.738-41.624,43.007-75.805,85.476-76.35C166.167,9.462,196.756,42.76,192.018,84.382z"/>
<g>
	<path fill="#FFFFFF" d="M209.526,78.727c-3.979,0-7.283,2.864-7.979,6.641h-9.653l-0.43,2.958l10.083,0
		c0.696,3.778,4,6.642,7.979,6.642c4.485,0,8.121-3.635,8.121-8.12S214.011,78.727,209.526,78.727z"/>
	<path fill="#FFFFFF" d="M115.015,77.943c-8.692,3.095-14.53,12.247-15.348,20.993c0,4.04,0.273,8.474,4.35,10.495
		c7.195,1.753,14.39-1.48,19.281-6.864c5.158-5.921,8.688-13.454,6.378-21.528C127.369,75.117,119.495,75.925,115.015,77.943z"/>
	<path fill="#FFFFFF" d="M177.336,100.632c-0.201,0.605-0.768,1.012-1.403,1.012c-0.01,0-0.02,0-0.029,0
		c-0.648-0.013-1.211-0.445-1.392-1.065L163.53,62.8l-7.891,24.501c-0.197,0.611-0.766,1.025-1.408,1.025h-6.791
		c-3.427,13.694-11.872,25.937-24.824,33.349c-6.654,3.366-16.022,7.265-22.95,2.289l-2.985-3.234
		c-1.223,2.295-1.496,5.519-1.768,8.479l-16.022,5.659l6.421-47.035h-7.961L68.823,112c-0.209,0.593-0.769,0.987-1.396,0.987
		c-0.008,0-0.016,0-0.024,0c-0.636-0.011-1.194-0.427-1.386-1.033L54.955,76.999l-3.903,10.055
		c-0.221,0.569-0.769,0.944-1.379,0.944H38.25l0.23-2.959h10.179l5.059-13.03c0.227-0.585,0.798-0.959,1.427-0.943
		c0.627,0.021,1.174,0.434,1.363,1.033l10.996,34.747l7.406-20.983c0.208-0.592,0.768-0.988,1.396-0.988h9.412l6.348-46.495
		l18.736-5.785c-1.352,12.918-3.938,26.914-5.295,39.699c8.69-10.229,22.135-16.552,35.168-12.382
		c7.2,4.036,8.558,11.708,8.29,19.375c-0.178,2.046-0.471,4.076-0.861,6.082h5.051l9.041-28.073
		c0.199-0.619,0.791-1.051,1.429-1.026c0.65,0.009,1.218,0.442,1.4,1.066l11.005,37.86l2.939-8.815
		c0.202-0.604,0.767-1.012,1.403-1.012h11.509c0.042-0.33,0.1-0.655,0.138-0.986c4.738-41.622-25.852-74.92-68.323-74.376
		c-42.018,0.54-79.903,34.01-85.292,75.032H27.54c-0.697-3.777-4.001-6.641-7.979-6.641c-4.485,0-8.121,3.636-8.121,8.121
		c0,4.483,3.636,8.12,8.121,8.12c3.979,0,7.283-2.864,7.979-6.641h10.535c-3.756,40.846,26.559,73.27,68.467,72.73
		c41.121-0.525,78.301-32.587,84.922-72.402h-10.026L177.336,100.632z"/>
</g>
<g>
	<g>
		<path fill="#FFFFFF" d="M256.365,12.998h55.25c9.133,0,16.868,1.071,23.205,3.205c6.333,2.138,11.493,4.973,15.47,8.509
			c3.978,3.536,6.851,7.625,8.619,12.265c1.768,4.641,2.651,9.469,2.651,14.476c0,4.717-0.85,8.878-2.541,12.487
			c-1.695,3.612-3.685,6.706-5.967,9.282c-2.286,2.58-4.717,4.606-7.293,6.078c-2.58,1.475-4.752,2.431-6.52,2.873
			c2.652,0.59,5.708,1.657,9.172,3.205c3.459,1.547,6.74,3.757,9.834,6.63s5.708,6.485,7.846,10.829
			c2.134,4.347,3.204,9.468,3.204,15.359c0,7.663-1.364,14.144-4.089,19.448c-2.728,5.304-6.557,9.651-11.492,13.039
			c-4.938,3.391-10.977,5.855-18.122,7.403c-7.148,1.547-15.138,2.32-23.978,2.32h-55.25V12.998z M308.521,72.005
			c2.503,0,4.973-0.293,7.403-0.884c2.431-0.587,4.565-1.509,6.409-2.762c1.84-1.25,3.35-2.946,4.53-5.083
			c1.178-2.134,1.768-4.751,1.768-7.846c0-3.239-0.59-5.929-1.768-8.066c-1.181-2.134-2.728-3.83-4.641-5.083
			c-1.917-1.25-4.089-2.134-6.52-2.652c-2.431-0.515-4.828-0.773-7.183-0.773h-19.669v33.15H308.521z M310.51,134.77
			c2.355,0,5.007-0.184,7.956-0.553c2.946-0.366,5.67-1.215,8.177-2.541c2.503-1.326,4.603-3.24,6.298-5.746
			c1.692-2.504,2.542-5.967,2.542-10.387c0-3.979-0.812-7.218-2.431-9.725c-1.623-2.503-3.684-4.455-6.188-5.856
			c-2.507-1.398-5.231-2.355-8.177-2.873c-2.949-0.515-5.673-0.773-8.177-0.773h-21.658v38.454H310.51z"/>
		<path fill="#FFFFFF" d="M392.059,12.998h55.691c11.344,0,21.842,1.475,31.494,4.42c9.646,2.949,17.973,7.441,24.973,13.481
			c6.996,6.043,12.447,13.778,16.354,23.205c3.902,9.43,5.857,20.553,5.857,33.371c0,12.231-1.99,22.874-5.969,31.935
			c-3.977,9.061-9.467,16.65-16.463,22.763c-7,6.115-15.326,10.685-24.975,13.702c-9.65,3.021-20.148,4.53-31.492,4.53h-55.471
			V12.998z M445.762,130.791c14.73,0,26.078-3.867,34.033-11.602c7.957-7.736,11.936-18.378,11.936-31.935
			c0-6.775-0.922-12.929-2.764-18.454c-1.844-5.525-4.641-10.238-8.396-14.144c-3.758-3.902-8.51-6.923-14.256-9.061
			c-5.746-2.134-12.596-3.205-20.553-3.205H425.43v88.4H445.762z"/>
		<path fill="#FFFFFF" d="M683.557,133.223c-3.094,4.274-6.852,8.287-11.271,12.044s-9.319,7.038-14.696,9.835
			c-5.38,2.801-11.198,5.01-17.459,6.63c-6.264,1.619-12.783,2.431-19.559,2.431c-11.198,0-21.437-1.916-30.719-5.746
			c-9.282-3.829-17.276-9.172-23.979-16.022c-6.706-6.851-11.899-14.952-15.581-24.31c-3.684-9.354-5.524-19.631-5.524-30.83
			c0-10.902,1.841-21.105,5.524-30.608c3.682-9.503,8.875-17.753,15.581-24.752c6.702-6.996,14.73-12.521,24.089-16.575
			c9.354-4.051,19.703-6.078,31.051-6.078c13.702,0,25.67,2.507,35.912,7.514c10.238,5.01,18.747,12.231,25.525,21.658
			l-22.763,21.879c-4.42-6.188-9.651-11.161-15.691-14.917c-6.043-3.757-13.26-5.636-21.657-5.636
			c-6.631,0-12.598,1.215-17.901,3.646s-9.8,5.784-13.481,10.056c-3.685,4.275-6.52,9.248-8.508,14.917
			c-1.989,5.673-2.983,11.678-2.983,18.011c0,6.485,0.994,12.524,2.983,18.122c1.988,5.602,4.823,10.463,8.508,14.586
			c3.682,4.127,8.102,7.369,13.261,9.725c5.155,2.357,10.974,3.535,17.459,3.535c5.304,0,9.906-0.553,13.812-1.657
			c3.901-1.104,7.365-2.575,10.387-4.42c3.018-1.841,5.708-3.978,8.066-6.409c2.355-2.431,4.641-4.896,6.851-7.403L683.557,133.223z
			"/>
		<path fill="#FFFFFF" d="M682.674,56.756h32.708l18.122,66.521l20.111-66.521h25.415l20.332,66.521l18.122-66.521h32.045
			l-35.581,103.649h-28.73l-19.448-57.902l-19.227,57.902h-28.288L682.674,56.756z"/>
		<path fill="#FFFFFF" d="M862.567,12.998h34.034v28.509h-34.034V12.998z M863.672,56.756h31.824v103.649h-31.824V56.756z"/>
		<path fill="#FFFFFF" d="M919.805,56.756h30.498l1.105,13.039c2.651-3.536,6.298-6.924,10.939-10.166
			c4.641-3.239,10.643-4.862,18.011-4.862c2.798,0,5.194,0.148,7.183,0.442c1.989,0.297,3.94,0.812,5.856,1.547l-5.083,28.067
			c-3.242-1.029-7.071-1.547-11.491-1.547c-7.515,0-13.592,2.248-18.233,6.74c-4.641,4.496-6.961,10.867-6.961,19.117v51.272
			h-31.824V56.756z"/>
		<path fill="#FFFFFF" d="M1102.791,149.135c-1.182,0.738-2.949,1.954-5.305,3.646c-2.358,1.695-5.414,3.353-9.171,4.973
			c-3.757,1.623-8.215,3.055-13.371,4.309c-5.158,1.25-11.05,1.879-17.68,1.879c-8.84,0-16.796-1.364-23.868-4.089
			c-7.071-2.724-13.077-6.519-18.011-11.382c-4.938-4.861-8.695-10.718-11.271-17.568c-2.579-6.852-3.867-14.4-3.867-22.653
			c0-7.217,1.215-14.179,3.646-20.885c2.431-6.703,5.929-12.559,10.497-17.569c4.565-5.007,10.166-9.023,16.796-12.044
			c6.63-3.018,14.145-4.531,22.542-4.531c8.398,0,15.764,1.475,22.101,4.42c6.333,2.949,11.675,7.038,16.022,12.266
			c4.344,5.231,7.624,11.492,9.834,18.785s3.315,15.287,3.315,23.979v5.303h-73.814c0.146,5.602,2.614,10.498,7.403,14.697
			c4.786,4.199,11.382,6.299,19.78,6.299c8.249,0,14.952-1.216,20.11-3.646c5.156-2.432,8.913-4.531,11.271-6.299L1102.791,149.135z
			 M1074.944,97.641c0-2.21-0.441-4.455-1.325-6.74c-0.885-2.283-2.21-4.382-3.979-6.299c-1.768-1.913-3.978-3.498-6.63-4.751
			c-2.652-1.25-5.822-1.878-9.503-1.878c-3.685,0-6.927,0.628-9.724,1.878c-2.801,1.254-5.121,2.839-6.962,4.751
			c-1.844,1.917-3.242,4.016-4.199,6.299c-0.96,2.286-1.437,4.53-1.437,6.74H1074.944z"/>
	</g>
</g>
</svg>
