<?xml version="1.0" encoding="utf-8"?>
<!-- Generator: Adobe Illustrator 15.0.2, SVG Export Plug-In . SVG Version: 6.00 Build 0)  -->
<!DOCTYPE svg PUBLIC "-//W3C//DTD SVG 1.1//EN" "http://www.w3.org/Graphics/SVG/1.1/DTD/svg11.dtd">
<svg version="1.1" id="Layer_1" xmlns="http://www.w3.org/2000/svg" xmlns:xlink="http://www.w3.org/1999/xlink" x="0px" y="0px"
	 width="1050px" height="170.98px" viewBox="242.409 0 1050 170.98" enable-background="new 242.409 0 1050 170.98"
	 xml:space="preserve">
<g>
	<g>
		<path fill="#FFFFFF" d="M256.365,12.998h55.25c9.133,0,16.868,1.071,23.205,3.205c6.333,2.138,11.493,4.973,15.47,8.509
			c3.978,3.536,6.851,7.625,8.619,12.265c1.768,4.641,2.651,9.469,2.651,14.476c0,4.717-0.85,8.878-2.541,12.487
			c-1.695,3.612-3.685,6.706-5.967,9.282c-2.286,2.58-4.717,4.606-7.293,6.078c-2.58,1.475-4.752,2.431-6.52,2.873
			c2.652,0.59,5.708,1.656,9.172,3.205c3.459,1.547,6.74,3.756,9.834,6.629c3.094,2.873,5.708,6.487,7.846,10.831
			c2.134,4.347,3.204,9.468,3.204,15.356c0,7.664-1.364,14.146-4.089,19.449c-2.728,5.306-6.557,9.649-11.492,13.039
			c-4.938,3.392-10.977,5.854-18.122,7.401c-7.148,1.547-15.138,2.319-23.978,2.319h-55.25L256.365,12.998L256.365,12.998z
			 M308.521,72.005c2.503,0,4.973-0.293,7.403-0.884c2.431-0.587,4.565-1.509,6.409-2.762c1.84-1.25,3.35-2.946,4.53-5.083
			c1.178-2.134,1.768-4.751,1.768-7.846c0-3.239-0.59-5.929-1.768-8.066c-1.181-2.134-2.728-3.83-4.641-5.083
			c-1.917-1.25-4.089-2.134-6.52-2.652c-2.431-0.515-4.828-0.773-7.183-0.773H288.85v33.15L308.521,72.005L308.521,72.005z
			 M310.51,134.77c2.355,0,5.007-0.185,7.956-0.554c2.946-0.364,5.67-1.215,8.177-2.541c2.503-1.325,4.603-3.239,6.298-5.745
			c1.692-2.505,2.542-5.968,2.542-10.388c0-3.979-0.812-7.217-2.431-9.726c-1.623-2.504-3.684-4.455-6.188-5.854
			c-2.507-1.397-5.231-2.354-8.177-2.874c-2.949-0.516-5.673-0.772-8.177-0.772h-21.658v38.453H310.51L310.51,134.77z"/>
		<path fill="#FFFFFF" d="M392.059,12.998h55.69c11.344,0,21.842,1.475,31.494,4.42c9.646,2.949,17.973,7.441,24.973,13.481
			c6.996,6.043,12.447,13.778,16.355,23.205c3.899,9.43,5.854,20.553,5.854,33.371c0,12.231-1.99,22.875-5.969,31.937
			c-3.977,9.062-9.467,16.649-16.463,22.762c-7,6.115-15.326,10.687-24.978,13.703c-9.647,3.021-20.146,4.528-31.489,4.528h-55.472
			L392.059,12.998L392.059,12.998z M445.761,130.791c14.73,0,26.078-3.867,34.033-11.602c7.957-7.736,11.937-18.379,11.937-31.936
			c0-6.775-0.923-12.929-2.765-18.455c-1.844-5.525-4.641-10.238-8.395-14.144c-3.761-3.902-8.513-6.923-14.256-9.061
			c-5.746-2.134-12.599-3.205-20.556-3.205h-20.332v88.398L445.761,130.791L445.761,130.791z"/>
		<path fill="#FFFFFF" d="M683.556,133.223c-3.094,4.274-6.852,8.286-11.27,12.045c-4.42,3.756-9.32,7.037-14.697,9.834
			c-5.379,2.801-11.197,5.01-17.459,6.631c-6.264,1.619-12.783,2.431-19.559,2.431c-11.197,0-21.438-1.916-30.72-5.746
			c-9.28-3.828-17.274-9.172-23.979-16.021c-6.707-6.853-11.9-14.951-15.582-24.312c-3.684-9.354-5.523-19.631-5.523-30.83
			c0-10.901,1.843-21.104,5.523-30.607s8.875-17.753,15.582-24.752c6.701-6.996,14.729-12.521,24.088-16.575
			c9.355-4.051,19.703-6.078,31.051-6.078c13.703,0,25.67,2.507,35.912,7.514c10.238,5.01,18.748,12.231,25.525,21.658
			l-22.762,21.879c-4.423-6.188-9.652-11.161-15.691-14.917c-6.043-3.757-13.26-5.636-21.658-5.636
			c-6.631,0-12.598,1.215-17.897,3.646c-5.306,2.431-9.804,5.784-13.482,10.056c-3.684,4.275-6.521,9.248-8.508,14.917
			c-1.988,5.673-2.982,11.679-2.982,18.011c0,6.485,0.994,12.524,2.982,18.124c1.987,5.602,4.824,10.463,8.508,14.586
			c3.682,4.127,8.104,7.369,13.262,9.725c5.154,2.357,10.976,3.535,17.459,3.535c5.306,0,9.906-0.553,13.812-1.656
			c3.897-1.104,7.365-2.576,10.387-4.42c3.021-1.842,5.707-3.979,8.066-6.41c2.354-2.432,4.641-4.896,6.85-7.402L683.556,133.223z"
			/>
		<path fill="#FFFFFF" d="M682.673,56.756h32.709l18.121,66.521l20.111-66.521h25.416l20.332,66.521l18.12-66.521h32.046
			l-35.58,103.648h-28.73l-19.447-57.9l-19.229,57.9h-28.287L682.673,56.756z"/>
		<path fill="#FFFFFF" d="M862.568,12.998h34.03v28.509h-34.03V12.998z M863.671,56.756h31.824v103.648h-31.824V56.756z"/>
		<path fill="#FFFFFF" d="M919.804,56.756h30.498l1.105,13.039c2.649-3.536,6.299-6.924,10.938-10.166
			c4.644-3.239,10.646-4.862,18.015-4.862c2.797,0,5.19,0.148,7.182,0.442c1.99,0.297,3.939,0.812,5.854,1.547l-5.081,28.068
			c-3.242-1.029-7.07-1.548-11.49-1.548c-7.519,0-13.594,2.248-18.234,6.74c-4.641,4.496-6.961,10.866-6.961,19.116v51.271h-31.824
			L919.804,56.756L919.804,56.756z"/>
		<path fill="#FFFFFF" d="M1102.791,149.134c-1.182,0.738-2.949,1.955-5.305,3.646c-2.357,1.695-5.414,3.354-9.172,4.974
			c-3.759,1.623-8.216,3.056-13.369,4.31c-5.158,1.25-11.054,1.879-17.683,1.879c-8.84,0-16.797-1.362-23.869-4.088
			c-7.067-2.726-13.075-6.521-18.01-11.383c-4.938-4.861-8.694-10.718-11.271-17.568c-2.578-6.853-3.867-14.399-3.867-22.651
			c0-7.217,1.215-14.181,3.646-20.884c2.433-6.703,5.931-12.56,10.496-17.57c4.566-5.007,10.166-9.023,16.797-12.044
			c6.632-3.018,14.146-4.531,22.541-4.531c8.398,0,15.767,1.475,22.104,4.42c6.332,2.949,11.674,7.038,16.02,12.266
			c4.347,5.231,7.625,11.492,9.834,18.784c2.211,7.293,3.316,15.287,3.316,23.979v5.304h-73.814
			c0.146,5.603,2.613,10.498,7.402,14.696c4.787,4.199,11.383,6.299,19.781,6.299c8.248,0,14.951-1.217,20.107-3.646
			c5.155-2.432,8.913-4.531,11.271-6.299L1102.791,149.134z M1074.945,97.641c0-2.209-0.441-4.455-1.326-6.74
			c-0.885-2.282-2.209-4.381-3.979-6.298c-1.768-1.913-3.979-3.498-6.631-4.751c-2.649-1.25-5.822-1.878-9.502-1.878
			c-3.686,0-6.928,0.628-9.725,1.878c-2.802,1.254-5.121,2.839-6.961,4.751c-1.847,1.917-3.242,4.016-4.199,6.298
			c-0.961,2.287-1.439,4.531-1.439,6.74H1074.945z"/>
	</g>
</g>
</svg>
