<?xml version="1.0" encoding="utf-8"?>
<!-- Generator: Adobe Illustrator 15.0.2, SVG Export Plug-In . SVG Version: 6.00 Build 0)  -->
<!DOCTYPE svg PUBLIC "-//W3C//DTD SVG 1.1//EN" "http://www.w3.org/Graphics/SVG/1.1/DTD/svg11.dtd">
<svg version="1.1" id="Layer_1" xmlns="http://www.w3.org/2000/svg" xmlns:xlink="http://www.w3.org/1999/xlink" x="0px" y="0px"
	 width="42px" height="40px" viewBox="0 0 42 40" enable-background="new 0 0 42 40" xml:space="preserve">
<g id="Layer_1_1_">
	<g>
		<g>
			<path fill="#CCCCCC" d="M18.139,8.148c-2.963,0-5.588,1.994-6.377,4.848c-0.178,0.635-0.834,1.015-1.475,0.841
				c-0.443-0.121-0.887-0.183-1.316-0.183c-2.803,0-5.078,2.281-5.078,5.08c0,2.79,2.262,5.06,5.053,5.075
				c0.039-0.002,0.07-0.002,0.1,0h6.43c-0.053-0.365-0.09-0.735-0.09-1.115c0-4.041,3.018-7.387,6.916-7.911
				c0.58-0.832,1.291-1.554,2.101-2.143C23.49,9.945,21,8.148,18.139,8.148z"/>
			<path d="M15.475,23.809h-6.43c-0.029-0.002-0.061-0.002-0.1,0c-2.791-0.015-5.053-2.285-5.053-5.074
				c0-2.799,2.275-5.08,5.078-5.08c0.43,0,0.873,0.062,1.316,0.183c0.641,0.174,1.297-0.206,1.475-0.841
				c0.789-2.854,3.414-4.848,6.377-4.848c2.861,0,5.352,1.797,6.262,4.491c0.746-0.545,1.572-0.977,2.457-1.278
				c-0.129-0.021-0.254-0.046-0.383-0.061c-1.388-3.361-4.638-5.563-8.336-5.563c-3.67,0-6.951,2.235-8.336,5.557
				c-0.281-0.033-0.559-0.05-0.832-0.05c-4.131,0-7.49,3.358-7.49,7.49c0,4.126,3.359,7.484,7.49,7.484c0.008,0,0.016,0,0.023,0
				h7.229C15.85,25.477,15.596,24.666,15.475,23.809z"/>
		</g>
		<path fill="#FFFFFF" d="M34.953,18.335c-0.004,0-0.01,0.001-0.016,0.001c-0.687-2.225-2.75-3.836-5.195-3.836
			c-2.5,0-4.604,1.684-5.242,3.979c-0.359-0.094-0.738-0.151-1.129-0.151c-2.412,0-4.367,1.955-4.367,4.365
			c0,2.412,1.955,4.367,4.367,4.367c0.004,0,0.01-0.002,0.016-0.002v0.002H34.93l0,0c0.008,0,0.016,0,0.023,0
			c2.41,0,4.363-1.953,4.363-4.361C39.316,20.288,37.363,18.335,34.953,18.335z"/>
		<path d="M34.953,28.264c-0.012,0-0.027,0-0.043-0.002l-11.523,0.002c-0.006,0-0.01,0-0.016,0c-3.074,0-5.574-2.5-5.574-5.568
			c0-3.073,2.5-5.574,5.574-5.574c0.117,0,0.229,0.005,0.348,0.013c1.076-2.306,3.416-3.841,6.023-3.841
			c2.648,0,4.984,1.537,6.049,3.898c2.676,0.405,4.729,2.719,4.729,5.508C40.52,25.766,38.018,28.264,34.953,28.264z M23.387,25.852
			l11.537,0.002c0.014-0.002,0.027-0.002,0.041,0c1.732-0.006,3.145-1.42,3.145-3.154c0-1.736-1.403-3.148-3.133-3.16
			c-0.014,0-0.026,0.001-0.039,0.001c-0.528,0-0.998-0.344-1.153-0.851c-0.55-1.784-2.173-2.985-4.041-2.985
			c-1.896,0-3.572,1.277-4.078,3.102c-0.181,0.636-0.836,1.014-1.478,0.84c-0.272-0.075-0.553-0.113-0.815-0.113
			c-1.746,0-3.164,1.417-3.164,3.162c0,1.732,1.403,3.146,3.142,3.158C23.361,25.852,23.375,25.852,23.387,25.852z"/>
	</g>
</g>
<g id="Layer_2">
</g>
</svg>
