<?xml version="1.0" encoding="utf-8"?>
<!-- Generator: Adobe Illustrator 15.0.2, SVG Export Plug-In . SVG Version: 6.00 Build 0)  -->
<!DOCTYPE svg PUBLIC "-//W3C//DTD SVG 1.1//EN" "http://www.w3.org/Graphics/SVG/1.1/DTD/svg11.dtd">
<svg version="1.1" id="Layer_1" xmlns="http://www.w3.org/2000/svg" xmlns:xlink="http://www.w3.org/1999/xlink" x="0px" y="0px" viewBox="0 0 105 100" enable-background="new 0 0 105 100" xml:space="preserve">
<g id="Layer_1_1_">
	<g>
		<path d="M53.992,81.52c-18.482,0-33.52-15.037-33.52-33.52c0-18.483,15.037-33.52,33.52-33.52c1.662,0,3.337,0.124,4.977,0.369
			c1.254,0.187,2.256,1.144,2.5,2.388c0.245,1.245-0.318,2.509-1.41,3.157c-6.518,3.876-10.565,10.985-10.565,18.553
			c0,11.895,9.678,21.572,21.571,21.572c3.209,0,6.299-0.69,9.184-2.052c1.148-0.543,2.514-0.302,3.408,0.599
			c0.896,0.9,1.126,2.268,0.576,3.412C78.684,74.046,66.812,81.52,53.992,81.52z M50.405,20.713
			C36.919,22.476,26.473,34.041,26.473,48c0,15.175,12.345,27.52,27.52,27.52c7.907,0,15.377-3.463,20.534-9.213
			c-1.141,0.143-2.295,0.213-3.463,0.213c-15.203,0-27.571-12.369-27.571-27.571C43.492,32.176,46.027,25.692,50.405,20.713z"/>
	</g>
</g>
<g id="Layer_2">
</g>
</svg>
