<?xml version="1.0" encoding="utf-8"?>
<!-- Generator: Adobe Illustrator 15.0.2, SVG Export Plug-In . SVG Version: 6.00 Build 0)  -->
<!DOCTYPE svg PUBLIC "-//W3C//DTD SVG 1.1//EN" "http://www.w3.org/Graphics/SVG/1.1/DTD/svg11.dtd">
<svg version="1.1" id="Layer_1" xmlns="http://www.w3.org/2000/svg" xmlns:xlink="http://www.w3.org/1999/xlink" x="0px" y="0px"
	 width="42px" height="40px" viewBox="0 0 42 40" enable-background="new 0 0 42 40" xml:space="preserve">
<g id="Layer_1_1_">
	<g>
		<g>
			<g>
				<path d="M30.016,26.719c-0.006,0-0.019,0-0.033,0H12.016c-0.008,0-0.018,0-0.026,0c-4.44,0-8.055-3.613-8.055-8.056
					c0-4.437,3.614-8.05,8.055-8.05c0.308,0,0.621,0.019,0.932,0.057c1.482-3.596,5.022-6.018,8.982-6.018
					c3.996,0,7.505,2.383,8.99,6.019c4.023,0.437,7.172,3.858,7.172,7.998C38.064,23.105,34.453,26.719,30.016,26.719z
					 M12.073,24.203h17.838c0.042-0.002,0.085-0.003,0.135,0c3.038-0.018,5.504-2.492,5.504-5.534c0-3.038-2.466-5.514-5.504-5.53
					c-0.021,0.001-0.034,0.001-0.051,0.001c-0.554,0-1.041-0.358-1.205-0.887c-0.935-3.041-3.699-5.085-6.886-5.085
					c-3.226,0-6.078,2.172-6.938,5.276c-0.186,0.668-0.877,1.059-1.539,0.878c-0.485-0.127-0.969-0.193-1.438-0.193
					c-3.055,0-5.539,2.484-5.539,5.534c0,3.046,2.47,5.526,5.513,5.54C12.005,24.201,12.039,24.202,12.073,24.203z"/>
			</g>
		</g>
		<path d="M17.682,35.348c-0.235,0-0.477-0.065-0.69-0.207c-0.577-0.38-0.74-1.158-0.36-1.738l2.862-4.533
			c0.379-0.577,1.162-0.74,1.744-0.36c0.577,0.38,0.739,1.162,0.36,1.738l-2.862,4.533C18.491,35.146,18.09,35.348,17.682,35.348z"
			/>
		<path d="M10.044,35.348c-0.239,0-0.477-0.065-0.691-0.207c-0.582-0.38-0.74-1.158-0.36-1.738l2.862-4.533
			c0.38-0.577,1.162-0.74,1.739-0.36c0.582,0.38,0.745,1.162,0.365,1.738l-2.862,4.533C10.853,35.146,10.452,35.348,10.044,35.348z"
			/>
		<path d="M25.32,35.348c-0.235,0-0.478-0.065-0.688-0.207c-0.581-0.38-0.744-1.158-0.365-1.738l2.862-4.533
			c0.386-0.577,1.162-0.74,1.744-0.36s0.739,1.162,0.36,1.738l-2.862,4.533C26.134,35.146,25.729,35.348,25.32,35.348z"/>
	</g>
</g>
<g id="Layer_2">
</g>
</svg>
