<?xml version="1.0" encoding="utf-8"?>
<!-- Generator: Adobe Illustrator 15.0.2, SVG Export Plug-In . SVG Version: 6.00 Build 0)  -->
<!DOCTYPE svg PUBLIC "-//W3C//DTD SVG 1.1//EN" "http://www.w3.org/Graphics/SVG/1.1/DTD/svg11.dtd">
<svg version="1.1" id="Layer_1" xmlns="http://www.w3.org/2000/svg" xmlns:xlink="http://www.w3.org/1999/xlink" x="0px" y="0px"
	 width="42px" height="40px" viewBox="0 0 42 40" enable-background="new 0 0 42 40" xml:space="preserve">
<g id="Layer_1_1_">
	<g>
		<path d="M22.146,12.695l3.69-3.74c0.392-0.396,0.386-1.036-0.011-1.427c-0.4-0.396-1.035-0.391-1.43,0.011l-2.195,2.226
			l0.078-4.089c0.011-0.551-0.432-1.011-0.989-1.021c-0.547-0.011-1.018,0.433-1.028,0.989l-0.08,4.227l-2.317-2.284
			c-0.396-0.395-1.036-0.391-1.427,0.011c-0.39,0.396-0.385,1.031,0.011,1.426l3.68,3.627"/>
		<path d="M27.752,17.422l5.092,1.353c0.088,0.023,0.176,0.034,0.258,0.034c0.45,0,0.857-0.296,0.975-0.748
			c0.145-0.538-0.174-1.092-0.713-1.236l-3.062-0.812l3.741-2.066c0.487-0.268,0.662-0.883,0.396-1.37
			c-0.272-0.488-0.883-0.661-1.371-0.395l-3.812,2.104l0.83-3.111c0.14-0.54-0.181-1.093-0.719-1.232
			c-0.54-0.144-1.093,0.174-1.231,0.713l-1.324,4.981"/>
		<path d="M26.729,24.629l1.385,4.969c0.127,0.445,0.531,0.733,0.973,0.733c0.09,0,0.178-0.007,0.27-0.031
			c0.537-0.151,0.849-0.708,0.703-1.245l-0.814-2.908l3.518,2.121c0.164,0.102,0.338,0.144,0.521,0.144
			c0.341,0,0.678-0.171,0.864-0.488c0.289-0.478,0.135-1.094-0.342-1.384l-3.771-2.271l3.232-0.903
			c0.537-0.151,0.85-0.708,0.702-1.245c-0.151-0.533-0.709-0.85-1.245-0.697l-5.063,1.414"/>
		<path d="M19.853,27.288l-3.702,3.757c-0.396,0.396-0.392,1.036,0.01,1.426c0.194,0.196,0.452,0.289,0.705,0.289
			c0.264,0,0.521-0.097,0.721-0.299l2.211-2.243l-0.078,4.101c-0.012,0.558,0.432,1.018,0.989,1.027c0.007,0,0.014,0,0.02,0
			c0.55,0,0.998-0.438,1.009-0.988l0.08-4.211l2.301,2.269c0.396,0.392,1.035,0.386,1.427-0.011c0.39-0.396,0.386-1.036-0.01-1.428
			l-3.664-3.609"/>
		<path d="M14.212,22.598l-5.188-1.38c-0.54-0.139-1.088,0.181-1.232,0.718c-0.145,0.539,0.172,1.094,0.714,1.232l3.153,0.841
			l-3.7,2.04c-0.486,0.271-0.664,0.889-0.397,1.375c0.186,0.331,0.529,0.518,0.882,0.518c0.168,0,0.337-0.036,0.487-0.123
			l3.659-2.021l-0.802,3.025c-0.145,0.538,0.174,1.087,0.713,1.231c0.089,0.022,0.176,0.034,0.262,0.034
			c0.447,0,0.854-0.297,0.976-0.748l1.298-4.894"/>
		<path d="M15.218,15.337l-1.404-5.031c-0.146-0.538-0.703-0.849-1.24-0.703c-0.537,0.151-0.85,0.709-0.702,1.246l0.832,2.973
			l-3.464-2.09c-0.478-0.285-1.099-0.136-1.384,0.342c-0.291,0.477-0.136,1.099,0.342,1.385l3.637,2.196l-3.17,0.885
			c-0.537,0.151-0.849,0.709-0.701,1.241c0.125,0.45,0.529,0.74,0.968,0.74c0.093,0,0.186-0.013,0.276-0.038l5.008-1.396"/>
		<g>
			<polygon fill="#C8E4F2" points="21.11,27.361 15.16,23.823 15.242,16.897 21.285,13.509 27.238,17.047 27.152,23.975 			"/>
			<path d="M21.11,28.564c-0.21,0-0.425-0.058-0.611-0.168l-5.956-3.537c-0.368-0.221-0.596-0.621-0.591-1.051l0.087-6.927
				c0.005-0.43,0.237-0.824,0.617-1.037l6.038-3.389c0.374-0.208,0.833-0.202,1.207,0.015l5.951,3.538
				c0.373,0.223,0.596,0.622,0.59,1.053l-0.086,6.926c-0.006,0.43-0.237,0.824-0.611,1.033l-6.043,3.388
				C21.518,28.514,21.316,28.564,21.11,28.564z M16.372,23.141l4.756,2.83l4.826-2.71l0.069-5.531l-4.755-2.83l-4.827,2.71
				L16.372,23.141z"/>
		</g>
	</g>
</g>
<g id="Layer_2">
</g>
</svg>
