<?xml version="1.0" encoding="utf-8"?>
<!-- Generator: Adobe Illustrator 15.0.2, SVG Export Plug-In . SVG Version: 6.00 Build 0)  -->
<!DOCTYPE svg PUBLIC "-//W3C//DTD SVG 1.1//EN" "http://www.w3.org/Graphics/SVG/1.1/DTD/svg11.dtd">
<svg version="1.1" id="Layer_1" xmlns="http://www.w3.org/2000/svg" xmlns:xlink="http://www.w3.org/1999/xlink" x="0px" y="0px"
	 width="42px" height="40px" viewBox="0 0 42 40" enable-background="new 0 0 42 40" xml:space="preserve">
<g id="Layer_1_1_">
	<g>
		<path fill="#231F20" d="M29.318,28.294c0.291-0.291,0.568-0.601,0.822-0.914l2.896,2.897c0.479,0.479,0.479,1.261,0,1.738
			c-0.479,0.48-1.254,0.48-1.731,0l-2.898-2.896C28.721,28.859,29.027,28.589,29.318,28.294z"/>
		<path fill="#231F20" d="M32.777,19.985c0-0.414-0.021-0.822-0.064-1.227l4.096,0.002c0.68,0,1.23,0.549,1.23,1.225
			c0,0.68-0.551,1.23-1.23,1.23h-4.096C32.755,20.812,32.777,20.403,32.777,19.985z"/>
		<path fill="#231F20" d="M29.318,11.706c-0.291-0.295-0.6-0.566-0.912-0.826l2.898-2.896c0.479-0.48,1.254-0.48,1.732,0
			c0.479,0.479,0.479,1.258,0,1.738l-2.896,2.898C29.887,12.302,29.609,11.997,29.318,11.706z"/>
		<path fill="#231F20" d="M21.016,31.753c-0.414,0-0.822-0.022-1.226-0.065v4.102c0,0.674,0.548,1.225,1.225,1.225
			c0.68,0,1.23-0.551,1.23-1.225v-4.102C21.838,31.729,21.429,31.753,21.016,31.753z"/>
		<path fill="#231F20" d="M12.682,28.294c-0.292-0.291-0.563-0.601-0.822-0.914l-2.896,2.897c-0.479,0.479-0.479,1.261,0,1.738
			c0.479,0.48,1.254,0.48,1.732,0l2.898-2.896C13.28,28.859,12.978,28.589,12.682,28.294z"/>
		<path fill="#231F20" d="M9.224,19.985c0-0.414,0.021-0.822,0.063-1.227L5.192,18.76c-0.681,0-1.231,0.549-1.231,1.225
			c0,0.68,0.551,1.23,1.23,1.23h4.096C9.245,20.812,9.224,20.403,9.224,19.985z"/>
		<path fill="#231F20" d="M12.681,11.706c0.297-0.295,0.599-0.566,0.913-0.826l-2.898-2.896c-0.479-0.48-1.254-0.48-1.733,0
			c-0.479,0.479-0.479,1.258,0,1.738l2.897,2.898C12.118,12.302,12.39,11.997,12.681,11.706z"/>
		<path fill="#231F20" d="M20.998,8.247c0.414,0,0.822,0.023,1.229,0.066V4.212c0-0.68-0.55-1.225-1.229-1.225
			c-0.676,0-1.226,0.545-1.226,1.225v4.102C20.176,8.271,20.584,8.247,20.998,8.247z"/>
		<g>
			<path fill="#231F20" d="M20.998,29.811c-5.414,0-9.817-4.404-9.817-9.818c0-5.408,4.403-9.812,9.817-9.812
				s9.816,4.404,9.816,9.812C30.814,25.405,26.412,29.811,20.998,29.811z M20.998,12.55c-4.104,0-7.443,3.34-7.443,7.441
				c0,4.108,3.34,7.448,7.443,7.448c4.107,0,7.447-3.34,7.447-7.448C28.445,15.89,25.105,12.55,20.998,12.55z"/>
		</g>
	</g>
</g>
<g id="Layer_2">
</g>
</svg>
