<?xml version="1.0" encoding="utf-8"?>
<!-- Generator: Adobe Illustrator 15.0.2, SVG Export Plug-In . SVG Version: 6.00 Build 0)  -->
<!DOCTYPE svg PUBLIC "-//W3C//DTD SVG 1.1//EN" "http://www.w3.org/Graphics/SVG/1.1/DTD/svg11.dtd">
<svg version="1.1" id="Layer_1" xmlns="http://www.w3.org/2000/svg" xmlns:xlink="http://www.w3.org/1999/xlink" x="0px" y="0px"
	 width="42px" height="40px" viewBox="0 0 42 40" enable-background="new 0 0 42 40" xml:space="preserve">
<g id="Layer_1_1_">
	<g>
		<path fill="#231F20" d="M29.318,28.296c0.291-0.291,0.568-0.599,0.822-0.913l2.896,2.897c0.479,0.479,0.479,1.255,0,1.733
			c-0.479,0.479-1.254,0.479-1.731,0l-2.898-2.896C28.721,28.863,29.027,28.587,29.318,28.296z"/>
		<path fill="#231F20" d="M32.777,19.987c0-0.414-0.021-0.822-0.064-1.226l4.096,0.001c0.68,0,1.23,0.55,1.23,1.225
			c0,0.681-0.551,1.23-1.23,1.23h-4.096C32.755,20.812,32.777,20.401,32.777,19.987z"/>
		<path fill="#231F20" d="M29.318,11.704c-0.291-0.292-0.6-0.562-0.912-0.821l2.898-2.897c0.479-0.479,1.254-0.479,1.732,0
			s0.479,1.254,0,1.733l-2.896,2.897C29.887,12.304,29.609,12,29.318,11.704z"/>
		<path fill="#231F20" d="M21.016,31.755c-0.414,0-0.822-0.022-1.226-0.065v4.102c0,0.675,0.548,1.227,1.225,1.227
			c0.68,0,1.23-0.552,1.23-1.226v-4.103C21.838,31.73,21.429,31.755,21.016,31.755z"/>
		<path fill="#231F20" d="M12.682,28.296c-0.292-0.291-0.563-0.599-0.822-0.913L8.963,30.28c-0.479,0.479-0.479,1.255,0,1.733
			c0.479,0.479,1.254,0.479,1.732,0l2.898-2.896C13.28,28.863,12.978,28.587,12.682,28.296z"/>
		<path fill="#231F20" d="M9.224,19.987c0-0.414,0.021-0.822,0.063-1.226l-4.095,0.001c-0.681,0-1.231,0.55-1.231,1.225
			c0,0.681,0.551,1.23,1.23,1.23h4.096C9.245,20.812,9.224,20.401,9.224,19.987z"/>
		<path fill="#231F20" d="M12.681,11.704c0.297-0.292,0.599-0.562,0.913-0.821l-2.898-2.897c-0.479-0.479-1.254-0.479-1.733,0
			s-0.479,1.254,0,1.733l2.897,2.897C12.118,12.304,12.39,12,12.681,11.704z"/>
		<path fill="#231F20" d="M20.998,8.249c0.414,0,0.822,0.019,1.229,0.062V4.215c0-0.68-0.55-1.23-1.229-1.23
			c-0.676,0-1.226,0.551-1.226,1.23v4.096C20.176,8.268,20.584,8.249,20.998,8.249z"/>
		<g>
			<circle fill="#FEDC00" cx="20.998" cy="19.995" r="8.63"/>
			<path fill="#231F20" d="M20.998,29.812c-5.414,0-9.817-4.404-9.817-9.818c0-5.413,4.403-9.813,9.817-9.813s9.816,4.4,9.816,9.813
				C30.814,25.408,26.412,29.812,20.998,29.812z M20.998,12.552c-4.104,0-7.443,3.34-7.443,7.442c0,4.109,3.34,7.449,7.443,7.449
				c4.107,0,7.447-3.34,7.447-7.449C28.445,15.892,25.105,12.552,20.998,12.552z"/>
		</g>
	</g>
</g>
<g id="Layer_2">
</g>
</svg>
