<?xml version="1.0" encoding="utf-8"?>
<!-- Generator: Adobe Illustrator 15.0.2, SVG Export Plug-In . SVG Version: 6.00 Build 0)  -->
<!DOCTYPE svg PUBLIC "-//W3C//DTD SVG 1.1//EN" "http://www.w3.org/Graphics/SVG/1.1/DTD/svg11.dtd">
<svg version="1.1" id="Layer_1" xmlns="http://www.w3.org/2000/svg" xmlns:xlink="http://www.w3.org/1999/xlink" x="0px" y="0px"
	 width="42px" height="40px" viewBox="0 0 42 40" enable-background="new 0 0 42 40" xml:space="preserve">
<g id="Layer_1_1_">
	<g>
		<path fill="#010101" d="M22.066,12.845c0.267,0.268,0.494,0.54,0.738,0.83l2.51-2.509c0.426-0.426,0.426-1.143,0-1.574
			c-0.426-0.426-1.146-0.426-1.573,0l-2.482,2.486C21.55,12.328,21.794,12.572,22.066,12.845z"/>
		<path fill="#010101" d="M14.905,9.892c0.381,0,0.729,0.032,1.109,0.064V6.408c0-0.605-0.51-1.114-1.109-1.114
			c-0.605,0-1.113,0.509-1.113,1.114v3.516C14.173,9.892,14.521,9.892,14.905,9.892z"/>
		<path fill="#010101" d="M7.737,12.87c0.275-0.272,0.543-0.495,0.838-0.744l-2.51-2.509c-0.426-0.426-1.146-0.426-1.574,0
			c-0.426,0.426-0.426,1.148,0,1.574l2.486,2.486C7.228,13.388,7.472,13.138,7.737,12.87z"/>
		<path fill="#010101" d="M4.835,19.955c0-0.38,0.033-0.734,0.066-1.113H1.358c-0.605,0-1.113,0.509-1.113,1.113
			c0,0.605,0.508,1.113,1.113,1.113H4.87C4.835,20.684,4.835,20.336,4.835,19.955z"/>
		<path fill="#010101" d="M7.765,27.091c-0.268-0.268-0.494-0.539-0.738-0.83l-2.51,2.509c-0.426,0.428-0.426,1.144,0,1.571
			c0.428,0.431,1.148,0.429,1.574,0l2.486-2.483C8.282,27.607,8.038,27.363,7.765,27.091z"/>
		<path fill="#010101" d="M9.534,25.716c0.156-0.856,0.445-1.655,0.857-2.383c-0.701-0.953-1.113-2.099-1.113-3.369
			c0-3.116,2.543-5.622,5.627-5.622c1.842,0,3.463,0.889,4.477,2.254c0.51-0.572,1.051-1.049,1.656-1.493
			c-1.432-1.811-3.652-2.956-6.164-2.956c-4.322,0-7.852,3.528-7.852,7.85C7.056,22.22,8.009,24.254,9.534,25.716z"/>
		<path fill="#010101" d="M34.637,34.706h-0.029h-15.89c0,0,0,0-0.031,0c-3.91,0-7.117-3.175-7.117-7.116s3.207-7.117,7.117-7.117
			c0.283,0,0.541,0.032,0.824,0.065c1.303-3.182,4.449-5.308,7.946-5.308c3.523,0,6.641,2.095,7.941,5.308
			c3.561,0.379,6.356,3.399,6.356,7.083C41.756,31.531,38.58,34.706,34.637,34.706z M18.782,32.484h15.792c0.033,0,0.064,0,0.129,0
			c2.699,0,4.861-2.19,4.861-4.896c0-2.698-2.195-4.896-4.861-4.896c-0.033,0-0.033,0-0.066,0c-0.475,0-0.92-0.314-1.049-0.793
			c-0.855-2.671-3.303-4.48-6.131-4.48c-2.859,0-5.37,1.906-6.136,4.675c-0.156,0.601-0.762,0.921-1.365,0.761
			c-0.445-0.127-0.857-0.16-1.27-0.16c-2.705,0-4.895,2.195-4.895,4.895c0,2.704,2.189,4.895,4.861,4.895l0,0
			C18.718,32.484,18.751,32.484,18.782,32.484z"/>
	</g>
</g>
<g id="Layer_2">
</g>
</svg>
