<?xml version="1.0" encoding="utf-8"?>
<!-- Generator: Adobe Illustrator 15.0.2, SVG Export Plug-In . SVG Version: 6.00 Build 0)  -->
<!DOCTYPE svg PUBLIC "-//W3C//DTD SVG 1.1//EN" "http://www.w3.org/Graphics/SVG/1.1/DTD/svg11.dtd">
<svg version="1.1" id="Layer_1" xmlns="http://www.w3.org/2000/svg" xmlns:xlink="http://www.w3.org/1999/xlink" x="0px" y="0px"
	 width="42px" height="40px" viewBox="0 0 42 40" enable-background="new 0 0 42 40" xml:space="preserve">
<g id="Layer_1_1_">
	<g>
		<path fill="#010101" d="M22.066,12.84c0.267,0.271,0.494,0.539,0.738,0.834l2.51-2.508c0.426-0.426,0.426-1.148,0-1.574
			c-0.426-0.426-1.146-0.426-1.574,0l-2.481,2.486C21.549,12.322,21.794,12.572,22.066,12.84z"/>
		<path fill="#010101" d="M14.905,9.887c0.38,0,0.729,0.031,1.108,0.064V6.408c0-0.605-0.509-1.113-1.108-1.113
			c-0.605,0-1.114,0.508-1.114,1.113v3.51C14.172,9.887,14.52,9.887,14.905,9.887z"/>
		<path fill="#010101" d="M7.736,12.865c0.275-0.268,0.543-0.494,0.838-0.74L6.065,9.617c-0.426-0.426-1.147-0.426-1.574,0
			c-0.426,0.426-0.426,1.148,0,1.574l2.485,2.484C7.227,13.383,7.472,13.137,7.736,12.865z"/>
		<path fill="#010101" d="M4.834,19.955c0-0.385,0.034-0.734,0.067-1.113H1.357c-0.604,0-1.113,0.508-1.113,1.113
			c0,0.6,0.509,1.109,1.113,1.109h3.512C4.834,20.684,4.834,20.336,4.834,19.955z"/>
		<path fill="#010101" d="M7.765,27.09c-0.268-0.271-0.494-0.539-0.739-0.832l-2.509,2.506c-0.426,0.428-0.426,1.148,0,1.574
			c0.427,0.428,1.148,0.426,1.574,0l2.486-2.484C8.282,27.607,8.037,27.357,7.765,27.09z"/>
		<path fill="#FFFFFF" d="M34.637,21.582L34.637,21.582c-0.951-3.053-3.811-5.275-7.18-5.275c-3.434,0-6.324,2.32-7.213,5.5
			c-0.509-0.129-1.018-0.225-1.559-0.225c-3.304,0-6.008,2.703-6.008,6.008s2.704,6.002,6.008,6.002c0,0,0,0,0.032,0l0,0h15.891l0,0
			h0.029c3.305,0,6.004-2.697,6.004-6.002S37.941,21.582,34.637,21.582z"/>
		<path fill="#FEDC00" d="M18.177,18.246c0.541-0.922,1.237-1.779,2.035-2.48c-1.242-1.557-3.148-2.572-5.275-2.572
			c-3.721,0-6.735,3.018-6.735,6.738c0,1.714,0.664,3.304,1.713,4.509C11.122,21.01,14.332,18.471,18.177,18.246z"/>
		<path fill="#010101" d="M9.534,25.715c0.155-0.861,0.444-1.654,0.857-2.383c-0.702-0.951-1.114-2.098-1.114-3.371
			c0-3.113,2.544-5.625,5.628-5.625c1.842,0,3.462,0.889,4.477,2.256c0.509-0.568,1.05-1.045,1.655-1.49
			c-1.431-1.814-3.652-2.955-6.164-2.955c-4.321,0-7.851,3.523-7.851,7.846C7.055,22.219,8.009,24.254,9.534,25.715z"/>
		<path fill="#010101" d="M34.637,34.705h-0.029h-15.89c0,0,0,0-0.032,0c-3.909,0-7.116-3.174-7.116-7.115s3.207-7.123,7.116-7.123
			c0.284,0,0.541,0.033,0.825,0.066c1.302-3.176,4.449-5.309,7.946-5.309c3.523,0,6.641,2.1,7.941,5.309
			c3.561,0.385,6.356,3.398,6.356,7.088C41.756,31.531,38.58,34.705,34.637,34.705z M18.782,32.484h15.792c0.033,0,0.064,0,0.129,0
			c2.699,0,4.861-2.195,4.861-4.896c0-2.705-2.195-4.896-4.861-4.896c-0.033,0-0.033,0-0.066,0c-0.475,0-0.92-0.313-1.049-0.797
			c-0.855-2.667-3.303-4.479-6.131-4.479c-2.859,0-5.371,1.908-6.137,4.67c-0.155,0.605-0.761,0.922-1.365,0.766
			c-0.444-0.127-0.857-0.16-1.27-0.16c-2.704,0-4.895,2.189-4.895,4.896c0,2.699,2.19,4.896,4.862,4.896l0,0
			C18.718,32.484,18.75,32.484,18.782,32.484z"/>
	</g>
</g>
<g id="Layer_2">
</g>
</svg>
